<?xml version="1.0" encoding="UTF-8" standalone="no"?>
<!DOCTYPE svg PUBLIC "-//W3C//DTD SVG 1.1//EN" "http://www.w3.org/Graphics/SVG/1.1/DTD/svg11.dtd">
<svg xmlns="http://www.w3.org/2000/svg" version="1.1" viewBox="0.00 0.00 160.00 160.00">
<g stroke-width="2.70" fill="none" stroke-linecap="butt">
<path stroke="#538fa5" vector-effect="non-scaling-stroke" d="
  M 38.27 53.94
  C 40.47 56.79 41.23 59.51 44.36 62.24
  Q 45.16 62.94 44.75 61.96
  L 40.85 52.63
  A 1.02 0.75 32.9 0 0 39.06 52.73
  Q 39.20 53.14 39.08 53.45
  Q 38.98 53.71 38.76 53.53
  Q 38.63 53.43 38.55 53.24"
/>
<path stroke="#6d8b87" vector-effect="non-scaling-stroke" d="
  M 63.11 77.80
  L 71.32 83.44"
/>
<path stroke="#bbf4fa" vector-effect="non-scaling-stroke" d="
  M 71.32 83.44
  Q 70.46 83.45 70.49 83.77"
/>
<path stroke="#5aacc7" vector-effect="non-scaling-stroke" d="
  M 70.49 83.77
  Q 56.10 76.32 45.13 65.28"
/>
<path stroke="#508d9f" vector-effect="non-scaling-stroke" d="
  M 45.13 65.28
  C 38.34 57.67 32.41 49.40 27.63 40.40
  C 26.44 38.16 26.37 35.68 24.90 33.46"
/>
<path stroke="#114a69" vector-effect="non-scaling-stroke" d="
  M 45.13 65.28
  Q 45.18 67.13 46.47 69.69"
/>
<path stroke="#393c34" vector-effect="non-scaling-stroke" d="
  M 46.47 69.69
  Q 45.17 69.95 43.82 68.44"
/>
<path stroke="#6d735e" vector-effect="non-scaling-stroke" d="
  M 43.82 68.44
  C 36.91 61.94 33.58 55.15 28.62 48.23
  Q 27.42 46.57 27.98 48.54
  C 30.01 55.78 35.50 59.88 39.10 66.15"
/>
<path stroke="#48483d" vector-effect="non-scaling-stroke" d="
  M 39.10 66.15
  L 39.71 67.50
  Q 40.05 68.23 39.26 68.06
  Q 38.32 67.85 37.34 68.12
  A 1.30 1.30 0.0 0 1 35.79 67.35
  Q 34.84 64.94 33.12 63.27"
/>
<path stroke="#242a2a" vector-effect="non-scaling-stroke" d="
  M 33.12 63.27
  Q 31.56 63.17 31.56 62.93"
/>
<path stroke="#508d9f" vector-effect="non-scaling-stroke" d="
  M 31.56 62.93
  Q 30.95 60.77 28.73 59.25
  C 27.39 58.33 26.77 57.33 26.00 56.07"
/>
<path stroke="#2b4e90" vector-effect="non-scaling-stroke" d="
  M 26.00 56.07
  C 25.64 52.79 25.08 50.69 22.26 49.16"
/>
<path stroke="#71d4e0" vector-effect="non-scaling-stroke" d="
  M 89.40 86.44
  Q 88.09 87.78 88.61 89.50
  Q 88.75 89.97 89.22 90.14
  Q 91.37 90.89 93.09 89.36"
/>
<path stroke="#71d4e0" vector-effect="non-scaling-stroke" d="
  M 85.48 93.20
  C 82.38 95.81 82.81 98.69 82.85 102.10
  C 82.89 105.30 81.64 108.28 81.41 111.58
  Q 81.38 111.99 80.97 111.94
  L 80.61 111.89
  A 0.62 0.61 -88.4 0 1 80.07 111.31
  C 79.89 107.91 78.84 104.62 78.94 101.29
  C 79.05 97.68 79.28 95.19 75.97 93.37"
/>
<path stroke="#d8dab9" vector-effect="non-scaling-stroke" d="
  M 75.97 93.37
  Q 76.30 91.55 74.99 90.87"
/>
<path stroke="#7cb2c5" vector-effect="non-scaling-stroke" d="
  M 70.49 83.77
  Q 73.63 87.41 74.99 90.87"
/>
<path stroke="#779286" vector-effect="non-scaling-stroke" d="
  M 74.99 90.87
  L 71.60 91.64
  Q 71.06 91.76 70.72 91.32
  L 67.23 86.86"
/>
<path stroke="#607574" vector-effect="non-scaling-stroke" d="
  M 67.23 86.86
  L 55.93 76.93"
/>
<path stroke="#779286" vector-effect="non-scaling-stroke" d="
  M 55.93 76.93
  L 48.18 71.54"
/>
<path stroke="#435b5c" vector-effect="non-scaling-stroke" d="
  M 48.18 71.54
  Q 47.23 71.53 46.47 69.69"
/>
<path stroke="#897146" vector-effect="non-scaling-stroke" d="
  M 72.28 80.20
  L 73.83 81.24"
/>
<path stroke="#8f9185" vector-effect="non-scaling-stroke" d="
  M 79.44 94.31
  Q 75.93 87.55 71.32 83.44"
/>
<path stroke="#74afed" vector-effect="non-scaling-stroke" d="
  M 22.41 54.45
  Q 23.80 55.74 26.00 56.07"
/>
<path stroke="#6d8b87" vector-effect="non-scaling-stroke" d="
  M 31.56 62.93
  C 28.84 61.67 26.72 58.92 23.79 58.26"
/>
<path stroke="#538fa5" vector-effect="non-scaling-stroke" d="
  M 23.79 58.26
  L 11.92 51.39"
/>
<path stroke="#9f8350" vector-effect="non-scaling-stroke" d="
  M 43.82 68.44
  Q 45.43 70.65 44.07 71.06"
/>
<path stroke="#ad905a" vector-effect="non-scaling-stroke" d="
  M 44.07 71.06
  L 39.10 66.15"
/>
<path stroke="#644726" vector-effect="non-scaling-stroke" d="
  M 33.12 63.27
  L 39.57 78.53"
/>
<path stroke="#725434" vector-effect="non-scaling-stroke" d="
  M 39.57 78.53
  Q 40.42 81.02 43.35 80.67"
/>
<path stroke="#2e4952" vector-effect="non-scaling-stroke" d="
  M 43.35 80.67
  Q 44.16 81.36 45.02 82.89"
/>
<path stroke="#644726" vector-effect="non-scaling-stroke" d="
  M 45.02 82.89
  L 45.69 86.17
  A 0.41 0.40 0.1 0 1 45.21 86.64
  Q 44.43 86.49 44.10 85.75
  A 0.43 0.42 68.5 0 0 43.58 85.52
  L 43.31 85.60
  Q 43.06 85.68 43.14 85.94
  L 45.13 91.94
  A 0.75 0.75 0.0 0 1 44.27 92.91
  Q 43.43 92.74 43.56 93.87
  A 0.71 0.67 20.1 0 0 43.76 94.27
  Q 45.32 95.84 47.02 97.21
  C 48.19 98.15 48.79 99.96 47.66 101.00
  A 1.04 1.04 0.0 0 0 48.08 102.77
  L 58.50 105.67"
/>
<path stroke="#725434" vector-effect="non-scaling-stroke" d="
  M 58.50 105.67
  C 60.78 107.25 64.14 109.94 66.86 110.21"
/>
<path stroke="#236b6d" vector-effect="non-scaling-stroke" d="
  M 66.86 110.21
  C 70.76 114.00 68.30 117.51 65.81 121.63"
/>
<path stroke="#2e5e72" stroke-opacity="0.996" vector-effect="non-scaling-stroke" d="
  M 61.22 125.62
  Q 63.00 121.31 61.63 118.38
  C 57.94 110.46 49.39 103.64 40.79 101.81
  Q 39.89 101.62 39.42 100.49"
/>
<path stroke="#228883" vector-effect="non-scaling-stroke" d="
  M 39.42 100.49
  Q 37.69 96.43 34.30 92.64"
/>
<path stroke="#262c30" vector-effect="non-scaling-stroke" d="
  M 34.30 92.64
  Q 35.29 90.55 35.57 88.64
  Q 35.64 88.16 35.85 87.93
  Q 36.17 87.60 36.60 87.62
  Q 37.03 87.63 36.92 87.22
  L 36.46 85.56"
/>
<path stroke="#6d8b87" vector-effect="non-scaling-stroke" d="
  M 36.46 85.56
  Q 36.99 85.46 36.93 85.25
  Q 36.18 82.70 35.47 80.14"
/>
<path stroke="#2e5e72" stroke-opacity="0.996" vector-effect="non-scaling-stroke" d="
  M 35.47 80.14
  Q 32.19 72.02 26.86 63.39
  Q 25.45 61.10 23.80 59.85"
/>
<path stroke="#9f8350" vector-effect="non-scaling-stroke" d="
  M 48.18 71.54
  Q 50.01 75.88 53.45 78.01"
/>
<path stroke="#88663e" vector-effect="non-scaling-stroke" d="
  M 53.45 78.01
  L 58.73 82.73"
/>
<path stroke="#563a1c" vector-effect="non-scaling-stroke" d="
  M 58.73 82.73
  L 57.60 82.24
  A 0.30 0.30 0.0 0 0 57.25 82.70
  L 58.73 84.47"
/>
<path stroke="#88663e" vector-effect="non-scaling-stroke" d="
  M 58.73 84.47
  L 55.06 80.99"
/>
<path stroke="#7a5930" vector-effect="non-scaling-stroke" d="
  M 55.06 80.99
  Q 54.45 79.80 53.15 79.87
  Q 52.67 79.89 52.60 80.37
  Q 52.25 82.95 50.00 82.85"
/>
<path stroke="#88663e" vector-effect="non-scaling-stroke" d="
  M 50.00 82.85
  Q 48.32 81.64 45.01 80.15
  C 41.93 78.76 43.83 75.55 43.15 72.83"
/>
<path stroke="#7a5930" vector-effect="non-scaling-stroke" d="
  M 44.07 71.06
  Q 44.27 71.21 44.27 71.38
  A 0.18 0.18 0.0 0 1 43.96 71.51
  L 43.77 71.33
  Q 43.43 71.00 43.23 71.44
  Q 42.99 71.94 43.15 72.83"
/>
<path stroke="#967348" vector-effect="non-scaling-stroke" d="
  M 43.15 72.83
  Q 42.61 71.15 41.82 70.39
  Q 40.27 68.89 40.37 71.04
  Q 40.45 72.75 39.27 73.85
  Q 38.90 74.20 38.98 74.71
  L 39.57 78.53"
/>
<path stroke="#ad905a" vector-effect="non-scaling-stroke" d="
  M 75.97 93.37
  C 73.72 92.06 72.23 94.82 69.38 94.89"
/>
<path stroke="#508d9f" vector-effect="non-scaling-stroke" d="
  M 136.85 33.43
  Q 135.35 34.39 134.84 36.91
  Q 134.34 39.44 133.75 40.61
  Q 127.36 53.26 118.00 63.51"
/>
<path stroke="#5aacc7" vector-effect="non-scaling-stroke" d="
  M 118.00 63.51
  C 115.25 65.65 113.53 68.68 111.16 70.51
  Q 101.85 77.72 91.77 83.63"
/>
<path stroke="#bbf4fa" vector-effect="non-scaling-stroke" d="
  M 91.77 83.63
  Q 92.00 83.42 90.69 83.40"
/>
<path stroke="#6d8b87" vector-effect="non-scaling-stroke" d="
  M 90.69 83.40
  L 98.64 77.85"
/>
<path stroke="#538fa5" vector-effect="non-scaling-stroke" d="
  M 123.34 51.80
  Q 121.42 51.62 121.12 52.28
  Q 119.20 56.56 117.83 59.74
  Q 116.31 63.28 118.94 60.47
  C 121.15 58.11 122.34 55.89 124.18 53.32"
/>
<path stroke="#478981" vector-effect="non-scaling-stroke" d="
  M 75.97 93.37
  Q 76.19 94.87 77.05 96.16
  A 1.71 1.71 0.0 0 1 77.33 96.95
  L 78.81 114.44
  Q 78.81 114.49 78.86 114.43
  L 79.02 114.22
  Q 79.15 114.06 79.25 114.24
  Q 79.46 114.63 79.50 115.23"
/>
<path stroke="#779286" vector-effect="non-scaling-stroke" d="
  M 111.06 73.18
  Q 108.51 75.82 105.33 77.14"
/>
<path stroke="#607574" vector-effect="non-scaling-stroke" d="
  M 105.33 77.14
  L 95.53 85.86"
/>
<path stroke="#108bad" vector-effect="non-scaling-stroke" d="
  M 95.53 85.86
  C 93.56 86.34 92.25 87.91 90.25 87.90
  Q 89.12 87.90 89.40 86.44"
/>
<path stroke="#7cb2c5" vector-effect="non-scaling-stroke" d="
  M 89.40 86.44
  L 91.77 83.63"
/>
<path stroke="#8f9185" vector-effect="non-scaling-stroke" d="
  M 90.69 83.40
  C 87.46 85.48 85.08 89.69 82.76 93.27"
/>
<path stroke="#725434" vector-effect="non-scaling-stroke" d="
  M 103.72 82.13
  Q 98.21 87.27 93.21 94.20
  Q 92.56 95.09 90.77 95.07"
/>
<path stroke="#967348" vector-effect="non-scaling-stroke" d="
  M 90.77 95.07
  L 87.70 92.98
  A 1.00 0.99 -59.6 0 0 86.25 93.36
  L 85.15 95.55"
/>
<path stroke="#55978f" vector-effect="non-scaling-stroke" d="
  M 85.15 95.55
  Q 85.07 94.57 85.48 93.20"
/>
<path stroke="#c1bda7" vector-effect="non-scaling-stroke" d="
  M 85.48 93.20
  L 86.42 91.41
  Q 86.67 90.93 87.15 91.16
  Q 87.29 91.23 87.38 91.36
  Q 87.52 91.56 87.75 91.62
  L 91.89 92.67
  A 1.80 1.80 0.0 0 0 94.13 90.92
  Q 94.12 89.73 93.09 89.36"
/>
<path stroke="#55978f" vector-effect="non-scaling-stroke" d="
  M 93.09 89.36
  Q 93.94 87.17 95.53 85.86"
/>
<path stroke="#644726" vector-effect="non-scaling-stroke" d="
  M 102.26 71.54
  Q 98.81 75.41 97.22 76.20
  C 94.51 77.56 92.21 79.43 89.47 80.69
  C 87.34 81.68 83.92 85.77 83.31 86.74
  Q 81.22 90.02 82.76 93.27"
/>
<path stroke="#b3b099" vector-effect="non-scaling-stroke" d="
  M 82.76 93.27
  L 81.22 97.82
  Q 80.80 99.07 80.44 97.80
  L 79.44 94.31"
/>
<path stroke="#644726" vector-effect="non-scaling-stroke" d="
  M 79.44 94.31
  Q 80.30 90.84 79.29 88.48
  Q 77.74 84.86 73.83 81.24"
/>
<path stroke="#ad905a" vector-effect="non-scaling-stroke" d="
  M 73.83 81.24
  Q 73.58 79.26 72.77 78.23
  Q 72.20 77.51 70.89 77.34
  Q 70.35 77.27 70.56 77.78
  Q 71.02 78.92 72.28 80.20"
/>
<path stroke="#644726" vector-effect="non-scaling-stroke" d="
  M 72.28 80.20
  Q 66.43 77.66 61.77 73.98
  Q 61.26 73.57 61.52 73.23"
/>
<path stroke="#644726" vector-effect="non-scaling-stroke" d="
  M 70.05 73.13
  Q 73.59 74.65 75.86 77.88
  Q 76.38 78.62 75.47 78.62
  L 74.63 78.62
  A 0.51 0.51 0.0 0 0 74.12 79.13
  L 74.12 79.77
  Q 74.12 80.20 74.45 80.49
  Q 78.13 83.79 80.22 88.27
  A 0.73 0.73 0.0 0 0 81.55 88.27
  Q 83.53 83.87 86.90 80.43
  Q 88.01 79.30 86.38 79.43
  Q 86.00 79.46 85.91 78.68
  Q 85.87 78.28 86.08 77.89
  Q 88.00 74.36 91.75 73.13"
/>
<path stroke="#bb9d68" vector-effect="non-scaling-stroke" d="
  M 67.23 86.86
  Q 68.62 88.25 65.99 90.78"
/>
<path stroke="#725434" vector-effect="non-scaling-stroke" d="
  M 65.99 90.78
  L 58.73 82.73"
/>
<path stroke="#bb9d68" vector-effect="non-scaling-stroke" d="
  M 55.93 76.93
  L 55.86 77.76
  Q 55.81 78.30 55.27 78.36
  Q 54.42 78.47 53.45 78.01"
/>
<path stroke="#967348" vector-effect="non-scaling-stroke" d="
  M 64.26 71.71
  Q 64.06 72.93 63.14 73.43
  Q 62.78 73.63 62.32 73.51
  Q 61.92 73.40 61.52 73.23"
/>
<path stroke="#725434" vector-effect="non-scaling-stroke" d="
  M 61.52 73.23
  L 59.70 71.79"
/>
<path stroke="#262c30" vector-effect="non-scaling-stroke" d="
  M 23.79 58.26
  Q 23.97 59.08 23.80 59.85"
/>
<path stroke="#146190" stroke-opacity="0.996" vector-effect="non-scaling-stroke" d="
  M 23.80 59.85
  Q 23.66 59.87 23.56 59.95
  Q 23.32 60.15 23.48 60.43
  C 26.05 64.93 28.07 69.63 30.62 74.11
  Q 32.18 76.85 30.29 77.61"
/>
<path stroke="#538fa5" vector-effect="non-scaling-stroke" d="
  M 30.29 77.61
  L 27.05 76.57"
/>
<path stroke="#0e3b6e" vector-effect="non-scaling-stroke" d="
  M 27.05 76.57
  Q 27.32 76.64 27.51 76.60
  Q 28.05 76.50 27.76 76.03
  L 22.30 67.09"
/>
<path stroke="#146190" stroke-opacity="0.996" vector-effect="non-scaling-stroke" d="
  M 22.30 67.09
  L 17.15 55.95
  Q 17.08 55.80 16.93 55.87
  L 16.67 55.98
  Q 16.41 56.09 16.51 56.35
  L 18.82 62.50
  Q 19.02 63.05 18.51 63.33
  Q 18.10 63.56 17.64 63.32
  Q 17.55 63.28 17.15 62.87
  Q 16.81 62.52 16.39 62.76"
/>
<path stroke="#607574" vector-effect="non-scaling-stroke" d="
  M 51.35 95.42
  Q 54.18 100.05 57.83 101.95"
/>
<path stroke="#55978f" vector-effect="non-scaling-stroke" d="
  M 62.54 105.91
  Q 65.42 107.99 66.86 110.21"
/>
<path stroke="#5bc1e8" stroke-opacity="0.996" vector-effect="non-scaling-stroke" d="
  M 35.47 80.14
  Q 34.42 79.96 34.08 78.77
  Q 33.95 78.30 33.47 78.38
  Q 31.68 78.67 30.29 77.61"
/>
<path stroke="#526765" vector-effect="non-scaling-stroke" d="
  M 47.51 82.86
  L 48.59 84.23"
/>
<path stroke="#5aacc7" vector-effect="non-scaling-stroke" d="
  M 48.59 84.23
  Q 47.90 84.65 48.58 85.30
  Q 49.85 86.52 51.15 87.71
  C 52.24 88.70 52.39 89.90 53.04 91.15
  A 1.29 1.29 0.0 0 1 51.75 93.03
  L 49.66 92.79"
/>
<path stroke="#607574" vector-effect="non-scaling-stroke" d="
  M 49.66 92.79
  Q 49.22 92.11 48.56 91.94"
/>
<path stroke="#526765" vector-effect="non-scaling-stroke" d="
  M 48.56 91.94
  L 45.02 82.89"
/>
<path stroke="#0fbee4" stroke-opacity="0.996" vector-effect="non-scaling-stroke" d="
  M 39.42 100.49
  Q 38.64 101.60 37.43 101.27"
/>
<path stroke="#0a97c2" vector-effect="non-scaling-stroke" d="
  M 37.43 101.27
  Q 35.51 99.99 35.14 98.50
  Q 33.57 92.19 28.95 91.40"
/>
<path stroke="#967348" vector-effect="non-scaling-stroke" d="
  M 50.00 82.85
  Q 52.44 84.83 55.06 80.99"
/>
<path stroke="#725434" vector-effect="non-scaling-stroke" d="
  M 58.73 84.47
  L 60.29 86.48
  Q 60.97 87.36 60.03 86.76
  L 58.35 85.70
  A 1.69 1.44 63.5 0 0 58.02 85.56
  Q 55.28 84.90 55.87 87.00
  Q 56.21 88.24 56.59 89.13
  Q 57.30 90.79 55.71 89.93
  L 54.99 89.55"
/>
<path stroke="#9fb7a9" vector-effect="non-scaling-stroke" d="
  M 54.99 89.55
  Q 54.03 88.70 53.74 88.13"
/>
<path stroke="#967348" vector-effect="non-scaling-stroke" d="
  M 53.74 88.13
  Q 51.71 84.00 47.51 82.86"
/>
<path stroke="#607574" vector-effect="non-scaling-stroke" d="
  M 47.51 82.86
  L 43.35 80.67"
/>
<path stroke="#967348" vector-effect="non-scaling-stroke" d="
  M 48.56 91.94
  Q 49.09 91.72 48.28 91.75
  A 0.18 0.17 77.8 0 0 48.13 91.99
  Q 50.11 96.90 53.94 100.45
  Q 56.52 102.83 58.50 105.67"
/>
<path stroke="#538fa5" vector-effect="non-scaling-stroke" d="
  M 36.46 85.56
  C 35.10 83.96 34.54 82.37 32.76 81.24
  Q 29.06 78.88 24.28 77.95"
/>
<path stroke="#559ac6" vector-effect="non-scaling-stroke" d="
  M 24.28 77.95
  Q 18.55 75.37 16.11 77.60"
/>
<path stroke="#088ba1" vector-effect="non-scaling-stroke" d="
  M 34.30 92.64
  L 30.11 89.12"
/>
<path stroke="#897146" vector-effect="non-scaling-stroke" d="
  M 65.99 90.78
  L 69.38 94.89"
/>
<path stroke="#644726" vector-effect="non-scaling-stroke" d="
  M 69.38 94.89
  Q 71.12 94.94 71.58 96.22
  Q 74.59 104.49 76.26 114.08
  C 76.58 115.95 77.44 117.95 77.91 120.12"
/>
<path stroke="#236b6d" vector-effect="non-scaling-stroke" d="
  M 71.46 120.10
  Q 72.12 118.45 71.62 115.50
  Q 70.43 108.46 66.56 103.24"
/>
<path stroke="#6d8b87" vector-effect="non-scaling-stroke" d="
  M 66.56 103.24
  Q 61.45 95.92 54.99 89.55"
/>
<path stroke="#2b4e90" vector-effect="non-scaling-stroke" d="
  M 139.37 49.18
  Q 137.07 51.42 136.57 52.23
  Q 135.68 53.64 135.59 56.40"
/>
<path stroke="#508d9f" vector-effect="non-scaling-stroke" d="
  M 135.59 56.40
  L 130.18 62.24
  Q 129.86 62.58 130.33 62.65
  Q 130.60 62.68 130.76 62.78"
/>
<path stroke="#242a2a" vector-effect="non-scaling-stroke" d="
  M 130.76 62.78
  Q 129.11 63.03 127.96 64.92"
/>
<path stroke="#393c34" vector-effect="non-scaling-stroke" d="
  M 127.96 64.92
  Q 129.99 59.95 126.01 66.78
  Q 125.48 67.69 124.43 66.68
  Q 123.09 66.45 123.81 64.12"
/>
<path stroke="#6d735e" vector-effect="non-scaling-stroke" d="
  M 123.81 64.12
  C 126.60 59.77 132.92 53.86 133.51 48.67
  Q 133.62 47.65 133.03 48.48
  C 128.04 55.38 124.38 62.39 117.46 68.79"
/>
<path stroke="#393c34" vector-effect="non-scaling-stroke" d="
  M 117.46 68.79
  Q 116.68 69.82 115.81 69.99"
/>
<path stroke="#114a69" vector-effect="non-scaling-stroke" d="
  M 115.81 69.99
  L 115.87 68.85
  Q 115.89 68.41 116.07 68.00
  L 118.00 63.51"
/>
<path stroke="#bb9d68" vector-effect="non-scaling-stroke" d="
  M 107.84 78.33
  Q 106.39 78.43 106.00 78.37
  Q 105.34 78.27 105.33 77.14"
/>
<path stroke="#435b5c" vector-effect="non-scaling-stroke" d="
  M 117.07 80.92
  Q 112.46 83.15 109.07 86.65"
/>
<path stroke="#563a1c" vector-effect="non-scaling-stroke" d="
  M 109.07 86.65
  L 108.28 86.66
  Q 107.80 86.67 107.69 86.20
  Q 107.58 85.77 107.72 85.13"
/>
<path stroke="#88663e" vector-effect="non-scaling-stroke" d="
  M 107.72 85.13
  Q 108.38 84.41 109.38 83.97
  Q 109.81 83.79 109.60 83.37
  Q 108.89 81.94 107.77 81.44
  Q 107.06 81.13 107.45 81.80
  Q 108.20 83.07 108.79 83.35
  Q 108.84 83.37 108.78 83.37
  L 108.47 83.38
  Q 108.31 83.38 108.21 83.25
  L 106.90 81.61
  A 0.57 0.55 -38.7 0 0 106.10 81.53
  L 104.57 82.79"
/>
<path stroke="#563a1c" vector-effect="non-scaling-stroke" d="
  M 104.57 82.79
  Q 104.71 82.47 104.48 82.27
  Q 104.26 82.08 103.72 82.13"
/>
<path stroke="#88663e" vector-effect="non-scaling-stroke" d="
  M 103.72 82.13
  L 107.84 78.33"
/>
<path stroke="#9f8350" vector-effect="non-scaling-stroke" d="
  M 107.84 78.33
  Q 111.18 76.52 111.84 73.65
  Q 111.95 73.18 111.47 73.11
  Q 111.30 73.09 111.06 73.18"
/>
<path stroke="#435b5c" vector-effect="non-scaling-stroke" d="
  M 111.06 73.18
  C 111.97 71.57 114.32 71.35 115.81 69.99"
/>
<path stroke="#6d8b87" vector-effect="non-scaling-stroke" d="
  M 107.16 89.09
  Q 105.24 91.25 102.81 93.50
  Q 100.40 95.73 94.19 104.77"
/>
<path stroke="#2e4952" vector-effect="non-scaling-stroke" d="
  M 94.19 104.77
  L 92.54 107.99"
/>
<path stroke="#228883" vector-effect="non-scaling-stroke" d="
  M 92.54 107.99
  Q 89.54 113.95 90.28 120.02"
/>
<path stroke="#644726" vector-effect="non-scaling-stroke" d="
  M 84.36 120.16
  Q 86.35 106.94 90.77 95.07"
/>
<path stroke="#478981" vector-effect="non-scaling-stroke" d="
  M 83.12 114.68
  Q 83.47 112.24 83.42 109.35
  Q 83.39 107.24 83.80 104.69
  C 84.32 101.52 84.04 99.19 85.15 95.55"
/>
<path stroke="#563a1c" vector-effect="non-scaling-stroke" d="
  M 72.73 70.24
  L 76.69 76.22
  Q 77.22 77.03 77.48 76.09
  Q 78.38 72.73 76.29 68.92"
/>
<path stroke="#2e4952" vector-effect="non-scaling-stroke" d="
  M 79.78 70.40
  C 79.28 73.46 79.91 75.10 80.19 78.02
  A 0.57 0.56 64.9 0 0 81.15 78.37
  Q 81.65 77.86 81.74 77.00
  Q 82.08 73.78 82.09 70.39"
/>
<path stroke="#563a1c" vector-effect="non-scaling-stroke" d="
  M 85.58 69.06
  C 85.81 70.53 83.67 72.41 84.18 74.49
  Q 84.90 77.42 86.02 74.61
  Q 87.06 72.00 90.50 70.51"
/>
<path stroke="#166db1" stroke-opacity="0.996" vector-effect="non-scaling-stroke" d="
  M 22.30 67.09
  Q 19.01 65.66 18.29 66.76"
/>
<path stroke="#559ac6" vector-effect="non-scaling-stroke" d="
  M 27.05 76.57
  L 23.56 75.75"
/>
<path stroke="#4fcee2" vector-effect="non-scaling-stroke" d="
  M 66.56 103.24
  L 66.58 104.21
  Q 66.60 104.60 66.21 104.62
  Q 65.35 104.66 64.72 105.27
  A 1.15 1.13 -73.2 0 1 64.15 105.58
  L 62.54 105.91"
/>
<path stroke="#9fb7a9" vector-effect="non-scaling-stroke" d="
  M 62.54 105.91
  L 57.83 101.95"
/>
<path stroke="#5aacc7" vector-effect="non-scaling-stroke" d="
  M 57.83 101.95
  Q 59.17 98.87 57.26 97.37
  Q 54.09 94.87 51.35 95.42"
/>
<path stroke="#9fb7a9" vector-effect="non-scaling-stroke" d="
  M 51.35 95.42
  Q 50.99 94.16 49.66 92.79"
/>
<path stroke="#166db1" stroke-opacity="0.996" vector-effect="non-scaling-stroke" d="
  M 37.43 101.27
  Q 37.64 101.76 38.24 102.01
  Q 38.70 102.19 38.71 102.68
  Q 38.71 103.09 38.45 103.10"
/>
<path stroke="#91aa9b" vector-effect="non-scaling-stroke" d="
  M 53.74 88.13
  L 48.59 84.23"
/>
<path stroke="#0e3b6e" vector-effect="non-scaling-stroke" d="
  M 24.28 77.95
  Q 20.62 78.10 25.36 82.50
  Q 27.19 84.20 30.11 89.12"
/>
<path stroke="#0a97c2" vector-effect="non-scaling-stroke" d="
  M 30.11 89.12
  L 27.01 89.18"
/>
<path stroke="#74afed" vector-effect="non-scaling-stroke" d="
  M 139.33 54.53
  L 135.59 56.40"
/>
<path stroke="#559ac6" vector-effect="non-scaling-stroke" d="
  M 148.67 51.79
  L 142.20 55.21"
/>
<path stroke="#538fa5" vector-effect="non-scaling-stroke" d="
  M 142.20 55.21
  L 130.76 62.78"
/>
<path stroke="#146190" stroke-opacity="0.996" vector-effect="non-scaling-stroke" d="
  M 141.19 63.04
  L 139.90 65.43"
/>
<path stroke="#0e3b6e" vector-effect="non-scaling-stroke" d="
  M 139.90 65.43
  Q 139.76 65.66 139.70 65.91
  Q 139.59 66.41 139.30 66.82
  Q 136.30 70.95 134.08 75.55
  Q 133.76 76.23 133.01 76.35
  L 131.33 76.64
  Q 130.56 76.77 130.85 76.05
  L 132.71 71.52"
/>
<path stroke="#146190" stroke-opacity="0.996" vector-effect="non-scaling-stroke" d="
  M 132.71 71.52
  Q 134.54 67.03 136.87 62.71
  C 137.34 61.83 138.32 61.22 138.37 59.80
  Q 138.40 59.08 138.01 59.68
  L 131.30 69.90"
/>
<path stroke="#262c30" vector-effect="non-scaling-stroke" d="
  M 131.30 69.90
  Q 131.09 68.71 131.60 67.57
  Q 131.81 67.09 131.61 66.61
  Q 131.07 65.36 131.59 64.08
  Q 131.80 63.56 131.50 63.09
  Q 131.23 62.69 130.76 62.78"
/>
<path stroke="#6d8b87" vector-effect="non-scaling-stroke" d="
  M 129.22 74.21
  L 124.37 85.61"
/>
<path stroke="#262c30" vector-effect="non-scaling-stroke" d="
  M 124.37 85.61
  Q 124.66 86.22 124.59 87.19
  C 124.48 88.88 125.59 90.62 126.63 91.86
  Q 126.96 92.26 126.64 92.67
  Q 125.84 93.69 125.82 94.86"
/>
<path stroke="#228883" vector-effect="non-scaling-stroke" d="
  M 125.82 94.86
  L 122.21 100.93"
/>
<path stroke="#2e5e72" stroke-opacity="0.996" vector-effect="non-scaling-stroke" d="
  M 122.21 100.93
  L 121.65 101.54
  Q 121.32 101.90 120.84 101.99
  Q 111.98 103.75 105.87 110.65"
/>
<path stroke="#262c30" vector-effect="non-scaling-stroke" d="
  M 100.65 123.20
  Q 99.84 123.77 99.16 124.68"
/>
<path stroke="#228883" vector-effect="non-scaling-stroke" d="
  M 95.48 121.14
  C 94.20 118.29 91.98 116.09 93.16 112.65"
/>
<path stroke="#2e4952" vector-effect="non-scaling-stroke" d="
  M 93.16 112.65
  Q 94.62 109.80 95.32 110.24"
/>
<path stroke="#644726" vector-effect="non-scaling-stroke" d="
  M 95.32 110.24
  Q 103.30 105.60 110.72 103.36"
/>
<path stroke="#897146" vector-effect="non-scaling-stroke" d="
  M 110.72 103.36
  Q 114.77 102.69 113.16 101.45"
/>
<path stroke="#644726" vector-effect="non-scaling-stroke" d="
  M 113.16 101.45
  Q 111.89 100.88 112.55 98.04"
/>
<path stroke="#897146" vector-effect="non-scaling-stroke" d="
  M 112.55 98.04
  L 115.00 96.03"
/>
<path stroke="#644726" vector-effect="non-scaling-stroke" d="
  M 115.00 96.03
  Q 116.38 96.00 116.77 94.85
  Q 116.93 94.41 116.54 94.14
  Q 115.45 93.38 116.13 91.22
  A 5.38 5.11 -19.6 0 1 116.92 89.66
  Q 118.07 88.11 118.14 86.14
  A 0.53 0.53 0.0 0 0 117.18 85.80
  Q 116.86 86.24 115.94 86.32"
/>
<path stroke="#2e4952" vector-effect="non-scaling-stroke" d="
  M 115.94 86.32
  Q 117.00 83.61 117.07 80.92"
/>
<path stroke="#563a1c" vector-effect="non-scaling-stroke" d="
  M 117.07 80.92
  L 120.50 80.33
  Q 121.00 80.24 121.21 79.78
  L 127.96 64.92"
/>
<path stroke="#9f8350" vector-effect="non-scaling-stroke" d="
  M 123.81 64.12
  C 122.16 65.79 119.97 69.24 117.86 69.84
  Q 117.33 70.00 117.39 69.44
  L 117.46 68.79"
/>
<path stroke="#526765" vector-effect="non-scaling-stroke" d="
  M 115.94 86.32
  Q 116.07 85.98 115.47 86.78"
/>
<path stroke="#5aacc7" vector-effect="non-scaling-stroke" d="
  M 115.47 86.78
  C 114.11 89.19 113.60 92.01 110.72 93.19
  A 1.18 1.18 0.0 0 1 109.10 91.96
  Q 109.27 90.57 109.73 89.13
  C 110.38 87.08 112.39 85.97 113.98 84.63
  Q 114.12 84.52 114.01 84.39
  L 113.84 84.17
  A 0.43 0.43 0.0 0 0 113.23 84.11
  L 107.16 89.09"
/>
<path stroke="#2e4952" vector-effect="non-scaling-stroke" d="
  M 107.16 89.09
  Q 106.82 88.03 109.07 86.65"
/>
<path stroke="#725434" vector-effect="non-scaling-stroke" d="
  M 107.72 85.13
  Q 107.54 85.77 107.19 86.28
  Q 106.55 87.21 106.40 86.09
  Q 106.36 85.83 106.18 85.57
  A 1.24 1.23 60.9 0 0 104.72 85.15
  Q 103.22 85.76 101.93 86.78
  Q 101.85 86.84 101.75 86.81
  Q 101.62 86.78 101.48 86.74
  A 0.18 0.18 0.0 0 1 101.39 86.45
  L 104.57 82.79"
/>
<path stroke="#91aa9b" vector-effect="non-scaling-stroke" d="
  M 115.47 86.78
  C 114.85 88.17 114.98 89.33 114.27 90.62
  Q 111.94 94.88 109.20 98.73
  A 0.99 0.99 0.0 0 1 108.44 99.14
  Q 108.08 99.15 108.02 98.74"
/>
<path stroke="#5aacc7" vector-effect="non-scaling-stroke" d="
  M 108.02 98.74
  L 110.13 95.70
  A 0.49 0.48 -69.8 0 0 109.78 94.94
  Q 108.31 94.80 107.41 95.89
  Q 107.14 96.22 106.71 96.34
  Q 102.36 97.49 103.77 102.23"
/>
<path stroke="#91aa9b" vector-effect="non-scaling-stroke" d="
  M 103.77 102.23
  L 98.86 106.29"
/>
<path stroke="#5aacc7" vector-effect="non-scaling-stroke" d="
  M 98.86 106.29
  Q 97.18 106.50 96.82 105.75
  A 0.62 0.61 -17.6 0 0 96.16 105.41
  Q 94.43 105.71 94.19 104.77"
/>
<path stroke="#0fa8c3" vector-effect="non-scaling-stroke" d="
  M 93.16 112.65
  Q 93.92 108.79 92.54 107.99"
/>
<path stroke="#69848c" vector-effect="non-scaling-stroke" d="
  M 86.28 68.13
  L 92.07 68.37
  Q 92.54 68.39 92.15 68.64
  L 91.11 69.31
  Q 90.74 69.55 90.30 69.62
  Q 89.36 69.78 88.89 70.51
  A 1.24 1.24 0.0 0 1 87.21 70.92
  Q 86.24 70.35 86.16 69.30
  Q 86.13 69.02 85.86 68.93
  Q 85.64 68.86 85.58 69.06"
/>
<path stroke="#537282" vector-effect="non-scaling-stroke" d="
  M 85.58 69.06
  Q 83.94 68.91 82.48 69.85"
/>
<path stroke="#a2dbf5" vector-effect="non-scaling-stroke" d="
  M 82.48 69.85
  Q 82.23 68.25 81.42 67.19
  Q 81.07 66.73 80.59 67.05
  Q 79.12 68.02 79.44 70.07"
/>
<path stroke="#537282" vector-effect="non-scaling-stroke" d="
  M 79.44 70.07
  L 76.97 68.90"
/>
<path stroke="#9cbbb6" vector-effect="non-scaling-stroke" d="
  M 76.97 68.90
  Q 75.61 68.94 75.24 67.89"
/>
<path stroke="#897146" vector-effect="non-scaling-stroke" d="
  M 76.97 68.90
  Q 76.72 69.01 76.29 68.92"
/>
<path stroke="#9f8350" vector-effect="non-scaling-stroke" d="
  M 76.29 68.92
  Q 75.58 69.52 74.87 70.45
  Q 74.34 71.14 73.87 71.06
  Q 73.31 70.97 72.73 70.24"
/>
<path stroke="#897146" vector-effect="non-scaling-stroke" d="
  M 72.73 70.24
  Q 66.58 68.05 70.98 68.16"
/>
<path stroke="#8f9185" vector-effect="non-scaling-stroke" d="
  M 82.48 69.85
  Q 82.06 70.21 82.09 70.39"
/>
<path stroke="#7cb2c5" vector-effect="non-scaling-stroke" d="
  M 82.09 70.39
  Q 80.85 71.51 79.78 70.40"
/>
<path stroke="#8f9185" vector-effect="non-scaling-stroke" d="
  M 79.78 70.40
  L 79.44 70.07"
/>
<path stroke="#166db1" stroke-opacity="0.996" vector-effect="non-scaling-stroke" d="
  M 144.81 63.36
  Q 142.45 62.50 141.19 63.04"
/>
<path stroke="#0e3b6e" vector-effect="non-scaling-stroke" d="
  M 141.19 63.04
  Q 142.87 59.23 143.31 56.50
  Q 143.45 55.65 142.20 55.21"
/>
<path stroke="#166db1" stroke-opacity="0.996" vector-effect="non-scaling-stroke" d="
  M 132.71 71.52
  Q 131.09 73.63 130.46 76.46
  A 0.64 0.64 0.0 0 0 131.21 77.23
  L 135.22 76.43"
/>
<path stroke="#5bc1e8" stroke-opacity="0.996" vector-effect="non-scaling-stroke" d="
  M 135.22 76.43
  L 130.95 77.98
  A 0.84 0.84 0.0 0 1 129.87 76.89
  Q 130.80 74.44 129.22 74.21"
/>
<path stroke="#2e5e72" stroke-opacity="0.996" vector-effect="non-scaling-stroke" d="
  M 129.22 74.21
  L 131.30 69.90"
/>
<path stroke="#559ac6" vector-effect="non-scaling-stroke" d="
  M 138.52 75.66
  L 135.22 76.43"
/>
<path stroke="#166db1" stroke-opacity="0.996" vector-effect="non-scaling-stroke" d="
  M 143.63 66.10
  Q 141.83 65.95 140.50 66.51
  Q 139.99 66.73 139.88 66.18
  Q 139.82 65.89 139.90 65.43"
/>
<path stroke="#0fbee4" stroke-opacity="0.996" vector-effect="non-scaling-stroke" d="
  M 122.21 100.93
  Q 122.34 101.24 122.52 101.43
  Q 122.91 101.82 123.36 101.51
  C 126.21 99.49 127.37 95.23 129.60 92.58
  Q 129.63 92.55 129.63 92.51
  Q 129.63 92.34 129.62 92.17
  Q 129.60 91.92 129.35 91.88
  Q 129.13 91.85 128.96 91.68"
/>
<path stroke="#146190" stroke-opacity="0.996" vector-effect="non-scaling-stroke" d="
  M 134.33 89.53
  C 131.91 88.11 130.39 90.11 128.96 91.68"
/>
<path stroke="#088ba1" vector-effect="non-scaling-stroke" d="
  M 128.96 91.68
  L 125.82 94.86"
/>
<path stroke="#538fa5" vector-effect="non-scaling-stroke" d="
  M 145.32 77.57
  Q 143.24 76.02 139.76 77.02
  C 136.18 78.05 128.42 80.21 127.40 82.74
  Q 126.23 85.62 124.37 85.61"
/>
<path stroke="#ad905a" vector-effect="non-scaling-stroke" d="
  M 115.00 96.03
  Q 116.23 94.92 115.11 94.00
  A 0.76 0.75 -50.1 0 0 114.04 94.10
  L 110.90 97.92
  A 0.49 0.49 0.0 0 0 111.00 98.63
  Q 111.56 99.04 112.55 98.04"
/>
<path stroke="#ad905a" vector-effect="non-scaling-stroke" d="
  M 113.16 101.45
  Q 108.85 102.22 110.72 103.36"
/>
<path stroke="#526765" vector-effect="non-scaling-stroke" d="
  M 95.32 110.24
  Q 95.75 108.41 98.86 106.29"
/>
<path stroke="#526765" vector-effect="non-scaling-stroke" d="
  M 103.77 102.23
  L 108.02 98.74"
/>
<path stroke="#7a5930" vector-effect="non-scaling-stroke" d="
  M 123.31 70.90
  Q 123.32 71.25 123.52 71.54
  Q 123.86 72.04 123.87 71.43
  L 123.91 69.81
  Q 123.92 69.40 123.53 69.25
  Q 122.45 68.86 121.33 68.88
  Q 120.72 68.88 121.23 69.20
  L 122.94 70.26
  Q 123.29 70.48 123.31 70.90"
/>
<path stroke="#305bb7" vector-effect="non-scaling-stroke" d="
  M 20.98 78.61
  Q 21.27 79.41 21.93 79.92
  Q 22.50 80.35 22.45 79.64
  Q 22.40 78.88 21.84 78.29
  Q 21.46 77.89 21.10 78.18
  A 0.37 0.37 0.0 0 0 20.98 78.61"
/>
<path stroke="#ad905a" vector-effect="non-scaling-stroke" d="
  M 45.39 94.19
  A 0.56 0.55 42.6 0 0 45.43 95.00
  L 48.55 97.68
  Q 51.74 100.42 49.54 96.89
  Q 48.82 95.73 46.69 93.29
  Q 46.48 93.05 46.25 93.29
  L 45.39 94.19"
/>
</g>
<path fill="#99eefc" d="
  M 38.27 53.94
  C 40.47 56.79 41.23 59.51 44.36 62.24
  Q 45.16 62.94 44.75 61.96
  L 40.85 52.63
  A 1.02 0.75 32.9 0 0 39.06 52.73
  Q 39.20 53.14 39.08 53.45
  Q 38.98 53.71 38.76 53.53
  Q 38.63 53.43 38.55 53.24
  Q 38.27 51.67 38.93 50.68
  A 1.23 1.23 0.0 0 1 41.12 50.98
  C 44.85 62.43 51.62 72.08 63.11 77.80
  L 71.32 83.44
  Q 70.46 83.45 70.49 83.77
  Q 56.10 76.32 45.13 65.28
  C 38.34 57.67 32.41 49.40 27.63 40.40
  C 26.44 38.16 26.37 35.68 24.90 33.46
  Q 24.95 32.40 25.56 31.65
  A 1.08 1.08 0.0 0 1 27.44 32.03
  Q 30.73 43.73 37.51 53.24
  Q 37.98 53.89 38.27 53.94
  Z"
/>
<path fill="#99eefc" d="
  M 136.85 33.43
  Q 135.35 34.39 134.84 36.91
  Q 134.34 39.44 133.75 40.61
  Q 127.36 53.26 118.00 63.51
  C 115.25 65.65 113.53 68.68 111.16 70.51
  Q 101.85 77.72 91.77 83.63
  Q 92.00 83.42 90.69 83.40
  L 98.64 77.85
  C 109.97 72.17 116.88 62.54 120.75 50.84
  A 1.42 1.41 4.5 0 1 121.86 49.90
  Q 123.43 49.64 123.34 51.80
  Q 121.42 51.62 121.12 52.28
  Q 119.20 56.56 117.83 59.74
  Q 116.31 63.28 118.94 60.47
  C 121.15 58.11 122.34 55.89 124.18 53.32
  Q 131.32 43.36 134.37 31.57
  A 0.83 0.83 0.0 0 1 135.78 31.22
  Q 136.52 32.01 136.85 33.43
  Z"
/>
<path fill="#072b41" d="
  M 136.85 33.43
  Q 140.47 41.11 139.37 49.18
  Q 137.07 51.42 136.57 52.23
  Q 135.68 53.64 135.59 56.40
  L 130.18 62.24
  Q 129.86 62.58 130.33 62.65
  Q 130.60 62.68 130.76 62.78
  Q 129.11 63.03 127.96 64.92
  Q 129.99 59.95 126.01 66.78
  Q 125.48 67.69 124.43 66.68
  Q 123.09 66.45 123.81 64.12
  C 126.60 59.77 132.92 53.86 133.51 48.67
  Q 133.62 47.65 133.03 48.48
  C 128.04 55.38 124.38 62.39 117.46 68.79
  Q 116.68 69.82 115.81 69.99
  L 115.87 68.85
  Q 115.89 68.41 116.07 68.00
  L 118.00 63.51
  Q 127.36 53.26 133.75 40.61
  Q 134.34 39.44 134.84 36.91
  Q 135.35 34.39 136.85 33.43
  Z"
/>
<path fill="#072b41" d="
  M 24.90 33.46
  C 26.37 35.68 26.44 38.16 27.63 40.40
  C 32.41 49.40 38.34 57.67 45.13 65.28
  Q 45.18 67.13 46.47 69.69
  Q 45.17 69.95 43.82 68.44
  C 36.91 61.94 33.58 55.15 28.62 48.23
  Q 27.42 46.57 27.98 48.54
  C 30.01 55.78 35.50 59.88 39.10 66.15
  L 39.71 67.50
  Q 40.05 68.23 39.26 68.06
  Q 38.32 67.85 37.34 68.12
  A 1.30 1.30 0.0 0 1 35.79 67.35
  Q 34.84 64.94 33.12 63.27
  Q 31.56 63.17 31.56 62.93
  Q 30.95 60.77 28.73 59.25
  C 27.39 58.33 26.77 57.33 26.00 56.07
  C 25.64 52.79 25.08 50.69 22.26 49.16
  C 21.93 44.19 22.12 37.85 24.90 33.46
  Z"
/>
<path fill="#d2ba7a" d="
  M 43.82 68.44
  Q 45.43 70.65 44.07 71.06
  L 39.10 66.15
  C 35.50 59.88 30.01 55.78 27.98 48.54
  Q 27.42 46.57 28.62 48.23
  C 33.58 55.15 36.91 61.94 43.82 68.44
  Z"
/>
<path fill="#d2ba7a" d="
  M 123.81 64.12
  C 122.16 65.79 119.97 69.24 117.86 69.84
  Q 117.33 70.00 117.39 69.44
  L 117.46 68.79
  C 124.38 62.39 128.04 55.38 133.03 48.48
  Q 133.62 47.65 133.51 48.67
  C 132.92 53.86 126.60 59.77 123.81 64.12
  Z"
/>
<path fill="#99eefc" d="
  M 22.41 54.45
  Q 23.80 55.74 26.00 56.07
  C 26.77 57.33 27.39 58.33 28.73 59.25
  Q 30.95 60.77 31.56 62.93
  C 28.84 61.67 26.72 58.92 23.79 58.26
  L 11.92 51.39
  Q 11.22 50.23 11.59 49.44
  Q 11.82 48.95 12.30 49.20
  L 22.41 54.45
  Z"
/>
<path fill="#4f70de" d="
  M 22.26 49.16
  C 25.08 50.69 25.64 52.79 26.00 56.07
  Q 23.80 55.74 22.41 54.45
  Q 22.99 52.31 22.26 49.16
  Z"
/>
<path fill="#4f70de" d="
  M 139.37 49.18
  L 139.33 54.53
  L 135.59 56.40
  Q 135.68 53.64 136.57 52.23
  Q 137.07 51.42 139.37 49.18
  Z"
/>
<path fill="#99eefc" d="
  M 148.67 51.79
  L 142.20 55.21
  L 130.76 62.78
  Q 130.60 62.68 130.33 62.65
  Q 129.86 62.58 130.18 62.24
  L 135.59 56.40
  L 139.33 54.53
  L 148.06 49.81
  A 0.44 0.44 0.0 0 1 148.71 50.13
  Q 148.87 51.12 148.67 51.79
  Z"
/>
<path fill="#0c2f4d" d="
  M 11.92 51.39
  L 23.79 58.26
  Q 23.97 59.08 23.80 59.85
  Q 23.66 59.87 23.56 59.95
  Q 23.32 60.15 23.48 60.43
  C 26.05 64.93 28.07 69.63 30.62 74.11
  Q 32.18 76.85 30.29 77.61
  L 27.05 76.57
  Q 27.32 76.64 27.51 76.60
  Q 28.05 76.50 27.76 76.03
  L 22.30 67.09
  L 17.15 55.95
  Q 17.08 55.80 16.93 55.87
  L 16.67 55.98
  Q 16.41 56.09 16.51 56.35
  L 18.82 62.50
  Q 19.02 63.05 18.51 63.33
  Q 18.10 63.56 17.64 63.32
  Q 17.55 63.28 17.15 62.87
  Q 16.81 62.52 16.39 62.76
  L 11.92 51.39
  Z"
/>
<path fill="#0c2f4d" d="
  M 123.34 51.80
  Q 123.50 53.12 124.18 53.32
  C 122.34 55.89 121.15 58.11 118.94 60.47
  Q 116.31 63.28 117.83 59.74
  Q 119.20 56.56 121.12 52.28
  Q 121.42 51.62 123.34 51.80
  Z"
/>
<path fill="#0c2f4d" d="
  M 38.27 53.94
  Q 38.07 53.41 38.55 53.24
  Q 38.63 53.43 38.76 53.53
  Q 38.98 53.71 39.08 53.45
  Q 39.20 53.14 39.06 52.73
  A 1.02 0.75 32.9 0 1 40.85 52.63
  L 44.75 61.96
  Q 45.16 62.94 44.36 62.24
  C 41.23 59.51 40.47 56.79 38.27 53.94
  Z"
/>
<path fill="#10468f" d="
  M 148.67 51.79
  C 149.15 55.25 146.48 60.27 144.81 63.36
  Q 142.45 62.50 141.19 63.04
  Q 142.87 59.23 143.31 56.50
  Q 143.45 55.65 142.20 55.21
  L 148.67 51.79
  Z"
/>
<path fill="#66bbf2" d="
  M 86.28 68.13
  L 92.07 68.37
  Q 92.54 68.39 92.15 68.64
  L 91.11 69.31
  Q 90.74 69.55 90.30 69.62
  Q 89.36 69.78 88.89 70.51
  A 1.24 1.24 0.0 0 1 87.21 70.92
  Q 86.24 70.35 86.16 69.30
  Q 86.13 69.02 85.86 68.93
  Q 85.64 68.86 85.58 69.06
  Q 83.94 68.91 82.48 69.85
  Q 82.23 68.25 81.42 67.19
  Q 81.07 66.73 80.59 67.05
  Q 79.12 68.02 79.44 70.07
  L 76.97 68.90
  Q 75.61 68.94 75.24 67.89
  C 78.41 66.05 80.15 56.27 80.65 53.05
  A 0.31 0.31 0.0 0 1 81.27 53.07
  Q 82.13 61.62 86.28 68.13
  Z"
/>
<path fill="#0c2f4d" d="
  M 142.20 55.21
  Q 143.45 55.65 143.31 56.50
  Q 142.87 59.23 141.19 63.04
  L 139.90 65.43
  Q 139.76 65.66 139.70 65.91
  Q 139.59 66.41 139.30 66.82
  Q 136.30 70.95 134.08 75.55
  Q 133.76 76.23 133.01 76.35
  L 131.33 76.64
  Q 130.56 76.77 130.85 76.05
  L 132.71 71.52
  Q 134.54 67.03 136.87 62.71
  C 137.34 61.83 138.32 61.22 138.37 59.80
  Q 138.40 59.08 138.01 59.68
  L 131.30 69.90
  Q 131.09 68.71 131.60 67.57
  Q 131.81 67.09 131.61 66.61
  Q 131.07 65.36 131.59 64.08
  Q 131.80 63.56 131.50 63.09
  Q 131.23 62.69 130.76 62.78
  L 142.20 55.21
  Z"
/>
<path fill="#1c94d3" fill-opacity="0.992" d="
  M 22.30 67.09
  Q 19.01 65.66 18.29 66.76
  L 16.39 62.76
  Q 16.81 62.52 17.15 62.87
  Q 17.55 63.28 17.64 63.32
  Q 18.10 63.56 18.51 63.33
  Q 19.02 63.05 18.82 62.50
  L 16.51 56.35
  Q 16.41 56.09 16.67 55.98
  L 16.93 55.87
  Q 17.08 55.80 17.15 55.95
  L 22.30 67.09
  Z"
/>
<path fill="#402812" d="
  M 23.79 58.26
  C 26.72 58.92 28.84 61.67 31.56 62.93
  Q 31.56 63.17 33.12 63.27
  L 39.57 78.53
  Q 40.42 81.02 43.35 80.67
  Q 44.16 81.36 45.02 82.89
  L 45.69 86.17
  A 0.41 0.40 0.1 0 1 45.21 86.64
  Q 44.43 86.49 44.10 85.75
  A 0.43 0.42 68.5 0 0 43.58 85.52
  L 43.31 85.60
  Q 43.06 85.68 43.14 85.94
  L 45.13 91.94
  A 0.75 0.75 0.0 0 1 44.27 92.91
  Q 43.43 92.74 43.56 93.87
  A 0.71 0.67 20.1 0 0 43.76 94.27
  Q 45.32 95.84 47.02 97.21
  C 48.19 98.15 48.79 99.96 47.66 101.00
  A 1.04 1.04 0.0 0 0 48.08 102.77
  L 58.50 105.67
  C 60.78 107.25 64.14 109.94 66.86 110.21
  C 70.76 114.00 68.30 117.51 65.81 121.63
  L 61.22 125.62
  Q 63.00 121.31 61.63 118.38
  C 57.94 110.46 49.39 103.64 40.79 101.81
  Q 39.89 101.62 39.42 100.49
  Q 37.69 96.43 34.30 92.64
  Q 35.29 90.55 35.57 88.64
  Q 35.64 88.16 35.85 87.93
  Q 36.17 87.60 36.60 87.62
  Q 37.03 87.63 36.92 87.22
  L 36.46 85.56
  Q 36.99 85.46 36.93 85.25
  Q 36.18 82.70 35.47 80.14
  Q 32.19 72.02 26.86 63.39
  Q 25.45 61.10 23.80 59.85
  Q 23.97 59.08 23.79 58.26
  Z"
/>
<path fill="#1c94d3" fill-opacity="0.992" d="
  M 132.71 71.52
  Q 131.09 73.63 130.46 76.46
  A 0.64 0.64 0.0 0 0 131.21 77.23
  L 135.22 76.43
  L 130.95 77.98
  A 0.84 0.84 0.0 0 1 129.87 76.89
  Q 130.80 74.44 129.22 74.21
  L 131.30 69.90
  L 138.01 59.68
  Q 138.40 59.08 138.37 59.80
  C 138.32 61.22 137.34 61.83 136.87 62.71
  Q 134.54 67.03 132.71 71.52
  Z"
/>
<path fill="#1c94d3" fill-opacity="0.992" d="
  M 23.80 59.85
  Q 25.45 61.10 26.86 63.39
  Q 32.19 72.02 35.47 80.14
  Q 34.42 79.96 34.08 78.77
  Q 33.95 78.30 33.47 78.38
  Q 31.68 78.67 30.29 77.61
  Q 32.18 76.85 30.62 74.11
  C 28.07 69.63 26.05 64.93 23.48 60.43
  Q 23.32 60.15 23.56 59.95
  Q 23.66 59.87 23.80 59.85
  Z"
/>
<path fill="#402812" d="
  M 130.76 62.78
  Q 131.23 62.69 131.50 63.09
  Q 131.80 63.56 131.59 64.08
  Q 131.07 65.36 131.61 66.61
  Q 131.81 67.09 131.60 67.57
  Q 131.09 68.71 131.30 69.90
  L 129.22 74.21
  L 124.37 85.61
  Q 124.66 86.22 124.59 87.19
  C 124.48 88.88 125.59 90.62 126.63 91.86
  Q 126.96 92.26 126.64 92.67
  Q 125.84 93.69 125.82 94.86
  L 122.21 100.93
  L 121.65 101.54
  Q 121.32 101.90 120.84 101.99
  Q 111.98 103.75 105.87 110.65
  C 103.09 114.81 100.07 117.16 100.65 123.20
  Q 99.84 123.77 99.16 124.68
  Q 97.10 122.18 93.44 122.96
  A 0.05 0.05 0.0 0 1 93.38 122.91
  Q 93.38 122.89 93.37 122.87
  Q 93.37 122.84 93.39 122.84
  Q 95.01 122.98 96.67 122.84
  Q 97.20 122.79 96.82 122.42
  L 95.48 121.14
  C 94.20 118.29 91.98 116.09 93.16 112.65
  Q 94.62 109.80 95.32 110.24
  Q 103.30 105.60 110.72 103.36
  Q 114.77 102.69 113.16 101.45
  Q 111.89 100.88 112.55 98.04
  L 115.00 96.03
  Q 116.38 96.00 116.77 94.85
  Q 116.93 94.41 116.54 94.14
  Q 115.45 93.38 116.13 91.22
  A 5.38 5.11 -19.6 0 1 116.92 89.66
  Q 118.07 88.11 118.14 86.14
  A 0.53 0.53 0.0 0 0 117.18 85.80
  Q 116.86 86.24 115.94 86.32
  Q 117.00 83.61 117.07 80.92
  L 120.50 80.33
  Q 121.00 80.24 121.21 79.78
  L 127.96 64.92
  Q 129.11 63.03 130.76 62.78
  Z"
/>
<path fill="#1c94d3" fill-opacity="0.992" d="
  M 144.81 63.36
  L 143.63 66.10
  Q 141.83 65.95 140.50 66.51
  Q 139.99 66.73 139.88 66.18
  Q 139.82 65.89 139.90 65.43
  L 141.19 63.04
  Q 142.45 62.50 144.81 63.36
  Z"
/>
<path fill="#6b4c26" d="
  M 127.96 64.92
  L 121.21 79.78
  Q 121.00 80.24 120.50 80.33
  L 117.07 80.92
  Q 112.46 83.15 109.07 86.65
  L 108.28 86.66
  Q 107.80 86.67 107.69 86.20
  Q 107.58 85.77 107.72 85.13
  Q 108.38 84.41 109.38 83.97
  Q 109.81 83.79 109.60 83.37
  Q 108.89 81.94 107.77 81.44
  Q 107.06 81.13 107.45 81.80
  Q 108.20 83.07 108.79 83.35
  Q 108.84 83.37 108.78 83.37
  L 108.47 83.38
  Q 108.31 83.38 108.21 83.25
  L 106.90 81.61
  A 0.57 0.55 -38.7 0 0 106.10 81.53
  L 104.57 82.79
  Q 104.71 82.47 104.48 82.27
  Q 104.26 82.08 103.72 82.13
  L 107.84 78.33
  Q 111.18 76.52 111.84 73.65
  Q 111.95 73.18 111.47 73.11
  Q 111.30 73.09 111.06 73.18
  C 111.97 71.57 114.32 71.35 115.81 69.99
  Q 116.68 69.82 117.46 68.79
  L 117.39 69.44
  Q 117.33 70.00 117.86 69.84
  C 119.97 69.24 122.16 65.79 123.81 64.12
  Q 123.09 66.45 124.43 66.68
  Q 125.48 67.69 126.01 66.78
  Q 129.99 59.95 127.96 64.92
  Z
  M 123.31 70.90
  Q 123.32 71.25 123.52 71.54
  Q 123.86 72.04 123.87 71.43
  L 123.91 69.81
  Q 123.92 69.40 123.53 69.25
  Q 122.45 68.86 121.33 68.88
  Q 120.72 68.88 121.23 69.20
  L 122.94 70.26
  Q 123.29 70.48 123.31 70.90
  Z"
/>
<path fill="#886539" d="
  M 39.10 66.15
  L 44.07 71.06
  Q 44.27 71.21 44.27 71.38
  A 0.18 0.18 0.0 0 1 43.96 71.51
  L 43.77 71.33
  Q 43.43 71.00 43.23 71.44
  Q 42.99 71.94 43.15 72.83
  Q 42.61 71.15 41.82 70.39
  Q 40.27 68.89 40.37 71.04
  Q 40.45 72.75 39.27 73.85
  Q 38.90 74.20 38.98 74.71
  L 39.57 78.53
  L 33.12 63.27
  Q 34.84 64.94 35.79 67.35
  A 1.30 1.30 0.0 0 0 37.34 68.12
  Q 38.32 67.85 39.26 68.06
  Q 40.05 68.23 39.71 67.50
  L 39.10 66.15
  Z"
/>
<path fill="#a48056" d="
  M 64.26 71.71
  Q 64.06 72.93 63.14 73.43
  Q 62.78 73.63 62.32 73.51
  Q 61.92 73.40 61.52 73.23
  L 59.70 71.79
  L 56.02 64.30
  Q 55.33 62.90 56.44 64.00
  L 64.26 71.71
  Z"
/>
<path fill="#886539" d="
  M 102.26 71.54
  Q 98.81 75.41 97.22 76.20
  C 94.51 77.56 92.21 79.43 89.47 80.69
  C 87.34 81.68 83.92 85.77 83.31 86.74
  Q 81.22 90.02 82.76 93.27
  L 81.22 97.82
  Q 80.80 99.07 80.44 97.80
  L 79.44 94.31
  Q 80.30 90.84 79.29 88.48
  Q 77.74 84.86 73.83 81.24
  Q 73.58 79.26 72.77 78.23
  Q 72.20 77.51 70.89 77.34
  Q 70.35 77.27 70.56 77.78
  Q 71.02 78.92 72.28 80.20
  Q 66.43 77.66 61.77 73.98
  Q 61.26 73.57 61.52 73.23
  Q 61.92 73.40 62.32 73.51
  Q 62.78 73.63 63.14 73.43
  Q 64.06 72.93 64.26 71.71
  L 66.77 73.75
  Q 67.16 74.07 67.64 73.91
  L 70.05 73.13
  Q 73.59 74.65 75.86 77.88
  Q 76.38 78.62 75.47 78.62
  L 74.63 78.62
  A 0.51 0.51 0.0 0 0 74.12 79.13
  L 74.12 79.77
  Q 74.12 80.20 74.45 80.49
  Q 78.13 83.79 80.22 88.27
  A 0.73 0.73 0.0 0 0 81.55 88.27
  Q 83.53 83.87 86.90 80.43
  Q 88.01 79.30 86.38 79.43
  Q 86.00 79.46 85.91 78.68
  Q 85.87 78.28 86.08 77.89
  Q 88.00 74.36 91.75 73.13
  L 94.03 73.90
  A 1.40 1.39 -57.4 0 0 95.46 73.58
  L 104.90 64.41
  Q 106.37 62.98 105.59 64.87
  Q 104.36 67.86 102.26 71.54
  Z"
/>
<path fill="#1b6991" d="
  M 118.00 63.51
  L 116.07 68.00
  Q 115.89 68.41 115.87 68.85
  L 115.81 69.99
  C 114.32 71.35 111.97 71.57 111.06 73.18
  Q 108.51 75.82 105.33 77.14
  L 95.53 85.86
  C 93.56 86.34 92.25 87.91 90.25 87.90
  Q 89.12 87.90 89.40 86.44
  L 91.77 83.63
  Q 101.85 77.72 111.16 70.51
  C 113.53 68.68 115.25 65.65 118.00 63.51
  Z"
/>
<path fill="#1b6991" d="
  M 45.13 65.28
  Q 56.10 76.32 70.49 83.77
  Q 73.63 87.41 74.99 90.87
  L 71.60 91.64
  Q 71.06 91.76 70.72 91.32
  L 67.23 86.86
  L 55.93 76.93
  L 48.18 71.54
  Q 47.23 71.53 46.47 69.69
  Q 45.18 67.13 45.13 65.28
  Z"
/>
<path fill="#10468f" d="
  M 139.90 65.43
  Q 139.82 65.89 139.88 66.18
  Q 139.99 66.73 140.50 66.51
  Q 141.83 65.95 143.63 66.10
  L 138.52 75.66
  L 135.22 76.43
  L 131.21 77.23
  A 0.64 0.64 0.0 0 1 130.46 76.46
  Q 131.09 73.63 132.71 71.52
  L 130.85 76.05
  Q 130.56 76.77 131.33 76.64
  L 133.01 76.35
  Q 133.76 76.23 134.08 75.55
  Q 136.30 70.95 139.30 66.82
  Q 139.59 66.41 139.70 65.91
  Q 139.76 65.66 139.90 65.43
  Z"
/>
<path fill="#10468f" d="
  M 22.30 67.09
  L 27.76 76.03
  Q 28.05 76.50 27.51 76.60
  Q 27.32 76.64 27.05 76.57
  L 23.56 75.75
  L 18.29 66.76
  Q 19.01 65.66 22.30 67.09
  Z"
/>
<path fill="#ddfaf8" d="
  M 82.48 69.85
  Q 82.06 70.21 82.09 70.39
  Q 80.85 71.51 79.78 70.40
  L 79.44 70.07
  Q 79.12 68.02 80.59 67.05
  Q 81.07 66.73 81.42 67.19
  Q 82.23 68.25 82.48 69.85
  Z"
/>
<path fill="#d2ba7a" d="
  M 75.24 67.89
  Q 75.61 68.94 76.97 68.90
  Q 76.72 69.01 76.29 68.92
  Q 75.58 69.52 74.87 70.45
  Q 74.34 71.14 73.87 71.06
  Q 73.31 70.97 72.73 70.24
  Q 66.58 68.05 70.98 68.16
  L 75.24 67.89
  Z"
/>
<path fill="#402812" d="
  M 70.98 68.16
  Q 66.58 68.05 72.73 70.24
  L 76.69 76.22
  Q 77.22 77.03 77.48 76.09
  Q 78.38 72.73 76.29 68.92
  Q 76.72 69.01 76.97 68.90
  L 79.44 70.07
  L 79.78 70.40
  C 79.28 73.46 79.91 75.10 80.19 78.02
  A 0.57 0.56 64.9 0 0 81.15 78.37
  Q 81.65 77.86 81.74 77.00
  Q 82.08 73.78 82.09 70.39
  Q 82.06 70.21 82.48 69.85
  Q 83.94 68.91 85.58 69.06
  C 85.81 70.53 83.67 72.41 84.18 74.49
  Q 84.90 77.42 86.02 74.61
  Q 87.06 72.00 90.50 70.51
  L 89.00 71.79
  Q 88.40 72.30 89.17 72.49
  L 91.75 73.13
  Q 88.00 74.36 86.08 77.89
  Q 85.87 78.28 85.91 78.68
  Q 86.00 79.46 86.38 79.43
  Q 88.01 79.30 86.90 80.43
  Q 83.53 83.87 81.55 88.27
  A 0.73 0.73 0.0 0 1 80.22 88.27
  Q 78.13 83.79 74.45 80.49
  Q 74.12 80.20 74.12 79.77
  L 74.12 79.13
  A 0.51 0.51 0.0 0 1 74.63 78.62
  L 75.47 78.62
  Q 76.38 78.62 75.86 77.88
  Q 73.59 74.65 70.05 73.13
  L 72.78 72.52
  A 0.41 0.41 0.0 0 0 72.92 71.79
  L 68.95 69.05
  Q 67.57 68.10 69.25 68.13
  L 70.98 68.16
  Z"
/>
<path fill="#6b4c26" d="
  M 86.28 68.13
  L 92.17 68.06
  Q 94.66 68.04 92.52 69.31
  L 90.50 70.51
  Q 87.06 72.00 86.02 74.61
  Q 84.90 77.42 84.18 74.49
  C 83.67 72.41 85.81 70.53 85.58 69.06
  Q 85.64 68.86 85.86 68.93
  Q 86.13 69.02 86.16 69.30
  Q 86.24 70.35 87.21 70.92
  A 1.24 1.24 0.0 0 0 88.89 70.51
  Q 89.36 69.78 90.30 69.62
  Q 90.74 69.55 91.11 69.31
  L 92.15 68.64
  Q 92.54 68.39 92.07 68.37
  L 86.28 68.13
  Z"
/>
<path fill="#6b4c26" d="
  M 43.82 68.44
  Q 45.17 69.95 46.47 69.69
  Q 47.23 71.53 48.18 71.54
  Q 50.01 75.88 53.45 78.01
  L 58.73 82.73
  L 57.60 82.24
  A 0.30 0.30 0.0 0 0 57.25 82.70
  L 58.73 84.47
  L 55.06 80.99
  Q 54.45 79.80 53.15 79.87
  Q 52.67 79.89 52.60 80.37
  Q 52.25 82.95 50.00 82.85
  Q 48.32 81.64 45.01 80.15
  C 41.93 78.76 43.83 75.55 43.15 72.83
  Q 42.99 71.94 43.23 71.44
  Q 43.43 71.00 43.77 71.33
  L 43.96 71.51
  A 0.18 0.18 0.0 0 0 44.27 71.38
  Q 44.27 71.21 44.07 71.06
  Q 45.43 70.65 43.82 68.44
  Z"
/>
<path fill="#6b4c26" d="
  M 76.29 68.92
  Q 78.38 72.73 77.48 76.09
  Q 77.22 77.03 76.69 76.22
  L 72.73 70.24
  Q 73.31 70.97 73.87 71.06
  Q 74.34 71.14 74.87 70.45
  Q 75.58 69.52 76.29 68.92
  Z"
/>
<path fill="#886539" d="
  M 122.94 70.26
  L 121.23 69.20
  Q 120.72 68.88 121.33 68.88
  Q 122.45 68.86 123.53 69.25
  Q 123.92 69.40 123.91 69.81
  L 123.87 71.43
  Q 123.86 72.04 123.52 71.54
  Q 123.32 71.25 123.31 70.90
  Q 123.29 70.48 122.94 70.26
  Z"
/>
<path fill="#a48056" d="
  M 43.15 72.83
  C 43.83 75.55 41.93 78.76 45.01 80.15
  Q 48.32 81.64 50.00 82.85
  Q 52.44 84.83 55.06 80.99
  L 58.73 84.47
  L 60.29 86.48
  Q 60.97 87.36 60.03 86.76
  L 58.35 85.70
  A 1.69 1.44 63.5 0 0 58.02 85.56
  Q 55.28 84.90 55.87 87.00
  Q 56.21 88.24 56.59 89.13
  Q 57.30 90.79 55.71 89.93
  L 54.99 89.55
  Q 54.03 88.70 53.74 88.13
  Q 51.71 84.00 47.51 82.86
  L 43.35 80.67
  Q 40.42 81.02 39.57 78.53
  L 38.98 74.71
  Q 38.90 74.20 39.27 73.85
  Q 40.45 72.75 40.37 71.04
  Q 40.27 68.89 41.82 70.39
  Q 42.61 71.15 43.15 72.83
  Z"
/>
<path fill="#1b6991" d="
  M 79.78 70.40
  Q 80.85 71.51 82.09 70.39
  Q 82.08 73.78 81.74 77.00
  Q 81.65 77.86 81.15 78.37
  A 0.57 0.56 64.9 0 1 80.19 78.02
  C 79.91 75.10 79.28 73.46 79.78 70.40
  Z"
/>
<path fill="#402812" d="
  M 102.26 71.54
  L 98.64 77.85
  L 90.69 83.40
  C 87.46 85.48 85.08 89.69 82.76 93.27
  Q 81.22 90.02 83.31 86.74
  C 83.92 85.77 87.34 81.68 89.47 80.69
  C 92.21 79.43 94.51 77.56 97.22 76.20
  Q 98.81 75.41 102.26 71.54
  Z"
/>
<path fill="#d2ba7a" d="
  M 48.18 71.54
  L 55.93 76.93
  L 55.86 77.76
  Q 55.81 78.30 55.27 78.36
  Q 54.42 78.47 53.45 78.01
  Q 50.01 75.88 48.18 71.54
  Z"
/>
<path fill="#402812" d="
  M 59.70 71.79
  L 61.52 73.23
  Q 61.26 73.57 61.77 73.98
  Q 66.43 77.66 72.28 80.20
  L 73.83 81.24
  Q 77.74 84.86 79.29 88.48
  Q 80.30 90.84 79.44 94.31
  Q 75.93 87.55 71.32 83.44
  L 63.11 77.80
  L 59.70 71.79
  Z"
/>
<path fill="#d2ba7a" d="
  M 111.06 73.18
  Q 111.30 73.09 111.47 73.11
  Q 111.95 73.18 111.84 73.65
  Q 111.18 76.52 107.84 78.33
  Q 106.39 78.43 106.00 78.37
  Q 105.34 78.27 105.33 77.14
  Q 108.51 75.82 111.06 73.18
  Z"
/>
<path fill="#99eefc" d="
  M 129.22 74.21
  Q 130.80 74.44 129.87 76.89
  A 0.84 0.84 0.0 0 0 130.95 77.98
  L 135.22 76.43
  L 138.52 75.66
  Q 143.20 75.00 145.85 75.69
  Q 146.42 75.84 146.21 76.39
  Q 145.97 76.97 145.32 77.57
  Q 143.24 76.02 139.76 77.02
  C 136.18 78.05 128.42 80.21 127.40 82.74
  Q 126.23 85.62 124.37 85.61
  L 129.22 74.21
  Z"
/>
<path fill="#99eefc" d="
  M 23.56 75.75
  L 27.05 76.57
  L 30.29 77.61
  Q 31.68 78.67 33.47 78.38
  Q 33.95 78.30 34.08 78.77
  Q 34.42 79.96 35.47 80.14
  Q 36.18 82.70 36.93 85.25
  Q 36.99 85.46 36.46 85.56
  C 35.10 83.96 34.54 82.37 32.76 81.24
  Q 29.06 78.88 24.28 77.95
  Q 18.55 75.37 16.11 77.60
  Q 15.54 77.36 15.06 76.53
  Q 14.78 76.06 15.30 75.85
  C 17.95 74.81 20.62 75.53 23.56 75.75
  Z"
/>
<path fill="#10468f" d="
  M 24.28 77.95
  Q 20.62 78.10 25.36 82.50
  Q 27.19 84.20 30.11 89.12
  L 27.01 89.18
  L 16.11 77.60
  Q 18.55 75.37 24.28 77.95
  Z
  M 20.98 78.61
  Q 21.27 79.41 21.93 79.92
  Q 22.50 80.35 22.45 79.64
  Q 22.40 78.88 21.84 78.29
  Q 21.46 77.89 21.10 78.18
  A 0.37 0.37 0.0 0 0 20.98 78.61
  Z"
/>
<path fill="#0c2f4d" d="
  M 145.32 77.57
  L 134.33 89.53
  C 131.91 88.11 130.39 90.11 128.96 91.68
  L 125.82 94.86
  Q 125.84 93.69 126.64 92.67
  Q 126.96 92.26 126.63 91.86
  C 125.59 90.62 124.48 88.88 124.59 87.19
  Q 124.66 86.22 124.37 85.61
  Q 126.23 85.62 127.40 82.74
  C 128.42 80.21 136.18 78.05 139.76 77.02
  Q 143.24 76.02 145.32 77.57
  Z"
/>
<path fill="#a48056" d="
  M 55.93 76.93
  L 67.23 86.86
  Q 68.62 88.25 65.99 90.78
  L 58.73 82.73
  L 53.45 78.01
  Q 54.42 78.47 55.27 78.36
  Q 55.81 78.30 55.86 77.76
  L 55.93 76.93
  Z"
/>
<path fill="#d2ba7a" d="
  M 73.83 81.24
  L 72.28 80.20
  Q 71.02 78.92 70.56 77.78
  Q 70.35 77.27 70.89 77.34
  Q 72.20 77.51 72.77 78.23
  Q 73.58 79.26 73.83 81.24
  Z"
/>
<path fill="#a48056" d="
  M 105.33 77.14
  Q 105.34 78.27 106.00 78.37
  Q 106.39 78.43 107.84 78.33
  L 103.72 82.13
  Q 98.21 87.27 93.21 94.20
  Q 92.56 95.09 90.77 95.07
  L 87.70 92.98
  A 1.00 0.99 -59.6 0 0 86.25 93.36
  L 85.15 95.55
  Q 85.07 94.57 85.48 93.20
  L 86.42 91.41
  Q 86.67 90.93 87.15 91.16
  Q 87.29 91.23 87.38 91.36
  Q 87.52 91.56 87.75 91.62
  L 91.89 92.67
  A 1.80 1.80 0.0 0 0 94.13 90.92
  Q 94.12 89.73 93.09 89.36
  Q 93.94 87.17 95.53 85.86
  L 105.33 77.14
  Z"
/>
<path fill="#4f70de" d="
  M 20.98 78.61
  A 0.37 0.37 0.0 0 1 21.10 78.18
  Q 21.46 77.89 21.84 78.29
  Q 22.40 78.88 22.45 79.64
  Q 22.50 80.35 21.93 79.92
  Q 21.27 79.41 20.98 78.61
  Z"
/>
<path fill="#0c2f4d" d="
  M 24.28 77.95
  Q 29.06 78.88 32.76 81.24
  C 34.54 82.37 35.10 83.96 36.46 85.56
  L 36.92 87.22
  Q 37.03 87.63 36.60 87.62
  Q 36.17 87.60 35.85 87.93
  Q 35.64 88.16 35.57 88.64
  Q 35.29 90.55 34.30 92.64
  L 30.11 89.12
  Q 27.19 84.20 25.36 82.50
  Q 20.62 78.10 24.28 77.95
  Z"
/>
<path fill="#886539" d="
  M 55.06 80.99
  Q 52.44 84.83 50.00 82.85
  Q 52.25 82.95 52.60 80.37
  Q 52.67 79.89 53.15 79.87
  Q 54.45 79.80 55.06 80.99
  Z"
/>
<path fill="#1b6991" d="
  M 43.35 80.67
  L 47.51 82.86
  L 48.59 84.23
  Q 47.90 84.65 48.58 85.30
  Q 49.85 86.52 51.15 87.71
  C 52.24 88.70 52.39 89.90 53.04 91.15
  A 1.29 1.29 0.0 0 1 51.75 93.03
  L 49.66 92.79
  Q 49.22 92.11 48.56 91.94
  L 45.02 82.89
  Q 44.16 81.36 43.35 80.67
  Z"
/>
<path fill="#1b6991" d="
  M 117.07 80.92
  Q 117.00 83.61 115.94 86.32
  Q 116.07 85.98 115.47 86.78
  C 114.11 89.19 113.60 92.01 110.72 93.19
  A 1.18 1.18 0.0 0 1 109.10 91.96
  Q 109.27 90.57 109.73 89.13
  C 110.38 87.08 112.39 85.97 113.98 84.63
  Q 114.12 84.52 114.01 84.39
  L 113.84 84.17
  A 0.43 0.43 0.0 0 0 113.23 84.11
  L 107.16 89.09
  Q 106.82 88.03 109.07 86.65
  Q 112.46 83.15 117.07 80.92
  Z"
/>
<path fill="#a48056" d="
  M 107.72 85.13
  Q 107.54 85.77 107.19 86.28
  Q 106.55 87.21 106.40 86.09
  Q 106.36 85.83 106.18 85.57
  A 1.24 1.23 60.9 0 0 104.72 85.15
  Q 103.22 85.76 101.93 86.78
  Q 101.85 86.84 101.75 86.81
  Q 101.62 86.78 101.48 86.74
  A 0.18 0.18 0.0 0 1 101.39 86.45
  L 104.57 82.79
  L 106.10 81.53
  A 0.57 0.55 -38.7 0 1 106.90 81.61
  L 108.21 83.25
  Q 108.31 83.38 108.47 83.38
  L 108.78 83.37
  Q 108.84 83.37 108.79 83.35
  Q 108.20 83.07 107.45 81.80
  Q 107.06 81.13 107.77 81.44
  Q 108.89 81.94 109.60 83.37
  Q 109.81 83.79 109.38 83.97
  Q 108.38 84.41 107.72 85.13
  Z"
/>
<path fill="#402812" d="
  M 58.73 82.73
  L 65.99 90.78
  L 69.38 94.89
  Q 71.12 94.94 71.58 96.22
  Q 74.59 104.49 76.26 114.08
  C 76.58 115.95 77.44 117.95 77.91 120.12
  Q 76.66 123.63 73.40 127.41
  Q 72.59 128.34 71.51 128.15
  Q 71.04 128.07 71.06 127.59
  L 71.46 120.10
  Q 72.12 118.45 71.62 115.50
  Q 70.43 108.46 66.56 103.24
  Q 61.45 95.92 54.99 89.55
  L 55.71 89.93
  Q 57.30 90.79 56.59 89.13
  Q 56.21 88.24 55.87 87.00
  Q 55.28 84.90 58.02 85.56
  A 1.69 1.44 63.5 0 1 58.35 85.70
  L 60.03 86.76
  Q 60.97 87.36 60.29 86.48
  L 58.73 84.47
  L 57.25 82.70
  A 0.30 0.30 0.0 0 1 57.60 82.24
  L 58.73 82.73
  Z"
/>
<path fill="#402812" d="
  M 103.72 82.13
  Q 104.26 82.08 104.48 82.27
  Q 104.71 82.47 104.57 82.79
  L 101.39 86.45
  A 0.18 0.18 0.0 0 0 101.48 86.74
  Q 101.62 86.78 101.75 86.81
  Q 101.85 86.84 101.93 86.78
  Q 103.22 85.76 104.72 85.15
  A 1.24 1.23 60.9 0 1 106.18 85.57
  Q 106.36 85.83 106.40 86.09
  Q 106.55 87.21 107.19 86.28
  Q 107.54 85.77 107.72 85.13
  Q 107.58 85.77 107.69 86.20
  Q 107.80 86.67 108.28 86.66
  L 109.07 86.65
  Q 106.82 88.03 107.16 89.09
  Q 105.24 91.25 102.81 93.50
  Q 100.40 95.73 94.19 104.77
  L 92.54 107.99
  Q 89.54 113.95 90.28 120.02
  L 90.77 127.48
  A 0.63 0.62 79.1 0 1 90.35 128.11
  C 89.67 128.35 88.94 128.08 88.47 127.49
  Q 86.44 124.91 84.60 122.15
  Q 83.54 120.57 84.36 120.16
  Q 86.35 106.94 90.77 95.07
  Q 92.56 95.09 93.21 94.20
  Q 98.21 87.27 103.72 82.13
  Z"
/>
<path fill="#886539" d="
  M 45.02 82.89
  L 48.56 91.94
  Q 49.09 91.72 48.28 91.75
  A 0.18 0.17 77.8 0 0 48.13 91.99
  Q 50.11 96.90 53.94 100.45
  Q 56.52 102.83 58.50 105.67
  L 48.08 102.77
  A 1.04 1.04 0.0 0 1 47.66 101.00
  C 48.79 99.96 48.19 98.15 47.02 97.21
  Q 45.32 95.84 43.76 94.27
  A 0.71 0.67 20.1 0 1 43.56 93.87
  Q 43.43 92.74 44.27 92.91
  A 0.75 0.75 0.0 0 0 45.13 91.94
  L 43.14 85.94
  Q 43.06 85.68 43.31 85.60
  L 43.58 85.52
  A 0.43 0.42 68.5 0 1 44.10 85.75
  Q 44.43 86.49 45.21 86.64
  A 0.41 0.40 0.1 0 0 45.69 86.17
  L 45.02 82.89
  Z
  M 45.39 94.19
  A 0.56 0.55 42.6 0 0 45.43 95.00
  L 48.55 97.68
  Q 51.74 100.42 49.54 96.89
  Q 48.82 95.73 46.69 93.29
  Q 46.48 93.05 46.25 93.29
  L 45.39 94.19
  Z"
/>
<path fill="#886539" d="
  M 47.51 82.86
  Q 51.71 84.00 53.74 88.13
  L 48.59 84.23
  L 47.51 82.86
  Z"
/>
<path fill="#ddfaf8" d="
  M 91.77 83.63
  L 89.40 86.44
  Q 88.09 87.78 88.61 89.50
  Q 88.75 89.97 89.22 90.14
  Q 91.37 90.89 93.09 89.36
  Q 94.12 89.73 94.13 90.92
  A 1.80 1.80 0.0 0 1 91.89 92.67
  L 87.75 91.62
  Q 87.52 91.56 87.38 91.36
  Q 87.29 91.23 87.15 91.16
  Q 86.67 90.93 86.42 91.41
  L 85.48 93.20
  C 82.38 95.81 82.81 98.69 82.85 102.10
  C 82.89 105.30 81.64 108.28 81.41 111.58
  Q 81.38 111.99 80.97 111.94
  L 80.61 111.89
  A 0.62 0.61 -88.4 0 1 80.07 111.31
  C 79.89 107.91 78.84 104.62 78.94 101.29
  C 79.05 97.68 79.28 95.19 75.97 93.37
  Q 76.30 91.55 74.99 90.87
  Q 73.63 87.41 70.49 83.77
  Q 70.46 83.45 71.32 83.44
  Q 75.93 87.55 79.44 94.31
  L 80.44 97.80
  Q 80.80 99.07 81.22 97.82
  L 82.76 93.27
  C 85.08 89.69 87.46 85.48 90.69 83.40
  Q 92.00 83.42 91.77 83.63
  Z"
/>
<path fill="#99eefc" d="
  M 115.47 86.78
  C 114.85 88.17 114.98 89.33 114.27 90.62
  Q 111.94 94.88 109.20 98.73
  A 0.99 0.99 0.0 0 1 108.44 99.14
  Q 108.08 99.15 108.02 98.74
  L 110.13 95.70
  A 0.49 0.48 -69.8 0 0 109.78 94.94
  Q 108.31 94.80 107.41 95.89
  Q 107.14 96.22 106.71 96.34
  Q 102.36 97.49 103.77 102.23
  L 98.86 106.29
  Q 97.18 106.50 96.82 105.75
  A 0.62 0.61 -17.6 0 0 96.16 105.41
  Q 94.43 105.71 94.19 104.77
  Q 100.40 95.73 102.81 93.50
  Q 105.24 91.25 107.16 89.09
  L 113.23 84.11
  A 0.43 0.43 0.0 0 1 113.84 84.17
  L 114.01 84.39
  Q 114.12 84.52 113.98 84.63
  C 112.39 85.97 110.38 87.08 109.73 89.13
  Q 109.27 90.57 109.10 91.96
  A 1.18 1.18 0.0 0 0 110.72 93.19
  C 113.60 92.01 114.11 89.19 115.47 86.78
  Z"
/>
<path fill="#99eefc" d="
  M 48.59 84.23
  L 53.74 88.13
  Q 54.03 88.70 54.99 89.55
  Q 61.45 95.92 66.56 103.24
  L 66.58 104.21
  Q 66.60 104.60 66.21 104.62
  Q 65.35 104.66 64.72 105.27
  A 1.15 1.13 -73.2 0 1 64.15 105.58
  L 62.54 105.91
  L 57.83 101.95
  Q 59.17 98.87 57.26 97.37
  Q 54.09 94.87 51.35 95.42
  Q 50.99 94.16 49.66 92.79
  L 51.75 93.03
  A 1.29 1.29 0.0 0 0 53.04 91.15
  C 52.39 89.90 52.24 88.70 51.15 87.71
  Q 49.85 86.52 48.58 85.30
  Q 47.90 84.65 48.59 84.23
  Z"
/>
<path fill="#886539" d="
  M 115.00 96.03
  Q 116.23 94.92 115.11 94.00
  A 0.76 0.75 -50.1 0 0 114.04 94.10
  L 110.90 97.92
  A 0.49 0.49 0.0 0 0 111.00 98.63
  Q 111.56 99.04 112.55 98.04
  Q 111.89 100.88 113.16 101.45
  Q 108.85 102.22 110.72 103.36
  Q 103.30 105.60 95.32 110.24
  Q 95.75 108.41 98.86 106.29
  L 103.77 102.23
  L 108.02 98.74
  Q 108.08 99.15 108.44 99.14
  A 0.99 0.99 0.0 0 0 109.20 98.73
  Q 111.94 94.88 114.27 90.62
  C 114.98 89.33 114.85 88.17 115.47 86.78
  Q 116.07 85.98 115.94 86.32
  Q 116.86 86.24 117.18 85.80
  A 0.53 0.53 0.0 0 1 118.14 86.14
  Q 118.07 88.11 116.92 89.66
  A 5.38 5.11 -19.6 0 0 116.13 91.22
  Q 115.45 93.38 116.54 94.14
  Q 116.93 94.41 116.77 94.85
  Q 116.38 96.00 115.00 96.03
  Z"
/>
<path fill="#05adc8" d="
  M 95.53 85.86
  Q 93.94 87.17 93.09 89.36
  Q 91.37 90.89 89.22 90.14
  Q 88.75 89.97 88.61 89.50
  Q 88.09 87.78 89.40 86.44
  Q 89.12 87.90 90.25 87.90
  C 92.25 87.91 93.56 86.34 95.53 85.86
  Z"
/>
<path fill="#d2ba7a" d="
  M 67.23 86.86
  L 70.72 91.32
  Q 71.06 91.76 71.60 91.64
  L 74.99 90.87
  Q 76.30 91.55 75.97 93.37
  C 73.72 92.06 72.23 94.82 69.38 94.89
  L 65.99 90.78
  Q 68.62 88.25 67.23 86.86
  Z"
/>
<path fill="#03e7f4" d="
  M 30.11 89.12
  L 34.30 92.64
  Q 37.69 96.43 39.42 100.49
  Q 38.64 101.60 37.43 101.27
  Q 35.51 99.99 35.14 98.50
  Q 33.57 92.19 28.95 91.40
  L 27.01 89.18
  L 30.11 89.12
  Z"
/>
<path fill="#1c94d3" fill-opacity="0.992" d="
  M 134.33 89.53
  Q 130.90 94.34 128.17 99.41
  C 127.35 100.92 125.99 102.25 124.14 102.79
  Q 114.70 105.52 105.87 110.65
  Q 111.98 103.75 120.84 101.99
  Q 121.32 101.90 121.65 101.54
  L 122.21 100.93
  Q 122.34 101.24 122.52 101.43
  Q 122.91 101.82 123.36 101.51
  C 126.21 99.49 127.37 95.23 129.60 92.58
  Q 129.63 92.55 129.63 92.51
  Q 129.63 92.34 129.62 92.17
  Q 129.60 91.92 129.35 91.88
  Q 129.13 91.85 128.96 91.68
  C 130.39 90.11 131.91 88.11 134.33 89.53
  Z"
/>
<path fill="#10468f" d="
  M 37.43 101.27
  Q 37.64 101.76 38.24 102.01
  Q 38.70 102.19 38.71 102.68
  Q 38.71 103.09 38.45 103.10
  C 34.74 102.69 34.40 99.69 32.85 97.60
  Q 30.78 94.79 28.95 91.40
  Q 33.57 92.19 35.14 98.50
  Q 35.51 99.99 37.43 101.27
  Z"
/>
<path fill="#a48056" d="
  M 48.56 91.94
  Q 49.22 92.11 49.66 92.79
  Q 50.99 94.16 51.35 95.42
  Q 54.18 100.05 57.83 101.95
  L 62.54 105.91
  Q 65.42 107.99 66.86 110.21
  C 64.14 109.94 60.78 107.25 58.50 105.67
  Q 56.52 102.83 53.94 100.45
  Q 50.11 96.90 48.13 91.99
  A 0.18 0.17 77.8 0 1 48.28 91.75
  Q 49.09 91.72 48.56 91.94
  Z"
/>
<path fill="#03e7f4" d="
  M 128.96 91.68
  Q 129.13 91.85 129.35 91.88
  Q 129.60 91.92 129.62 92.17
  Q 129.63 92.34 129.63 92.51
  Q 129.63 92.55 129.60 92.58
  C 127.37 95.23 126.21 99.49 123.36 101.51
  Q 122.91 101.82 122.52 101.43
  Q 122.34 101.24 122.21 100.93
  L 125.82 94.86
  L 128.96 91.68
  Z"
/>
<path fill="#886539" d="
  M 75.97 93.37
  Q 76.19 94.87 77.05 96.16
  A 1.71 1.71 0.0 0 1 77.33 96.95
  L 78.81 114.44
  Q 78.81 114.49 78.86 114.43
  L 79.02 114.22
  Q 79.15 114.06 79.25 114.24
  Q 79.46 114.63 79.50 115.23
  Q 79.35 114.89 79.22 114.78
  Q 79.06 114.64 78.89 114.95
  Q 77.83 116.96 77.91 120.12
  C 77.44 117.95 76.58 115.95 76.26 114.08
  Q 74.59 104.49 71.58 96.22
  Q 71.12 94.94 69.38 94.89
  C 72.23 94.82 73.72 92.06 75.97 93.37
  Z"
/>
<path fill="#886539" d="
  M 90.77 95.07
  Q 86.35 106.94 84.36 120.16
  L 83.12 114.68
  Q 83.47 112.24 83.42 109.35
  Q 83.39 107.24 83.80 104.69
  C 84.32 101.52 84.04 99.19 85.15 95.55
  L 86.25 93.36
  A 1.00 0.99 -59.6 0 1 87.70 92.98
  L 90.77 95.07
  Z"
/>
<path fill="#d2ba7a" d="
  M 45.39 94.19
  L 46.25 93.29
  Q 46.48 93.05 46.69 93.29
  Q 48.82 95.73 49.54 96.89
  Q 51.74 100.42 48.55 97.68
  L 45.43 95.00
  A 0.56 0.55 42.6 0 1 45.39 94.19
  Z"
/>
<path fill="#05adc8" d="
  M 75.97 93.37
  C 79.28 95.19 79.05 97.68 78.94 101.29
  C 78.84 104.62 79.89 107.91 80.07 111.31
  A 0.62 0.61 -88.4 0 0 80.61 111.89
  L 80.97 111.94
  Q 81.38 111.99 81.41 111.58
  C 81.64 108.28 82.89 105.30 82.85 102.10
  C 82.81 98.69 82.38 95.81 85.48 93.20
  Q 85.07 94.57 85.15 95.55
  C 84.04 99.19 84.32 101.52 83.80 104.69
  Q 83.39 107.24 83.42 109.35
  Q 83.47 112.24 83.12 114.68
  L 81.73 119.60
  A 0.33 0.33 0.0 0 1 81.25 119.80
  Q 80.62 119.45 80.63 120.15
  A 0.20 0.20 0.0 0 1 80.23 120.18
  L 79.50 115.23
  Q 79.46 114.63 79.25 114.24
  Q 79.15 114.06 79.02 114.22
  L 78.86 114.43
  Q 78.81 114.49 78.81 114.44
  L 77.33 96.95
  A 1.71 1.71 0.0 0 0 77.05 96.16
  Q 76.19 94.87 75.97 93.37
  Z"
/>
<path fill="#d2ba7a" d="
  M 115.00 96.03
  L 112.55 98.04
  Q 111.56 99.04 111.00 98.63
  A 0.49 0.49 0.0 0 1 110.90 97.92
  L 114.04 94.10
  A 0.76 0.75 -50.1 0 1 115.11 94.00
  Q 116.23 94.92 115.00 96.03
  Z"
/>
<path fill="#1b6991" d="
  M 108.02 98.74
  L 103.77 102.23
  Q 102.36 97.49 106.71 96.34
  Q 107.14 96.22 107.41 95.89
  Q 108.31 94.80 109.78 94.94
  A 0.49 0.48 -69.8 0 1 110.13 95.70
  L 108.02 98.74
  Z"
/>
<path fill="#1b6991" d="
  M 57.83 101.95
  Q 54.18 100.05 51.35 95.42
  Q 54.09 94.87 57.26 97.37
  Q 59.17 98.87 57.83 101.95
  Z"
/>
<path fill="#1c94d3" fill-opacity="0.992" d="
  M 39.42 100.49
  Q 39.89 101.62 40.79 101.81
  C 49.39 103.64 57.94 110.46 61.63 118.38
  Q 63.00 121.31 61.22 125.62
  Q 61.54 120.45 59.91 116.55
  C 57.00 109.64 45.21 104.91 38.45 103.10
  Q 38.71 103.09 38.71 102.68
  Q 38.70 102.19 38.24 102.01
  Q 37.64 101.76 37.43 101.27
  Q 38.64 101.60 39.42 100.49
  Z"
/>
<path fill="#d2ba7a" d="
  M 113.16 101.45
  Q 114.77 102.69 110.72 103.36
  Q 108.85 102.22 113.16 101.45
  Z"
/>
<path fill="#05adc8" d="
  M 66.56 103.24
  Q 70.43 108.46 71.62 115.50
  Q 72.12 118.45 71.46 120.10
  Q 69.67 118.73 65.81 121.63
  C 68.30 117.51 70.76 114.00 66.86 110.21
  Q 65.42 107.99 62.54 105.91
  L 64.15 105.58
  A 1.15 1.13 -73.2 0 0 64.72 105.27
  Q 65.35 104.66 66.21 104.62
  Q 66.60 104.60 66.58 104.21
  L 66.56 103.24
  Z"
/>
<path fill="#1b6991" d="
  M 94.19 104.77
  Q 94.43 105.71 96.16 105.41
  A 0.62 0.61 -17.6 0 1 96.82 105.75
  Q 97.18 106.50 98.86 106.29
  Q 95.75 108.41 95.32 110.24
  Q 94.62 109.80 93.16 112.65
  Q 93.92 108.79 92.54 107.99
  L 94.19 104.77
  Z"
/>
<path fill="#03e7f4" d="
  M 92.54 107.99
  Q 93.92 108.79 93.16 112.65
  C 91.98 116.09 94.20 118.29 95.48 121.14
  Q 92.70 119.20 90.28 120.02
  Q 89.54 113.95 92.54 107.99
  Z"
/>
<path fill="#0c2f4d" d="
  M 100.65 123.20
  L 101.63 126.42
  Q 101.79 126.96 101.37 126.59
  L 99.16 124.68
  Q 99.84 123.77 100.65 123.20
  Z"
/>
</svg>
