<?xml version="1.0" encoding="UTF-8" standalone="no"?>
<!DOCTYPE svg PUBLIC "-//W3C//DTD SVG 1.1//EN" "http://www.w3.org/Graphics/SVG/1.1/DTD/svg11.dtd">
<svg xmlns="http://www.w3.org/2000/svg" version="1.1" viewBox="0.00 0.00 100.00 100.00">
<g stroke-width="2.70" fill="none" stroke-linecap="butt">
<path stroke="#f98f5b" vector-effect="non-scaling-stroke" d="
  M 34.10 41.84
  L 33.69 42.48"
/>
<path stroke="#c54942" vector-effect="non-scaling-stroke" d="
  M 33.69 42.48
  L 29.72 38.12"
/>
<path stroke="#9b3f40" vector-effect="non-scaling-stroke" d="
  M 29.72 38.12
  L 21.42 29.19"
/>
<path stroke="#c54942" vector-effect="non-scaling-stroke" d="
  M 21.42 29.19
  Q 21.22 28.59 20.42 28.29"
/>
<path stroke="#934444" vector-effect="non-scaling-stroke" d="
  M 20.42 28.29
  C 16.56 23.26 17.18 18.95 9.57 18.02
  Q 8.81 17.93 9.31 18.51
  C 12.01 21.63 12.00 27.14 12.54 31.01"
/>
<path stroke="#d7504c" stroke-opacity="0.996" vector-effect="non-scaling-stroke" d="
  M 12.54 31.01
  Q 13.59 34.31 13.94 37.50
  Q 13.95 37.66 12.99 37.75"
/>
<path stroke="#934444" vector-effect="non-scaling-stroke" d="
  M 12.99 37.75
  Q 12.41 32.45 7.11 30.94"
/>
<path stroke="#d7504c" stroke-opacity="0.996" vector-effect="non-scaling-stroke" d="
  M 7.11 30.94
  L 6.93 32.41
  Q 6.90 32.60 6.72 32.55
  Q 6.17 32.39 6.19 31.99
  Q 6.24 30.51 5.80 29.95
  Q 4.67 28.51 4.64 30.20
  L 4.61 32.74"
/>
<path stroke="#e7b17b" vector-effect="non-scaling-stroke" d="
  M 62.72 50.00
  L 62.11 51.99"
/>
<path stroke="#f69951" vector-effect="non-scaling-stroke" d="
  M 62.11 51.99
  L 62.10 51.56
  A 0.34 0.34 0.0 0 0 61.57 51.29
  Q 59.78 52.57 58.23 54.10
  C 56.18 56.13 53.93 56.47 54.70 60.39"
/>
<path stroke="#f69951" vector-effect="non-scaling-stroke" d="
  M 44.73 59.21
  Q 45.65 58.43 44.87 57.12
  Q 44.14 55.91 42.35 55.19
  Q 41.83 54.99 41.55 54.51
  Q 40.87 53.39 39.78 52.64
  A 0.41 0.41 0.0 0 0 39.14 53.01
  L 39.36 55.61"
/>
<path stroke="#e7b17b" vector-effect="non-scaling-stroke" d="
  M 38.49 54.12
  Q 39.48 53.63 38.65 51.99
  Q 38.11 50.91 37.72 49.73"
/>
<path stroke="#6c2022" vector-effect="non-scaling-stroke" d="
  M 21.42 29.19
  Q 20.88 28.99 21.02 30.08
  C 21.23 31.79 23.20 35.12 23.88 36.78
  A 2.62 2.59 -87.9 0 0 25.13 38.14
  Q 27.32 39.26 29.72 38.12"
/>
<path stroke="#ca703d" vector-effect="non-scaling-stroke" d="
  M 33.69 42.48
  Q 37.50 45.03 39.27 48.84
  Q 39.74 49.85 37.72 49.73"
/>
<path stroke="#b36c62" vector-effect="non-scaling-stroke" d="
  M 37.72 49.73
  L 32.37 44.02"
/>
<path stroke="#6d383c" vector-effect="non-scaling-stroke" d="
  M 32.37 44.02
  Q 31.70 43.61 30.95 43.77
  Q 30.49 43.86 30.56 44.32
  Q 30.64 44.88 30.03 45.04
  A 0.84 0.83 56.6 0 1 29.27 44.88
  L 26.44 42.55"
/>
<path stroke="#8f5b60" vector-effect="non-scaling-stroke" d="
  M 26.44 42.55
  Q 25.59 40.25 23.62 39.08
  A 1.00 0.99 -41.6 0 0 22.71 39.03
  L 22.24 39.25"
/>
<path stroke="#642626" vector-effect="non-scaling-stroke" d="
  M 20.42 28.29
  C 19.51 30.86 19.76 33.30 21.27 35.64
  Q 22.02 36.80 22.50 38.12
  Q 22.65 38.52 22.44 38.89
  L 22.24 39.25"
/>
<path stroke="#5d5661" vector-effect="non-scaling-stroke" d="
  M 22.24 39.25
  Q 22.59 40.42 23.46 41.21"
/>
<path stroke="#3a333d" vector-effect="non-scaling-stroke" d="
  M 23.46 41.21
  L 23.48 41.85
  Q 23.50 42.43 22.95 42.63
  Q 21.51 43.17 22.09 44.74
  A 0.08 0.08 0.0 0 0 22.25 44.73
  Q 22.32 44.36 22.55 44.40
  Q 22.72 44.42 22.90 44.66
  Q 23.89 46.03 24.35 47.29"
/>
<path stroke="#752c2e" vector-effect="non-scaling-stroke" d="
  M 24.35 47.29
  Q 24.72 48.75 25.09 49.68
  Q 25.76 51.39 26.79 52.74
  A 0.68 0.68 0.0 0 0 27.97 52.57
  L 28.28 51.75"
/>
<path stroke="#3a333d" vector-effect="non-scaling-stroke" d="
  M 28.28 51.75
  Q 29.00 51.04 30.45 51.42"
/>
<path stroke="#5d5661" vector-effect="non-scaling-stroke" d="
  M 30.45 51.42
  Q 31.15 51.95 31.86 52.00
  Q 32.42 52.05 32.14 51.56
  L 31.95 51.22"
/>
<path stroke="#3a333d" vector-effect="non-scaling-stroke" d="
  M 31.95 51.22
  L 31.06 46.79"
/>
<path stroke="#816764" vector-effect="non-scaling-stroke" d="
  M 31.06 46.79
  Q 30.72 46.39 30.68 46.00"
/>
<path stroke="#3a333d" vector-effect="non-scaling-stroke" d="
  M 30.68 46.00
  Q 30.48 45.01 30.65 44.38
  Q 30.77 43.92 31.19 44.17
  Q 31.64 44.45 32.09 44.43"
/>
<path stroke="#816764" vector-effect="non-scaling-stroke" d="
  M 32.09 44.43
  C 35.69 47.50 36.40 50.53 38.49 54.12"
/>
<path stroke="#976b3e" vector-effect="non-scaling-stroke" d="
  M 38.49 54.12
  L 39.36 55.61"
/>
<path stroke="#904f3a" vector-effect="non-scaling-stroke" d="
  M 39.36 55.61
  Q 39.67 57.67 44.73 59.21"
/>
<path stroke="#976b3e" vector-effect="non-scaling-stroke" d="
  M 44.73 59.21
  C 48.17 62.62 48.26 66.22 49.04 71.75
  Q 49.19 72.80 49.70 73.23
  A 1.00 1.00 0.0 0 0 51.34 72.54
  Q 51.85 66.27 54.70 60.39"
/>
<path stroke="#904f3a" vector-effect="non-scaling-stroke" d="
  M 54.70 60.39
  L 56.40 58.87
  A 1.23 1.21 -70.8 0 1 57.03 58.56
  Q 60.44 57.90 61.22 55.72"
/>
<path stroke="#816764" vector-effect="non-scaling-stroke" d="
  M 61.22 55.72
  C 63.93 51.78 64.67 47.90 68.54 44.66"
/>
<path stroke="#642626" vector-effect="non-scaling-stroke" d="
  M 68.54 44.66
  Q 68.89 44.01 69.57 44.14
  Q 70.10 44.25 70.10 44.79
  L 70.09 46.23"
/>
<path stroke="#816764" vector-effect="non-scaling-stroke" d="
  M 70.09 46.23
  Q 69.53 47.06 69.77 47.64
  Q 70.02 48.25 70.56 47.87
  Q 70.96 47.60 71.33 46.95"
/>
<path stroke="#642626" vector-effect="non-scaling-stroke" d="
  M 71.33 46.95
  L 72.96 43.52"
/>
<path stroke="#752c2e" vector-effect="non-scaling-stroke" d="
  M 92.91 31.27
  Q 93.63 33.75 92.48 36.00
  Q 92.25 36.44 92.34 36.93
  C 92.77 39.25 91.30 40.77 90.67 42.28
  Q 89.29 45.64 86.00 47.52
  Q 85.49 47.81 85.14 47.59
  Q 84.79 47.37 85.00 47.00
  Q 85.20 46.64 85.17 46.54
  Q 84.86 45.57 84.47 46.54
  L 80.58 56.17
  Q 80.39 56.63 80.85 56.81
  Q 81.56 57.07 82.28 56.63"
/>
<path stroke="#88231f" vector-effect="non-scaling-stroke" d="
  M 82.28 56.63
  Q 82.70 56.57 82.77 56.61
  A 0.70 0.70 0.0 0 1 82.82 57.80
  C 77.96 61.11 76.05 65.49 71.79 69.38
  Q 71.44 69.71 70.95 69.68
  Q 68.50 69.53 65.09 70.38
  Q 61.13 71.37 60.69 73.41"
/>
<path stroke="#88231f" vector-effect="non-scaling-stroke" d="
  M 27.40 69.16
  Q 24.24 63.49 22.74 61.76
  Q 21.34 60.15 17.83 57.74
  Q 17.39 57.44 17.38 57.16
  Q 17.36 56.78 17.87 56.41"
/>
<path stroke="#752c2e" vector-effect="non-scaling-stroke" d="
  M 17.87 56.41
  L 20.13 56.95
  A 0.29 0.29 0.0 0 0 20.46 56.53
  Q 18.26 52.57 17.05 48.24
  Q 16.93 47.80 16.71 47.41
  Q 15.95 46.02 15.47 47.00
  A 1.15 1.15 0.0 0 1 13.56 47.24
  Q 11.14 44.36 9.60 41.99
  Q 8.65 40.53 8.42 38.75
  Q 8.19 36.94 8.05 35.14
  Q 8.02 34.67 7.80 34.25
  Q 7.10 32.86 7.11 30.94"
/>
<path stroke="#752c2e" vector-effect="non-scaling-stroke" d="
  M 12.99 37.75
  L 17.93 40.82
  Q 19.44 41.76 18.56 40.21
  L 16.61 36.79
  A 1.28 1.24 1.6 0 0 16.17 36.34
  Q 14.99 35.63 14.18 34.56
  C 13.41 33.55 13.52 32.21 12.54 31.01"
/>
<path stroke="#cc2d26" vector-effect="non-scaling-stroke" d="
  M 17.87 56.41
  Q 17.47 54.23 17.32 55.53"
/>
<path stroke="#b36c62" vector-effect="non-scaling-stroke" d="
  M 71.33 46.95
  Q 71.48 46.04 70.99 45.93
  Q 70.40 45.81 70.09 46.23"
/>
<path stroke="#b36c62" vector-effect="non-scaling-stroke" d="
  M 68.54 44.66
  Q 68.42 44.01 68.25 44.12
  Q 64.98 46.46 62.72 50.00"
/>
<path stroke="#ca703d" vector-effect="non-scaling-stroke" d="
  M 62.72 50.00
  Q 61.48 50.19 61.01 50.02
  Q 59.81 49.59 60.60 48.60
  L 63.84 44.55"
/>
<path stroke="#d7504c" stroke-opacity="0.996" vector-effect="non-scaling-stroke" d="
  M 96.42 30.21
  Q 96.13 30.27 96.03 29.69
  Q 95.97 29.27 95.55 29.25
  Q 95.37 29.24 95.19 29.36
  Q 95.02 29.46 94.90 29.74
  Q 94.18 31.36 92.91 31.27"
/>
<path stroke="#934444" vector-effect="non-scaling-stroke" d="
  M 92.91 31.27
  Q 88.29 32.91 87.60 37.01
  Q 87.51 37.51 87.09 37.78
  L 83.24 40.29
  Q 81.99 41.10 82.60 39.73
  Q 83.03 38.76 83.65 37.86
  Q 83.96 37.43 84.45 37.23
  C 87.27 36.14 88.73 27.51 88.61 24.70
  Q 88.60 24.56 88.73 24.63
  Q 88.77 24.66 88.75 24.75
  Q 88.68 24.95 88.76 25.06
  Q 88.91 25.25 88.89 25.00
  Q 88.57 21.53 90.76 18.95
  Q 91.54 18.04 90.34 18.16
  C 86.39 18.57 83.26 21.10 82.02 24.96
  C 81.39 26.92 80.28 27.72 80.38 29.97
  Q 80.40 30.47 80.15 30.91
  C 78.97 32.89 78.78 36.12 78.53 38.38
  C 78.33 40.23 77.26 41.28 75.95 42.39
  Q 75.57 42.72 75.06 42.70
  Q 73.78 42.66 72.96 43.52"
/>
<path stroke="#c54942" vector-effect="non-scaling-stroke" d="
  M 72.96 43.52
  Q 72.58 43.64 72.42 43.87
  Q 72.38 43.92 72.38 43.85
  Q 72.38 43.81 72.37 43.76
  Q 72.35 43.58 72.44 43.45
  C 73.66 41.66 74.50 39.71 75.67 37.95
  Q 78.12 34.26 79.19 30.53
  Q 79.82 28.34 78.23 29.97
  C 76.14 32.11 73.42 33.98 71.58 36.46
  C 69.05 39.87 67.14 41.86 63.84 44.55"
/>
<path stroke="#f98f5b" vector-effect="non-scaling-stroke" d="
  M 63.84 44.55
  Q 63.99 43.79 63.73 43.29"
/>
<path stroke="#e09577" vector-effect="non-scaling-stroke" d="
  M 61.22 55.72
  Q 60.89 53.87 62.11 51.99"
/>
<path stroke="#3a333d" vector-effect="non-scaling-stroke" d="
  M 34.68 38.62
  L 41.73 44.71"
/>
<path stroke="#5d5661" vector-effect="non-scaling-stroke" d="
  M 41.73 44.71
  Q 45.70 47.26 47.67 51.07"
/>
<path stroke="#391c23" vector-effect="non-scaling-stroke" d="
  M 47.67 51.07
  L 42.39 50.17"
/>
<path stroke="#976b3e" vector-effect="non-scaling-stroke" d="
  M 42.39 50.17
  Q 42.37 47.68 39.67 45.19"
/>
<path stroke="#9f663a" vector-effect="non-scaling-stroke" d="
  M 62.21 44.07
  Q 58.18 46.89 57.89 51.61
  Q 57.86 52.12 57.51 52.49
  C 54.99 55.19 51.30 58.47 51.12 62.14
  Q 50.94 65.70 49.90 62.24
  C 48.86 58.80 47.73 57.33 44.80 54.44
  Q 42.85 52.53 42.39 50.17"
/>
<path stroke="#65515d" vector-effect="non-scaling-stroke" d="
  M 47.67 51.07
  L 50.05 58.68
  Q 50.25 59.32 50.69 58.81
  Q 51.75 57.56 50.48 56.24
  Q 49.84 55.58 49.22 52.91"
/>
<path stroke="#65515d" vector-effect="non-scaling-stroke" d="
  M 51.06 53.96
  Q 51.02 54.52 51.04 54.88
  Q 51.15 56.60 51.59 54.93
  Q 52.25 52.44 53.67 49.93
  C 54.92 47.72 56.91 46.42 58.92 44.90"
/>
<path stroke="#8a797a" vector-effect="non-scaling-stroke" d="
  M 32.37 44.02
  Q 31.79 44.53 32.09 44.43"
/>
<path stroke="#8a797a" vector-effect="non-scaling-stroke" d="
  M 30.68 46.00
  Q 30.19 45.84 29.76 45.88
  Q 29.00 45.96 29.43 46.58
  L 30.31 47.86
  Q 30.76 48.51 31.02 47.76
  Q 31.16 47.36 31.06 46.79"
/>
<path stroke="#666877" vector-effect="non-scaling-stroke" d="
  M 31.95 51.22
  Q 31.65 50.80 31.32 50.68
  Q 31.01 50.57 30.71 50.78
  Q 30.35 51.04 30.45 51.42"
/>
<path stroke="#7e3e45" vector-effect="non-scaling-stroke" d="
  M 28.28 51.75
  L 24.35 47.29"
/>
<path stroke="#666877" vector-effect="non-scaling-stroke" d="
  M 26.44 42.55
  Q 25.08 43.54 23.46 41.21"
/>
<path stroke="#cc2d26" vector-effect="non-scaling-stroke" d="
  M 82.77 55.99
  Q 82.54 56.42 82.28 56.63"
/>
<path stroke="#5d5661" vector-effect="non-scaling-stroke" d="
  M 45.20 43.98
  Q 45.86 46.17 47.53 48.26"
/>
<path stroke="#666877" vector-effect="non-scaling-stroke" d="
  M 44.58 43.29
  Q 42.80 43.79 41.73 44.71"
/>
<path stroke="#422e39" vector-effect="non-scaling-stroke" d="
  M 66.04 38.58
  L 58.92 44.90"
/>
<path stroke="#666877" vector-effect="non-scaling-stroke" d="
  M 58.92 44.90
  Q 58.83 43.91 58.00 43.84
  Q 57.18 43.78 57.03 43.71
  Q 56.49 43.44 56.34 42.95"
/>
<path stroke="#5d5661" vector-effect="non-scaling-stroke" d="
  M 52.53 49.91
  L 54.73 45.94"
/>
<path stroke="#666877" vector-effect="non-scaling-stroke" d="
  M 54.73 45.94
  Q 55.61 45.15 55.53 43.94"
/>
<path stroke="#d45a42" vector-effect="non-scaling-stroke" d="
  M 50.33 38.52
  C 50.86 41.01 49.04 40.52 48.70 41.97"
/>
<path stroke="#7d262a" vector-effect="non-scaling-stroke" d="
  M 48.70 41.97
  L 47.66 41.99
  Q 47.18 42.00 47.37 42.44
  L 49.25 46.73
  Q 49.51 47.32 49.73 46.71
  Q 50.18 45.46 50.08 44.01"
/>
<path stroke="#d45a42" vector-effect="non-scaling-stroke" d="
  M 50.08 44.01
  Q 50.13 44.58 50.48 44.69
  A 0.30 0.30 0.0 0 0 50.86 44.42
  L 50.92 43.52"
/>
<path stroke="#752c2e" vector-effect="non-scaling-stroke" d="
  M 50.92 43.52
  Q 50.78 45.19 51.26 46.56
  Q 51.53 47.34 51.71 46.54
  Q 52.31 43.98 54.13 42.34"
/>
<path stroke="#d45a42" vector-effect="non-scaling-stroke" d="
  M 54.13 42.34
  Q 53.94 41.89 54.45 42.73"
/>
<path stroke="#752c2e" vector-effect="non-scaling-stroke" d="
  M 53.56 45.07
  Q 51.84 48.08 52.53 49.91"
/>
<path stroke="#a06169" vector-effect="non-scaling-stroke" d="
  M 52.53 49.91
  L 51.06 53.96"
/>
<path stroke="#7d262a" vector-effect="non-scaling-stroke" d="
  M 51.06 53.96
  Q 48.90 50.97 49.22 52.91"
/>
<path stroke="#a06169" vector-effect="non-scaling-stroke" d="
  M 49.22 52.91
  L 47.53 48.26"
/>
<path stroke="#752c2e" vector-effect="non-scaling-stroke" d="
  M 47.53 48.26
  Q 48.64 47.85 47.27 45.04"
/>
<path stroke="#3a333d" vector-effect="non-scaling-stroke" d="
  M 54.73 45.94
  Q 55.04 45.29 54.77 44.42"
/>
<path stroke="#904f3a" vector-effect="non-scaling-stroke" d="
  M 54.13 42.34
  C 52.85 41.66 50.97 41.70 50.92 43.52"
/>
<path stroke="#984936" vector-effect="non-scaling-stroke" d="
  M 50.08 44.01
  Q 49.83 42.79 48.70 41.97"
/>
<path stroke="#752c2e" vector-effect="non-scaling-stroke" d="
  M 87.2929 21.9965
  A 0.40 0.40 0.0 0 0 86.9524 21.5447
  L 86.6752 21.5057
  A 0.40 0.40 0.0 0 0 86.2234 21.8462
  L 85.3271 28.2235
  A 0.40 0.40 0.0 0 0 85.6676 28.6753
  L 85.9448 28.7143
  A 0.40 0.40 0.0 0 0 86.3966 28.3738
  L 87.2929 21.9965"
/>
<path stroke="#752c2e" vector-effect="non-scaling-stroke" d="
  M 78.19 44.16
  L 72.56 51.28
  Q 72.22 51.72 72.58 52.15
  L 73.15 52.83
  A 0.36 0.36 0.0 0 0 73.73 52.80
  Q 76.19 49.23 78.41 45.78
  Q 78.87 45.06 78.74 44.30
  Q 78.62 43.61 78.19 44.16"
/>
<path stroke="#5d5661" vector-effect="non-scaling-stroke" d="
  M 69.63 50.38
  Q 69.01 50.84 68.66 51.52
  Q 68.27 52.28 69.04 51.92
  L 70.19 51.39
  Q 70.71 51.14 70.62 50.58
  Q 70.56 50.18 70.18 49.96
  Q 69.89 49.81 69.69 50.07
  Q 69.60 50.20 69.63 50.38"
/>
<path stroke="#816764" vector-effect="non-scaling-stroke" d="
  M 44.03 60.65
  C 39.89 60.03 37.59 54.68 34.97 52.54
  Q 33.93 51.69 34.44 52.93
  C 35.99 56.74 41.10 60.12 44.62 62.63
  Q 45.01 62.91 45.04 62.42
  Q 45.08 61.80 44.82 61.25
  Q 44.59 60.73 44.03 60.65"
/>
<path stroke="#5d5661" vector-effect="non-scaling-stroke" d="
  M 55.91 61.07
  L 54.95 64.92
  Q 54.77 65.65 55.23 65.05
  Q 55.98 64.10 56.20 62.58"
/>
<path stroke="#816764" vector-effect="non-scaling-stroke" d="
  M 56.20 62.58
  C 59.25 60.67 65.38 56.21 66.33 52.67
  Q 66.60 51.67 65.88 52.41
  C 63.00 55.38 60.09 59.95 55.91 61.07"
/>
<path stroke="#ac9c9e" vector-effect="non-scaling-stroke" d="
  M 56.20 62.58
  Q 55.71 62.43 55.91 61.07"
/>
<path stroke="#904f3a" vector-effect="non-scaling-stroke" d="
  M 28.11 61.15
  Q 32.62 64.31 37.51 66.84
  C 39.51 67.88 41.19 69.56 43.23 70.75
  Q 43.59 70.96 43.69 70.55
  Q 43.75 70.32 43.59 70.16
  C 40.47 67.08 36.42 66.43 33.39 63.62
  Q 28.43 59.00 23.56 54.40
  A 0.23 0.23 0.0 0 0 23.18 54.61
  L 23.99 58.86
  Q 24.10 59.41 24.77 59.86
  C 25.69 60.48 27.09 60.43 28.11 61.15"
/>
<path stroke="#3a333d" vector-effect="non-scaling-stroke" d="
  M 66.25 64.92
  L 64.22 65.90"
/>
<path stroke="#5d5661" vector-effect="non-scaling-stroke" d="
  M 64.22 65.90
  Q 59.79 67.06 56.90 70.57
  Q 56.79 70.71 56.92 70.83
  L 57.15 71.05
  A 0.41 0.40 -41.2 0 0 57.66 71.08
  L 64.51 66.22"
/>
<path stroke="#3a333d" vector-effect="non-scaling-stroke" d="
  M 64.51 66.22
  Q 66.04 66.11 66.76 65.19"
/>
<path stroke="#904f3a" vector-effect="non-scaling-stroke" d="
  M 66.76 65.19
  L 75.47 60.11
  A 2.23 2.23 0.0 0 0 76.50 58.74
  L 77.50 54.80
  A 0.33 0.33 0.0 0 0 76.95 54.48
  L 66.25 64.92"
/>
<path stroke="#996150" vector-effect="non-scaling-stroke" d="
  M 66.76 65.19
  Q 66.37 65.21 66.25 64.92"
/>
<path stroke="#666877" vector-effect="non-scaling-stroke" d="
  M 64.51 66.22
  Q 64.56 65.92 64.22 65.90"
/>
<path stroke="#a7302d" vector-effect="non-scaling-stroke" d="
  M 13.2912 48.6984
  A 1.60 0.49 36.8 0 0 12.3035 47.3476
  A 1.60 0.49 36.8 0 0 10.7288 46.7816
  A 1.60 0.49 36.8 0 0 11.7165 48.1324
  A 1.60 0.49 36.8 0 0 13.2912 48.6984"
/>
<path stroke="#a7302d" vector-effect="non-scaling-stroke" d="
  M 89.5311 46.7925
  A 1.70 0.58 -41.1 0 0 87.8687 47.4729
  A 1.70 0.58 -41.1 0 0 86.9689 49.0275
  A 1.70 0.58 -41.1 0 0 88.6313 48.3471
  A 1.70 0.58 -41.1 0 0 89.5311 46.7925"
/>
</g>
<path fill="#f56861" fill-opacity="0.996" d="
  M 34.10 41.84
  L 33.69 42.48
  L 29.72 38.12
  L 21.42 29.19
  Q 21.22 28.59 20.42 28.29
  C 16.56 23.26 17.18 18.95 9.57 18.02
  Q 8.81 17.93 9.31 18.51
  C 12.01 21.63 12.00 27.14 12.54 31.01
  Q 13.59 34.31 13.94 37.50
  Q 13.95 37.66 12.99 37.75
  Q 12.41 32.45 7.11 30.94
  L 6.93 32.41
  Q 6.90 32.60 6.72 32.55
  Q 6.17 32.39 6.19 31.99
  Q 6.24 30.51 5.80 29.95
  Q 4.67 28.51 4.64 30.20
  L 4.61 32.74
  L 2.96 27.00
  Q 2.79 26.43 3.31 26.71
  L 10.19 30.36
  A 0.38 0.37 -77.3 0 0 10.74 30.01
  C 10.53 25.58 10.66 20.71 6.83 17.68
  Q 6.03 17.06 5.29 16.39
  Q 4.81 15.96 5.45 16.06
  Q 11.00 16.98 16.24 18.96
  Q 16.76 19.16 16.96 19.67
  C 19.09 25.12 20.93 29.05 26.31 31.10
  A 1.47 1.46 -5.0 0 1 27.04 31.71
  C 29.35 35.56 30.11 38.34 34.10 41.84
  Z"
/>
<path fill="#f56861" fill-opacity="0.996" d="
  M 96.42 30.21
  Q 96.13 30.27 96.03 29.69
  Q 95.97 29.27 95.55 29.25
  Q 95.37 29.24 95.19 29.36
  Q 95.02 29.46 94.90 29.74
  Q 94.18 31.36 92.91 31.27
  Q 88.29 32.91 87.60 37.01
  Q 87.51 37.51 87.09 37.78
  L 83.24 40.29
  Q 81.99 41.10 82.60 39.73
  Q 83.03 38.76 83.65 37.86
  Q 83.96 37.43 84.45 37.23
  C 87.27 36.14 88.73 27.51 88.61 24.70
  Q 88.60 24.56 88.73 24.63
  Q 88.77 24.66 88.75 24.75
  Q 88.68 24.95 88.76 25.06
  Q 88.91 25.25 88.89 25.00
  Q 88.57 21.53 90.76 18.95
  Q 91.54 18.04 90.34 18.16
  C 86.39 18.57 83.26 21.10 82.02 24.96
  C 81.39 26.92 80.28 27.72 80.38 29.97
  Q 80.40 30.47 80.15 30.91
  C 78.97 32.89 78.78 36.12 78.53 38.38
  C 78.33 40.23 77.26 41.28 75.95 42.39
  Q 75.57 42.72 75.06 42.70
  Q 73.78 42.66 72.96 43.52
  Q 72.58 43.64 72.42 43.87
  Q 72.38 43.92 72.38 43.85
  Q 72.38 43.81 72.37 43.76
  Q 72.35 43.58 72.44 43.45
  C 73.66 41.66 74.50 39.71 75.67 37.95
  Q 78.12 34.26 79.19 30.53
  Q 79.82 28.34 78.23 29.97
  C 76.14 32.11 73.42 33.98 71.58 36.46
  C 69.05 39.87 67.14 41.86 63.84 44.55
  Q 63.99 43.79 63.73 43.29
  C 69.17 39.86 70.13 36.58 72.89 31.90
  Q 73.15 31.47 73.62 31.28
  C 78.97 29.16 81.07 25.26 83.05 19.96
  A 1.25 1.20 89.9 0 1 83.73 19.25
  Q 89.09 17.09 94.80 16.11
  Q 96.79 15.77 94.98 16.68
  C 89.51 19.42 90.23 24.59 89.67 29.90
  Q 89.56 30.91 90.45 30.43
  L 96.81 27.00
  Q 97.43 26.67 97.23 27.35
  L 96.42 30.21
  Z"
/>
<path fill="#312127" d="
  M 20.42 28.29
  C 19.51 30.86 19.76 33.30 21.27 35.64
  Q 22.02 36.80 22.50 38.12
  Q 22.65 38.52 22.44 38.89
  L 22.24 39.25
  Q 22.59 40.42 23.46 41.21
  L 23.48 41.85
  Q 23.50 42.43 22.95 42.63
  Q 21.51 43.17 22.09 44.74
  A 0.08 0.08 0.0 0 0 22.25 44.73
  Q 22.32 44.36 22.55 44.40
  Q 22.72 44.42 22.90 44.66
  Q 23.89 46.03 24.35 47.29
  Q 24.72 48.75 25.09 49.68
  Q 25.76 51.39 26.79 52.74
  A 0.68 0.68 0.0 0 0 27.97 52.57
  L 28.28 51.75
  Q 29.00 51.04 30.45 51.42
  Q 31.15 51.95 31.86 52.00
  Q 32.42 52.05 32.14 51.56
  L 31.95 51.22
  L 31.06 46.79
  Q 30.72 46.39 30.68 46.00
  Q 30.48 45.01 30.65 44.38
  Q 30.77 43.92 31.19 44.17
  Q 31.64 44.45 32.09 44.43
  C 35.69 47.50 36.40 50.53 38.49 54.12
  L 39.36 55.61
  Q 39.67 57.67 44.73 59.21
  C 48.17 62.62 48.26 66.22 49.04 71.75
  Q 49.19 72.80 49.70 73.23
  A 1.00 1.00 0.0 0 0 51.34 72.54
  Q 51.85 66.27 54.70 60.39
  L 56.40 58.87
  A 1.23 1.21 -70.8 0 1 57.03 58.56
  Q 60.44 57.90 61.22 55.72
  C 63.93 51.78 64.67 47.90 68.54 44.66
  Q 68.89 44.01 69.57 44.14
  Q 70.10 44.25 70.10 44.79
  L 70.09 46.23
  Q 69.53 47.06 69.77 47.64
  Q 70.02 48.25 70.56 47.87
  Q 70.96 47.60 71.33 46.95
  L 72.96 43.52
  Q 73.78 42.66 75.06 42.70
  Q 75.57 42.72 75.95 42.39
  C 77.26 41.28 78.33 40.23 78.53 38.38
  C 78.78 36.12 78.97 32.89 80.15 30.91
  Q 80.40 30.47 80.38 29.97
  C 80.28 27.72 81.39 26.92 82.02 24.96
  C 83.26 21.10 86.39 18.57 90.34 18.16
  Q 91.54 18.04 90.76 18.95
  Q 88.57 21.53 88.89 25.00
  Q 88.91 25.25 88.76 25.06
  Q 88.68 24.95 88.75 24.75
  Q 88.77 24.66 88.73 24.63
  Q 88.60 24.56 88.61 24.70
  C 88.73 27.51 87.27 36.14 84.45 37.23
  Q 83.96 37.43 83.65 37.86
  Q 83.03 38.76 82.60 39.73
  Q 81.99 41.10 83.24 40.29
  L 87.09 37.78
  Q 87.51 37.51 87.60 37.01
  Q 88.29 32.91 92.91 31.27
  Q 93.63 33.75 92.48 36.00
  Q 92.25 36.44 92.34 36.93
  C 92.77 39.25 91.30 40.77 90.67 42.28
  Q 89.29 45.64 86.00 47.52
  Q 85.49 47.81 85.14 47.59
  Q 84.79 47.37 85.00 47.00
  Q 85.20 46.64 85.17 46.54
  Q 84.86 45.57 84.47 46.54
  L 80.58 56.17
  Q 80.39 56.63 80.85 56.81
  Q 81.56 57.07 82.28 56.63
  Q 82.70 56.57 82.77 56.61
  A 0.70 0.70 0.0 0 1 82.82 57.80
  C 77.96 61.11 76.05 65.49 71.79 69.38
  Q 71.44 69.71 70.95 69.68
  Q 68.50 69.53 65.09 70.38
  Q 61.13 71.37 60.69 73.41
  Q 56.65 76.38 53.58 81.04
  Q 53.25 81.54 52.98 81.00
  Q 51.50 77.89 51.13 74.45
  A 0.83 0.83 0.0 0 0 50.48 73.72
  L 50.05 73.62
  Q 49.37 73.46 49.35 74.16
  Q 49.22 77.74 47.79 81.03
  Q 47.54 81.60 47.17 81.09
  C 43.08 75.41 38.47 71.31 31.31 70.77
  Q 31.13 70.75 28.09 70.15
  C 25.91 69.73 25.56 71.03 24.09 70.99
  Q 23.92 70.99 23.82 70.89
  Q 23.65 70.72 23.87 70.63
  L 27.40 69.16
  Q 24.24 63.49 22.74 61.76
  Q 21.34 60.15 17.83 57.74
  Q 17.39 57.44 17.38 57.16
  Q 17.36 56.78 17.87 56.41
  L 20.13 56.95
  A 0.29 0.29 0.0 0 0 20.46 56.53
  Q 18.26 52.57 17.05 48.24
  Q 16.93 47.80 16.71 47.41
  Q 15.95 46.02 15.47 47.00
  A 1.15 1.15 0.0 0 1 13.56 47.24
  Q 11.14 44.36 9.60 41.99
  Q 8.65 40.53 8.42 38.75
  Q 8.19 36.94 8.05 35.14
  Q 8.02 34.67 7.80 34.25
  Q 7.10 32.86 7.11 30.94
  Q 12.41 32.45 12.99 37.75
  L 17.93 40.82
  Q 19.44 41.76 18.56 40.21
  L 16.61 36.79
  A 1.28 1.24 1.6 0 0 16.17 36.34
  Q 14.99 35.63 14.18 34.56
  C 13.41 33.55 13.52 32.21 12.54 31.01
  C 12.00 27.14 12.01 21.63 9.31 18.51
  Q 8.81 17.93 9.57 18.02
  C 17.18 18.95 16.56 23.26 20.42 28.29
  Z
  M 87.2929 21.9965
  A 0.40 0.40 0.0 0 0 86.9524 21.5447
  L 86.6752 21.5057
  A 0.40 0.40 0.0 0 0 86.2234 21.8462
  L 85.3271 28.2235
  A 0.40 0.40 0.0 0 0 85.6676 28.6753
  L 85.9448 28.7143
  A 0.40 0.40 0.0 0 0 86.3966 28.3738
  L 87.2929 21.9965
  Z
  M 78.19 44.16
  L 72.56 51.28
  Q 72.22 51.72 72.58 52.15
  L 73.15 52.83
  A 0.36 0.36 0.0 0 0 73.73 52.80
  Q 76.19 49.23 78.41 45.78
  Q 78.87 45.06 78.74 44.30
  Q 78.62 43.61 78.19 44.16
  Z
  M 69.63 50.38
  Q 69.01 50.84 68.66 51.52
  Q 68.27 52.28 69.04 51.92
  L 70.19 51.39
  Q 70.71 51.14 70.62 50.58
  Q 70.56 50.18 70.18 49.96
  Q 69.89 49.81 69.69 50.07
  Q 69.60 50.20 69.63 50.38
  Z
  M 44.03 60.65
  C 39.89 60.03 37.59 54.68 34.97 52.54
  Q 33.93 51.69 34.44 52.93
  C 35.99 56.74 41.10 60.12 44.62 62.63
  Q 45.01 62.91 45.04 62.42
  Q 45.08 61.80 44.82 61.25
  Q 44.59 60.73 44.03 60.65
  Z
  M 55.91 61.07
  L 54.95 64.92
  Q 54.77 65.65 55.23 65.05
  Q 55.98 64.10 56.20 62.58
  C 59.25 60.67 65.38 56.21 66.33 52.67
  Q 66.60 51.67 65.88 52.41
  C 63.00 55.38 60.09 59.95 55.91 61.07
  Z
  M 28.11 61.15
  Q 32.62 64.31 37.51 66.84
  C 39.51 67.88 41.19 69.56 43.23 70.75
  Q 43.59 70.96 43.69 70.55
  Q 43.75 70.32 43.59 70.16
  C 40.47 67.08 36.42 66.43 33.39 63.62
  Q 28.43 59.00 23.56 54.40
  A 0.23 0.23 0.0 0 0 23.18 54.61
  L 23.99 58.86
  Q 24.10 59.41 24.77 59.86
  C 25.69 60.48 27.09 60.43 28.11 61.15
  Z
  M 66.25 64.92
  L 64.22 65.90
  Q 59.79 67.06 56.90 70.57
  Q 56.79 70.71 56.92 70.83
  L 57.15 71.05
  A 0.41 0.40 -41.2 0 0 57.66 71.08
  L 64.51 66.22
  Q 66.04 66.11 66.76 65.19
  L 75.47 60.11
  A 2.23 2.23 0.0 0 0 76.50 58.74
  L 77.50 54.80
  A 0.33 0.33 0.0 0 0 76.95 54.48
  L 66.25 64.92
  Z"
/>
<rect fill="#b93736" fill-opacity="0.996" x="-0.54" y="-3.62" transform="translate(86.31,25.11) rotate(8.0)" width="1.08" height="7.24" rx="0.40"/>
<path fill="#962a24" d="
  M 20.42 28.29
  Q 21.22 28.59 21.42 29.19
  Q 20.88 28.99 21.02 30.08
  C 21.23 31.79 23.20 35.12 23.88 36.78
  A 2.62 2.59 -87.9 0 0 25.13 38.14
  Q 27.32 39.26 29.72 38.12
  L 33.69 42.48
  Q 37.50 45.03 39.27 48.84
  Q 39.74 49.85 37.72 49.73
  L 32.37 44.02
  Q 31.70 43.61 30.95 43.77
  Q 30.49 43.86 30.56 44.32
  Q 30.64 44.88 30.03 45.04
  A 0.84 0.83 56.6 0 1 29.27 44.88
  L 26.44 42.55
  Q 25.59 40.25 23.62 39.08
  A 1.00 0.99 -41.6 0 0 22.71 39.03
  L 22.24 39.25
  L 22.44 38.89
  Q 22.65 38.52 22.50 38.12
  Q 22.02 36.80 21.27 35.64
  C 19.76 33.30 19.51 30.86 20.42 28.29
  Z"
/>
<path fill="#b93736" fill-opacity="0.996" d="
  M 7.11 30.94
  Q 7.10 32.86 7.80 34.25
  Q 8.02 34.67 8.05 35.14
  Q 8.19 36.94 8.42 38.75
  Q 8.65 40.53 9.60 41.99
  Q 11.14 44.36 13.56 47.24
  A 1.15 1.15 0.0 0 0 15.47 47.00
  Q 15.95 46.02 16.71 47.41
  Q 16.93 47.80 17.05 48.24
  Q 18.26 52.57 20.46 56.53
  A 0.29 0.29 0.0 0 1 20.13 56.95
  L 17.87 56.41
  Q 17.47 54.23 17.32 55.53
  C 17.75 52.86 14.55 51.52 12.74 50.32
  Q 10.95 49.13 10.07 47.40
  Q 6.47 40.37 4.61 32.74
  L 4.64 30.20
  Q 4.67 28.51 5.80 29.95
  Q 6.24 30.51 6.19 31.99
  Q 6.17 32.39 6.72 32.55
  Q 6.90 32.60 6.93 32.41
  L 7.11 30.94
  Z
  M 13.2912 48.6984
  A 1.60 0.49 36.8 0 0 12.3035 47.3476
  A 1.60 0.49 36.8 0 0 10.7288 46.7816
  A 1.60 0.49 36.8 0 0 11.7165 48.1324
  A 1.60 0.49 36.8 0 0 13.2912 48.6984
  Z"
/>
<path fill="#41161f" d="
  M 21.42 29.19
  L 29.72 38.12
  Q 27.32 39.26 25.13 38.14
  A 2.62 2.59 -87.9 0 1 23.88 36.78
  C 23.20 35.12 21.23 31.79 21.02 30.08
  Q 20.88 28.99 21.42 29.19
  Z"
/>
<path fill="#b93736" fill-opacity="0.996" d="
  M 96.42 30.21
  Q 94.46 39.46 90.13 47.79
  Q 89.22 49.54 87.39 50.76
  C 85.88 51.76 81.94 53.73 82.77 55.99
  Q 82.54 56.42 82.28 56.63
  Q 81.56 57.07 80.85 56.81
  Q 80.39 56.63 80.58 56.17
  L 84.47 46.54
  Q 84.86 45.57 85.17 46.54
  Q 85.20 46.64 85.00 47.00
  Q 84.79 47.37 85.14 47.59
  Q 85.49 47.81 86.00 47.52
  Q 89.29 45.64 90.67 42.28
  C 91.30 40.77 92.77 39.25 92.34 36.93
  Q 92.25 36.44 92.48 36.00
  Q 93.63 33.75 92.91 31.27
  Q 94.18 31.36 94.90 29.74
  Q 95.02 29.46 95.19 29.36
  Q 95.37 29.24 95.55 29.25
  Q 95.97 29.27 96.03 29.69
  Q 96.13 30.27 96.42 30.21
  Z
  M 89.5311 46.7925
  A 1.70 0.58 -41.1 0 0 87.8687 47.4729
  A 1.70 0.58 -41.1 0 0 86.9689 49.0275
  A 1.70 0.58 -41.1 0 0 88.6313 48.3471
  A 1.70 0.58 -41.1 0 0 89.5311 46.7925
  Z"
/>
<path fill="#962a24" d="
  M 72.96 43.52
  L 71.33 46.95
  Q 71.48 46.04 70.99 45.93
  Q 70.40 45.81 70.09 46.23
  L 70.10 44.79
  Q 70.10 44.25 69.57 44.14
  Q 68.89 44.01 68.54 44.66
  Q 68.42 44.01 68.25 44.12
  Q 64.98 46.46 62.72 50.00
  Q 61.48 50.19 61.01 50.02
  Q 59.81 49.59 60.60 48.60
  L 63.84 44.55
  C 67.14 41.86 69.05 39.87 71.58 36.46
  C 73.42 33.98 76.14 32.11 78.23 29.97
  Q 79.82 28.34 79.19 30.53
  Q 78.12 34.26 75.67 37.95
  C 74.50 39.71 73.66 41.66 72.44 43.45
  Q 72.35 43.58 72.37 43.76
  Q 72.38 43.81 72.38 43.85
  Q 72.38 43.92 72.42 43.87
  Q 72.58 43.64 72.96 43.52
  Z"
/>
<path fill="#b93736" fill-opacity="0.996" d="
  M 12.54 31.01
  C 13.52 32.21 13.41 33.55 14.18 34.56
  Q 14.99 35.63 16.17 36.34
  A 1.28 1.24 1.6 0 1 16.61 36.79
  L 18.56 40.21
  Q 19.44 41.76 17.93 40.82
  L 12.99 37.75
  Q 13.95 37.66 13.94 37.50
  Q 13.59 34.31 12.54 31.01
  Z"
/>
<path fill="#312127" d="
  M 34.68 38.62
  L 41.73 44.71
  Q 45.70 47.26 47.67 51.07
  L 42.39 50.17
  Q 42.37 47.68 39.67 45.19
  Q 37.33 42.26 33.85 40.25
  A 0.90 0.90 0.0 0 1 33.85 38.70
  Q 34.32 38.43 34.68 38.62
  Z"
/>
<path fill="#434553" d="
  M 34.68 38.62
  C 38.75 37.75 42.06 40.22 44.58 43.29
  Q 42.80 43.79 41.73 44.71
  L 34.68 38.62
  Z"
/>
<path fill="#b93736" fill-opacity="0.996" d="
  M 50.33 38.52
  C 50.86 41.01 49.04 40.52 48.70 41.97
  L 47.66 41.99
  Q 47.18 42.00 47.37 42.44
  L 49.25 46.73
  Q 49.51 47.32 49.73 46.71
  Q 50.18 45.46 50.08 44.01
  Q 50.13 44.58 50.48 44.69
  A 0.30 0.30 0.0 0 0 50.86 44.42
  L 50.92 43.52
  Q 50.78 45.19 51.26 46.56
  Q 51.53 47.34 51.71 46.54
  Q 52.31 43.98 54.13 42.34
  Q 53.94 41.89 54.45 42.73
  Q 53.46 44.04 53.56 45.07
  Q 51.84 48.08 52.53 49.91
  L 51.06 53.96
  Q 48.90 50.97 49.22 52.91
  L 47.53 48.26
  Q 48.64 47.85 47.27 45.04
  L 45.76 42.00
  Q 45.52 41.50 45.98 41.21
  L 50.33 38.52
  Z"
/>
<path fill="#ef7c4d" d="
  M 50.33 38.52
  L 54.67 41.23
  Q 55.16 41.53 54.93 42.06
  Q 54.78 42.39 54.45 42.73
  Q 53.94 41.89 54.13 42.34
  C 52.85 41.66 50.97 41.70 50.92 43.52
  L 50.86 44.42
  A 0.30 0.30 0.0 0 1 50.48 44.69
  Q 50.13 44.58 50.08 44.01
  Q 49.83 42.79 48.70 41.97
  C 49.04 40.52 50.86 41.01 50.33 38.52
  Z"
/>
<path fill="#434553" d="
  M 66.04 38.58
  L 58.92 44.90
  Q 58.83 43.91 58.00 43.84
  Q 57.18 43.78 57.03 43.71
  Q 56.49 43.44 56.34 42.95
  C 59.27 39.89 61.82 37.80 66.04 38.58
  Z"
/>
<path fill="#41161f" d="
  M 66.04 38.58
  Q 66.50 38.39 66.88 38.72
  A 1.02 1.02 0.0 0 1 66.64 40.41
  Q 63.95 41.65 62.21 44.07
  Q 58.18 46.89 57.89 51.61
  Q 57.86 52.12 57.51 52.49
  C 54.99 55.19 51.30 58.47 51.12 62.14
  Q 50.94 65.70 49.90 62.24
  C 48.86 58.80 47.73 57.33 44.80 54.44
  Q 42.85 52.53 42.39 50.17
  L 47.67 51.07
  L 50.05 58.68
  Q 50.25 59.32 50.69 58.81
  Q 51.75 57.56 50.48 56.24
  Q 49.84 55.58 49.22 52.91
  Q 48.90 50.97 51.06 53.96
  Q 51.02 54.52 51.04 54.88
  Q 51.15 56.60 51.59 54.93
  Q 52.25 52.44 53.67 49.93
  C 54.92 47.72 56.91 46.42 58.92 44.90
  L 66.04 38.58
  Z"
/>
<path fill="#888b9b" d="
  M 26.44 42.55
  Q 25.08 43.54 23.46 41.21
  Q 22.59 40.42 22.24 39.25
  L 22.71 39.03
  A 1.00 0.99 -41.6 0 1 23.62 39.08
  Q 25.59 40.25 26.44 42.55
  Z"
/>
<path fill="#434553" d="
  M 23.46 41.21
  Q 25.08 43.54 26.44 42.55
  L 29.27 44.88
  A 0.84 0.83 56.6 0 0 30.03 45.04
  Q 30.64 44.88 30.56 44.32
  Q 30.49 43.86 30.95 43.77
  Q 31.70 43.61 32.37 44.02
  Q 31.79 44.53 32.09 44.43
  Q 31.64 44.45 31.19 44.17
  Q 30.77 43.92 30.65 44.38
  Q 30.48 45.01 30.68 46.00
  Q 30.19 45.84 29.76 45.88
  Q 29.00 45.96 29.43 46.58
  L 30.31 47.86
  Q 30.76 48.51 31.02 47.76
  Q 31.16 47.36 31.06 46.79
  L 31.95 51.22
  Q 31.65 50.80 31.32 50.68
  Q 31.01 50.57 30.71 50.78
  Q 30.35 51.04 30.45 51.42
  Q 29.00 51.04 28.28 51.75
  L 24.35 47.29
  Q 23.89 46.03 22.90 44.66
  Q 22.72 44.42 22.55 44.40
  Q 22.32 44.36 22.25 44.73
  A 0.08 0.08 0.0 0 1 22.09 44.74
  Q 21.51 43.17 22.95 42.63
  Q 23.50 42.43 23.48 41.85
  L 23.46 41.21
  Z"
/>
<path fill="#fdb555" d="
  M 34.10 41.84
  L 39.67 45.19
  Q 42.37 47.68 42.39 50.17
  Q 42.85 52.53 44.80 54.44
  C 47.73 57.33 48.86 58.80 49.90 62.24
  Q 50.94 65.70 51.12 62.14
  C 51.30 58.47 54.99 55.19 57.51 52.49
  Q 57.86 52.12 57.89 51.61
  Q 58.18 46.89 62.21 44.07
  L 63.73 43.29
  Q 63.99 43.79 63.84 44.55
  L 60.60 48.60
  Q 59.81 49.59 61.01 50.02
  Q 61.48 50.19 62.72 50.00
  L 62.11 51.99
  L 62.10 51.56
  A 0.34 0.34 0.0 0 0 61.57 51.29
  Q 59.78 52.57 58.23 54.10
  C 56.18 56.13 53.93 56.47 54.70 60.39
  Q 51.85 66.27 51.34 72.54
  A 1.00 1.00 0.0 0 1 49.70 73.23
  Q 49.19 72.80 49.04 71.75
  C 48.26 66.22 48.17 62.62 44.73 59.21
  Q 45.65 58.43 44.87 57.12
  Q 44.14 55.91 42.35 55.19
  Q 41.83 54.99 41.55 54.51
  Q 40.87 53.39 39.78 52.64
  A 0.41 0.41 0.0 0 0 39.14 53.01
  L 39.36 55.61
  L 38.49 54.12
  Q 39.48 53.63 38.65 51.99
  Q 38.11 50.91 37.72 49.73
  Q 39.74 49.85 39.27 48.84
  Q 37.50 45.03 33.69 42.48
  L 34.10 41.84
  Z"
/>
<path fill="#41161f" d="
  M 48.70 41.97
  Q 49.83 42.79 50.08 44.01
  Q 50.18 45.46 49.73 46.71
  Q 49.51 47.32 49.25 46.73
  L 47.37 42.44
  Q 47.18 42.00 47.66 41.99
  L 48.70 41.97
  Z"
/>
<path fill="#312127" d="
  M 54.13 42.34
  Q 52.31 43.98 51.71 46.54
  Q 51.53 47.34 51.26 46.56
  Q 50.78 45.19 50.92 43.52
  C 50.97 41.70 52.85 41.66 54.13 42.34
  Z"
/>
<path fill="#888b9b" d="
  M 56.34 42.95
  Q 56.49 43.44 57.03 43.71
  Q 57.18 43.78 58.00 43.84
  Q 58.83 43.91 58.92 44.90
  C 56.91 46.42 54.92 47.72 53.67 49.93
  Q 52.25 52.44 51.59 54.93
  Q 51.15 56.60 51.04 54.88
  Q 51.02 54.52 51.06 53.96
  L 52.53 49.91
  L 54.73 45.94
  Q 55.61 45.15 55.53 43.94
  L 56.34 42.95
  Z"
/>
<path fill="#888b9b" d="
  M 44.58 43.29
  Q 44.98 43.55 45.20 43.98
  Q 45.86 46.17 47.53 48.26
  L 49.22 52.91
  Q 49.84 55.58 50.48 56.24
  Q 51.75 57.56 50.69 58.81
  Q 50.25 59.32 50.05 58.68
  L 47.67 51.07
  Q 45.70 47.26 41.73 44.71
  Q 42.80 43.79 44.58 43.29
  Z"
/>
<path fill="#b93736" fill-opacity="0.996" d="
  M 72.56 51.28
  L 78.19 44.16
  Q 78.62 43.61 78.74 44.30
  Q 78.87 45.06 78.41 45.78
  Q 76.19 49.23 73.73 52.80
  A 0.36 0.36 0.0 0 1 73.15 52.83
  L 72.58 52.15
  Q 72.22 51.72 72.56 51.28
  Z"
/>
<path fill="#d0ada0" d="
  M 32.37 44.02
  L 37.72 49.73
  Q 38.11 50.91 38.65 51.99
  Q 39.48 53.63 38.49 54.12
  C 36.40 50.53 35.69 47.50 32.09 44.43
  Q 31.79 44.53 32.37 44.02
  Z"
/>
<path fill="#312127" d="
  M 45.20 43.98
  L 47.27 45.04
  Q 48.64 47.85 47.53 48.26
  Q 45.86 46.17 45.20 43.98
  Z"
/>
<path fill="#434553" d="
  M 55.53 43.94
  Q 55.61 45.15 54.73 45.94
  Q 55.04 45.29 54.77 44.42
  Q 55.05 44.00 55.53 43.94
  Z"
/>
<path fill="#d0ada0" d="
  M 68.54 44.66
  C 64.67 47.90 63.93 51.78 61.22 55.72
  Q 60.89 53.87 62.11 51.99
  L 62.72 50.00
  Q 64.98 46.46 68.25 44.12
  Q 68.42 44.01 68.54 44.66
  Z"
/>
<path fill="#312127" d="
  M 54.77 44.42
  Q 55.04 45.29 54.73 45.94
  L 52.53 49.91
  Q 51.84 48.08 53.56 45.07
  Q 54.03 44.96 54.77 44.42
  Z"
/>
<path fill="#d0ada0" d="
  M 30.68 46.00
  Q 30.72 46.39 31.06 46.79
  Q 31.16 47.36 31.02 47.76
  Q 30.76 48.51 30.31 47.86
  L 29.43 46.58
  Q 29.00 45.96 29.76 45.88
  Q 30.19 45.84 30.68 46.00
  Z"
/>
<path fill="#d0ada0" d="
  M 71.33 46.95
  Q 70.96 47.60 70.56 47.87
  Q 70.02 48.25 69.77 47.64
  Q 69.53 47.06 70.09 46.23
  Q 70.40 45.81 70.99 45.93
  Q 71.48 46.04 71.33 46.95
  Z"
/>
<ellipse fill="#962a24" cx="0.00" cy="0.00" transform="translate(12.01,47.74) rotate(36.8)" rx="1.60" ry="0.49"/>
<ellipse fill="#962a24" cx="0.00" cy="0.00" transform="translate(88.25,47.91) rotate(-41.1)" rx="1.70" ry="0.58"/>
<path fill="#b93736" fill-opacity="0.996" d="
  M 24.35 47.29
  L 28.28 51.75
  L 27.97 52.57
  A 0.68 0.68 0.0 0 1 26.79 52.74
  Q 25.76 51.39 25.09 49.68
  Q 24.72 48.75 24.35 47.29
  Z"
/>
<path fill="#888b9b" d="
  M 69.63 50.38
  Q 69.60 50.20 69.69 50.07
  Q 69.89 49.81 70.18 49.96
  Q 70.56 50.18 70.62 50.58
  Q 70.71 51.14 70.19 51.39
  L 69.04 51.92
  Q 68.27 52.28 68.66 51.52
  Q 69.01 50.84 69.63 50.38
  Z"
/>
<path fill="#888b9b" d="
  M 31.95 51.22
  L 32.14 51.56
  Q 32.42 52.05 31.86 52.00
  Q 31.15 51.95 30.45 51.42
  Q 30.35 51.04 30.71 50.78
  Q 31.01 50.57 31.32 50.68
  Q 31.65 50.80 31.95 51.22
  Z"
/>
<path fill="#ef7c4d" d="
  M 62.11 51.99
  Q 60.89 53.87 61.22 55.72
  Q 60.44 57.90 57.03 58.56
  A 1.23 1.21 -70.8 0 0 56.40 58.87
  L 54.70 60.39
  C 53.93 56.47 56.18 56.13 58.23 54.10
  Q 59.78 52.57 61.57 51.29
  A 0.34 0.34 0.0 0 1 62.10 51.56
  L 62.11 51.99
  Z"
/>
<path fill="#d0ada0" d="
  M 34.97 52.54
  C 37.59 54.68 39.89 60.03 44.03 60.65
  Q 44.59 60.73 44.82 61.25
  Q 45.08 61.80 45.04 62.42
  Q 45.01 62.91 44.62 62.63
  C 41.10 60.12 35.99 56.74 34.44 52.93
  Q 33.93 51.69 34.97 52.54
  Z"
/>
<path fill="#d0ada0" d="
  M 56.20 62.58
  Q 55.71 62.43 55.91 61.07
  C 60.09 59.95 63.00 55.38 65.88 52.41
  Q 66.60 51.67 66.33 52.67
  C 65.38 56.21 59.25 60.67 56.20 62.58
  Z"
/>
<path fill="#ef7c4d" d="
  M 44.73 59.21
  Q 39.67 57.67 39.36 55.61
  L 39.14 53.01
  A 0.41 0.41 0.0 0 1 39.78 52.64
  Q 40.87 53.39 41.55 54.51
  Q 41.83 54.99 42.35 55.19
  Q 44.14 55.91 44.87 57.12
  Q 45.65 58.43 44.73 59.21
  Z"
/>
<path fill="#ef7c4d" d="
  M 28.11 61.15
  C 27.09 60.43 25.69 60.48 24.77 59.86
  Q 24.10 59.41 23.99 58.86
  L 23.18 54.61
  A 0.23 0.23 0.0 0 1 23.56 54.40
  Q 28.43 59.00 33.39 63.62
  C 36.42 66.43 40.47 67.08 43.59 70.16
  Q 43.75 70.32 43.69 70.55
  Q 43.59 70.96 43.23 70.75
  C 41.19 69.56 39.51 67.88 37.51 66.84
  Q 32.62 64.31 28.11 61.15
  Z"
/>
<path fill="#ef7c4d" d="
  M 66.76 65.19
  Q 66.37 65.21 66.25 64.92
  L 76.95 54.48
  A 0.33 0.33 0.0 0 1 77.50 54.80
  L 76.50 58.74
  A 2.23 2.23 0.0 0 1 75.47 60.11
  L 66.76 65.19
  Z"
/>
<path fill="#de2416" d="
  M 17.87 56.41
  Q 17.36 56.78 17.38 57.16
  Q 17.39 57.44 17.83 57.74
  Q 21.34 60.15 22.74 61.76
  Q 24.24 63.49 27.40 69.16
  Q 22.73 65.87 20.40 61.06
  A 1.70 1.68 4.5 0 0 19.81 60.38
  Q 18.47 59.49 17.12 58.59
  Q 16.06 57.88 16.07 57.24
  Q 16.08 56.40 17.32 55.53
  Q 17.47 54.23 17.87 56.41
  Z"
/>
<path fill="#de2416" d="
  M 82.77 55.99
  Q 84.10 56.67 84.07 57.69
  A 0.96 0.94 -14.5 0 1 83.58 58.50
  Q 79.89 60.57 77.83 64.16
  C 76.65 66.21 75.42 67.36 73.86 68.89
  Q 73.50 69.25 73.55 69.77
  Q 73.60 70.25 73.12 70.39
  C 68.80 71.65 65.57 70.86 60.69 73.41
  Q 61.13 71.37 65.09 70.38
  Q 68.50 69.53 70.95 69.68
  Q 71.44 69.71 71.79 69.38
  C 76.05 65.49 77.96 61.11 82.82 57.80
  A 0.70 0.70 0.0 0 0 82.77 56.61
  Q 82.70 56.57 82.28 56.63
  Q 82.54 56.42 82.77 55.99
  Z"
/>
<path fill="#888b9b" d="
  M 55.91 61.07
  Q 55.71 62.43 56.20 62.58
  Q 55.98 64.10 55.23 65.05
  Q 54.77 65.65 54.95 64.92
  L 55.91 61.07
  Z"
/>
<path fill="#434553" d="
  M 66.25 64.92
  Q 66.37 65.21 66.76 65.19
  Q 66.04 66.11 64.51 66.22
  Q 64.56 65.92 64.22 65.90
  L 66.25 64.92
  Z"
/>
<path fill="#888b9b" d="
  M 64.22 65.90
  Q 64.56 65.92 64.51 66.22
  L 57.66 71.08
  A 0.41 0.40 -41.2 0 1 57.15 71.05
  L 56.92 70.83
  Q 56.79 70.71 56.90 70.57
  Q 59.79 67.06 64.22 65.90
  Z"
/>
</svg>
