<svg width="800" height="400" viewBox="0 0 800 400" xmlns="http://www.w3.org/2000/svg"><mask id="satori_om-id"><rect x="0" y="0" width="800" height="400" fill="#fff"/></mask><rect x="0" y="0" width="800" height="400" fill="white"/><mask id="satori_om-id-0"><rect x="42" y="42" width="0" height="0" fill="#fff"/></mask><mask id="satori_om-id-1"><rect x="120" y="58" width="560" height="108" fill="#fff"/></mask><rect x="120" y="58" width="560" height="108" fill="black"/><path fill="white" d="M198.2 129.3L198.2 112.2L223.8 112.2L223.8 129.2L220.6 129.2L220.6 127.5L201.3 127.5L201.3 129.3L198.2 129.3ZM201.3 124.6L220.6 124.6L220.6 115.1L201.3 115.1L201.3 124.6ZM206.3 92.3L206.3 92.3L209.6 93.5Q208.4 95.8 206.9 98.3Q205.5 100.8 204 103.1L204 103.1Q203.6 103.8 203.1 104.4L203.1 104.4Q205.4 104.3 207.8 104.2L207.8 104.2Q211.9 104.1 216.3 103.9L216.3 103.9Q218.7 103.7 221.2 103.7L221.2 103.7Q220.6 103.1 220.0 102.5L220.0 102.5Q218.0 100.5 215.9 98.8L215.9 98.8L218.3 97.1Q220.3 98.7 222.4 100.6Q224.6 102.6 226.3 104.6Q228.1 106.7 229.2 108.3L229.2 108.3L226.6 110.3Q225.6 108.7 223.9 106.6L223.9 106.6Q223.8 106.5 223.7 106.4L223.7 106.4Q220 106.7 216.2 106.8L216.2 106.8Q212.0 107.0 207.9 107.2Q203.8 107.4 200.2 107.5Q196.6 107.7 193.8 107.8L193.8 107.8L193.5 104.7Q196.2 104.7 199.6 104.5L199.6 104.5Q200.4 103.3 201.3 101.9L201.3 101.9Q202.8 99.5 204.1 97.0Q205.4 94.5 206.3 92.3ZM250.2 129.3L250.2 94.1L267.2 94.1L267.2 101.8Q267.2 102.9 266.8 103.5Q266.5 104.2 265.6 104.5L265.6 104.5Q264.6 104.8 263.1 104.9Q261.5 104.9 259.2 104.9L259.2 104.9Q259.2 104.3 258.9 103.6Q258.6 102.9 258.3 102.4L258.3 102.4Q259.5 102.4 260.6 102.4Q261.6 102.5 262.4 102.4Q263.2 102.4 263.5 102.4L263.5 102.4Q264.0 102.4 264.1 102.3Q264.2 102.1 264.2 101.8L264.2 101.8L264.2 96.9L253 96.9L253 107.7L266.0 107.7L266.6 107.5L268.3 108.2Q267.3 113.3 265.4 117.3L265.4 117.3Q264.2 119.7 262.8 121.7L262.8 121.7Q263.3 122.3 263.8 122.8L263.8 122.8Q266.4 125.5 269.5 127.0L269.5 127.0Q269 127.4 268.4 128.1Q267.9 128.8 267.5 129.3L267.5 129.3Q264.3 127.5 261.7 124.6L261.7 124.6Q261.4 124.3 261.0 123.9L261.0 123.9Q260.9 124.1 260.7 124.3L260.7 124.3Q258.0 127.2 254.9 129.0L254.9 129.0Q254.7 128.5 254.2 127.9Q253.6 127.2 253.2 126.8L253.2 126.8Q256.0 125.3 258.5 122.6L258.5 122.6Q258.9 122.1 259.3 121.7L259.3 121.7Q258.1 119.9 257.1 118.0L257.1 118.0Q255.2 114.4 254 110.4L254 110.4L253 110.4L253 129.3L250.2 129.3ZM235 108.3L235 93.9L246.6 93.9L246.6 125.7Q246.6 126.9 246.3 127.6Q246 128.3 245.2 128.7L245.2 128.7Q244.5 129.1 243.2 129.2Q241.9 129.3 239.9 129.3L239.9 129.3Q239.8 128.9 239.7 128.4Q239.6 127.8 239.4 127.3Q239.2 126.8 239.0 126.4L239.0 126.4Q240.4 126.4 241.6 126.4Q242.7 126.4 243.1 126.4L243.1 126.4Q243.5 126.4 243.7 126.2Q243.8 126.1 243.8 125.6L243.8 125.6L243.8 115.7L237.5 115.7Q237.4 117.3 237.2 118.9L237.2 118.9Q236.8 121.7 236.2 124.4Q235.6 127.1 234.5 129.3L234.5 129.3Q234.2 129.1 233.8 128.8Q233.4 128.5 232.9 128.3Q232.4 128.0 232.0 127.9L232.0 127.9Q233.1 125.8 233.7 123.3Q234.2 120.8 234.5 118.2Q234.8 115.6 234.9 113.0Q235 110.5 235 108.3L235 108.3ZM265.0 110.4L256.6 110.4Q257.7 113.7 259.4 116.7L259.4 116.7Q260.1 118.1 261 119.4L261 119.4Q262 117.9 262.8 116.2L262.8 116.2Q264.2 113.5 265.0 110.4L265.0 110.4ZM243.8 106.1L237.7 106.1L237.7 108.3Q237.7 110.4 237.6 112.9L237.6 112.9L243.8 112.9L243.8 106.1ZM243.8 96.7L237.7 96.7L237.7 103.3L243.8 103.3L243.8 96.7ZM294.6 105.3L288.7 105.3Q288.5 103.6 287.2 102.7Q285.9 101.7 283.7 101.7L283.7 101.7Q282.2 101.7 281.2 102.1Q280.1 102.6 279.6 103.3Q279.0 104.0 279.0 105.0L279.0 105.0Q279.0 105.8 279.4 106.3Q279.7 106.9 280.4 107.3Q281.0 107.8 281.8 108.1Q282.7 108.4 283.6 108.6L283.6 108.6L286.2 109.2Q288.1 109.6 289.7 110.3Q291.3 111.1 292.5 112.1Q293.7 113.1 294.3 114.5Q294.9 115.9 295.0 117.8L295.0 117.8Q294.9 120.4 293.6 122.4Q292.3 124.3 289.7 125.4Q287.2 126.5 283.7 126.5L283.7 126.5Q280.1 126.5 277.5 125.4Q274.9 124.3 273.5 122.2Q272.0 120.1 272.0 116.9L272.0 116.9L277.9 116.9Q278.0 118.4 278.7 119.4Q279.5 120.3 280.8 120.8Q282.0 121.3 283.6 121.3L283.6 121.3Q285.2 121.3 286.3 120.9Q287.5 120.4 288.1 119.6Q288.8 118.8 288.8 117.7L288.8 117.7Q288.8 116.8 288.2 116.1Q287.6 115.4 286.5 115.0Q285.4 114.5 283.8 114.1L283.8 114.1L280.6 113.3Q277.0 112.4 274.8 110.5Q272.7 108.6 272.7 105.4L272.7 105.4Q272.7 102.7 274.1 100.8Q275.6 98.8 278.1 97.7Q280.6 96.6 283.7 96.6L283.7 96.6Q287.0 96.6 289.4 97.7Q291.8 98.8 293.2 100.8Q294.5 102.7 294.6 105.3L294.6 105.3ZM318.4 126.1L298.8 126.1L298.8 97.0L318.4 97.0L318.4 102.0L304.9 102.0L304.9 109.0L317.4 109.0L317.4 114.1L304.9 114.1L304.9 121.0L318.4 121.0L318.4 126.1ZM330.7 102.0L321.8 102.0L321.8 97.0L345.7 97.0L345.7 102.0L336.8 102.0L336.8 126.1L330.7 126.1L330.7 102.0ZM359.7 96.6L359.7 96.6Q362.0 96.6 364.0 97.3Q366.1 98.1 367.8 99.7Q369.4 101.4 370.4 104.1Q371.3 106.8 371.3 110.8L371.3 110.8Q371.3 114.5 370.5 117.4Q369.7 120.3 368.1 122.3Q366.6 124.4 364.4 125.4Q362.2 126.5 359.5 126.5L359.5 126.5Q356.6 126.5 354.4 125.3Q352.1 124.2 350.8 122.3Q349.4 120.3 349.1 117.9L349.1 117.9L355.2 117.9Q355.6 119.4 356.7 120.3Q357.8 121.2 359.5 121.2L359.5 121.2Q362.3 121.2 363.8 118.7Q365.3 116.2 365.3 111.9L365.3 111.9L365.1 111.9Q364.5 113.2 363.3 114.1Q362.2 115.0 360.8 115.5Q359.4 116.0 357.8 116.0L357.8 116.0Q355.2 116.0 353.2 114.8Q351.2 113.6 350.0 111.5Q348.8 109.4 348.8 106.7L348.8 106.7Q348.8 103.7 350.2 101.5Q351.6 99.2 354.0 97.9Q356.5 96.6 359.7 96.6ZM359.8 101.4L359.8 101.4Q358.3 101.4 357.2 102.1Q356.1 102.8 355.4 103.9Q354.8 105.1 354.8 106.5L354.8 106.5Q354.8 107.9 355.4 109.1Q356.1 110.2 357.2 110.9Q358.3 111.6 359.7 111.6L359.7 111.6Q360.8 111.6 361.7 111.2Q362.6 110.8 363.3 110.1Q363.9 109.4 364.3 108.4Q364.7 107.5 364.7 106.5L364.7 106.5Q364.7 105.1 364.0 104.0Q363.4 102.8 362.3 102.1Q361.2 101.4 359.8 101.4ZM378.9 126.4L378.9 126.4Q377.5 126.4 376.5 125.4Q375.5 124.4 375.5 123.0L375.5 123.0Q375.5 121.6 376.5 120.6Q377.5 119.6 378.9 119.6L378.9 119.6Q380.2 119.6 381.3 120.6Q382.3 121.6 382.3 123.0L382.3 123.0Q382.3 124.0 381.8 124.7Q381.3 125.5 380.6 126.0Q379.8 126.4 378.9 126.4ZM397.5 126.5L397.5 126.5Q394.5 126.5 392.1 125.4Q389.8 124.3 388.4 122.3Q387.0 120.4 387.0 117.8L387.0 117.8L392.9 117.8Q393.0 119.5 394.3 120.6Q395.7 121.6 397.5 121.6L397.5 121.6Q398.9 121.6 400.0 121.0Q401.2 120.3 401.8 119.2Q402.4 118.0 402.4 116.5L402.4 116.5Q402.4 115.0 401.8 113.8Q401.1 112.7 400.0 112.0Q398.9 111.4 397.4 111.3L397.4 111.3Q396.1 111.3 394.9 111.9Q393.7 112.4 393.0 113.3L393.0 113.3L387.6 112.3L389.0 97.0L406.7 97.0L406.7 102.0L394.0 102.0L393.3 109.3L393.4 109.3Q394.2 108.2 395.8 107.5Q397.3 106.8 399.2 106.8L399.2 106.8Q401.9 106.8 403.9 108.0Q406.0 109.3 407.2 111.4Q408.4 113.6 408.3 116.4L408.3 116.4Q408.4 119.3 407.0 121.6Q405.6 123.9 403.2 125.2Q400.7 126.5 397.5 126.5ZM417.4 110.5L417.4 107.6L442.4 107.6L442.4 108.5Q442.4 108.8 442.4 109.0L442.4 109.0Q442.2 113.7 441.9 117.0Q441.7 120.2 441.4 122.4Q441.1 124.5 440.8 125.8Q440.4 127.0 439.8 127.6L439.8 127.6Q439.2 128.3 438.5 128.6Q437.8 128.9 436.8 129.0L436.8 129.0Q435.8 129.1 434.0 129.1Q432.3 129.1 430.4 128.9L430.4 128.9Q430.4 128.3 430.1 127.4Q429.8 126.6 429.4 125.9L429.4 125.9Q431.4 126.1 433.0 126.2Q434.7 126.2 435.4 126.2L435.4 126.2Q436.0 126.2 436.4 126.1Q436.8 126.0 437.1 125.7L437.1 125.7Q437.7 125.1 438.1 123.3Q438.5 121.4 438.8 117.7L438.8 117.7Q439.0 114.9 439.2 110.5L439.2 110.5L428.9 110.5Q428.6 112.7 428.1 114.8L428.1 114.8Q427.4 117.9 425.9 120.7Q424.4 123.5 421.8 125.7Q419.2 127.9 415.0 129.5L415.0 129.5Q414.8 129.1 414.4 128.6Q414.1 128.1 413.7 127.6Q413.4 127.1 413.0 126.8L413.0 126.8Q416.9 125.5 419.3 123.6Q421.8 121.6 423.1 119.1Q424.4 116.7 425.0 114.0L425.0 114.0Q425.4 112.3 425.6 110.5L425.6 110.5L417.4 110.5ZM422.9 93.3L422.9 93.3L426.1 94.2Q424.6 97.5 422.7 100.6Q420.7 103.7 418.3 106.3Q416.0 108.8 413.5 110.7L413.5 110.7Q413.2 110.4 412.7 110.0Q412.2 109.5 411.7 109.1Q411.2 108.7 410.9 108.4L410.9 108.4Q413.4 106.7 415.7 104.3Q418.0 102.0 419.8 99.2Q421.7 96.3 422.9 93.3ZM434.0 94.3L436.9 93.2Q437.8 95.2 439.2 97.3Q440.6 99.4 442.3 101.3Q443.9 103.3 445.7 104.9Q447.4 106.6 449.0 107.7L449.0 107.7Q448.6 108.1 448.1 108.5Q447.6 109.0 447.2 109.5Q446.8 109.9 446.5 110.4L446.5 110.4Q444.8 109.0 443.1 107.2Q441.4 105.4 439.7 103.3Q438.1 101.1 436.6 98.9Q435.2 96.6 434.0 94.3L434.0 94.3ZM469.1 125.4L469.1 94.7L485.2 94.7L485.2 125.4L488.3 125.4L488.3 128.1L464.9 128.1L464.9 125.4L469.1 125.4ZM457.4 92.5L457.4 92.5L460.1 93.5Q459.4 94.9 458.5 96.5Q457.6 98.1 456.8 99.6L456.8 99.6Q456.2 100.7 455.6 101.6L455.6 101.6Q456.4 102.4 457.0 103.1L457.0 103.1Q457.6 103.8 458.0 104.3L458.0 104.3Q458.0 104.3 458.1 104.2L458.1 104.2Q459.3 102.3 460.4 100.5Q461.5 98.6 462.3 97.0L462.3 97.0L464.9 98.1Q463.5 100.4 461.8 102.9Q460.1 105.4 458.4 107.8L458.4 107.8Q457.5 109.1 456.6 110.1L456.6 110.1Q457.0 110.1 457.5 110.1L457.5 110.1Q460.2 110.0 463.0 109.9L463.0 109.9Q462.8 109.5 462.6 109.1L462.6 109.1Q461.8 107.6 461.0 106.3L461.0 106.3L463.2 105.3Q464.1 106.7 464.9 108.1Q465.7 109.6 466.3 111.0Q467.0 112.4 467.2 113.5L467.2 113.5L464.9 114.7Q464.6 113.6 464.0 112.3L464.0 112.3Q462.3 112.5 460.6 112.5L460.6 112.5L460.6 129.3L457.9 129.3L457.9 112.7Q457.8 112.7 457.8 112.7L457.8 112.7Q454.2 112.9 451.3 113.1L451.3 113.1L451.1 110.3Q452.3 110.3 453.8 110.3L453.8 110.3Q454.7 109.1 455.6 107.8L455.6 107.8Q456.0 107.2 456.4 106.7L456.4 106.7Q456.0 106.1 455.4 105.3L455.4 105.3Q454.5 104.2 453.4 103.0Q452.2 101.9 451.2 100.9L451.2 100.9L452.6 98.9Q453.2 99.4 453.9 100.0L453.9 100.0Q454.2 99.3 454.6 98.5L454.6 98.5Q455.4 97.0 456.2 95.4Q457.0 93.8 457.4 92.5ZM472.0 117.7L472.0 125.4L482.2 125.4L482.2 117.7L472.0 117.7ZM472.0 114.9L482.2 114.9L482.2 107.6L472.0 107.6L472.0 114.9ZM472.0 104.8L482.2 104.8L482.2 97.5L472.0 97.5L472.0 104.8ZM453.3 115.3L453.3 115.3L455.8 115.8Q455.4 118.6 454.7 121.4Q454.0 124.1 453.0 126.0L453.0 126.0Q452.8 125.8 452.3 125.6Q451.9 125.4 451.5 125.2Q451.0 125.0 450.6 124.9L450.6 124.9Q451.7 123.0 452.3 120.5Q452.9 117.9 453.3 115.3ZM462.0 115.9L462.0 115.9L464.3 115.1Q465.2 117.0 465.9 119.1Q466.7 121.3 467.0 122.9L467.0 122.9L464.6 123.7Q464.3 122.1 463.6 119.9Q462.8 117.7 462.0 115.9ZM500.7 101.4L500.7 99.4L507.8 99.4L507.8 96.4Q507.3 96.4 506.8 96.5L506.8 96.5Q504.0 96.7 501.5 96.8L501.5 96.8Q501.4 96.4 501.2 95.7Q501.0 95.1 500.8 94.7L500.8 94.7Q503.3 94.5 506.0 94.2Q508.7 93.9 511.2 93.5Q513.6 93.2 515.4 92.7L515.4 92.7L516.9 94.9Q514.9 95.5 512.3 95.8L512.3 95.8Q511.3 96.0 510.2 96.1L510.2 96.1L510.2 99.4L517.9 99.4L517.9 101.9L510.2 101.9L510.2 104.6L516.6 104.6L516.6 116.0L510.2 116.0L510.2 118.6L516.8 118.6L516.8 121.0L510.2 121.0L510.2 124.0Q510.7 124.0 511.1 123.9L511.1 123.9Q514.2 123.7 517.4 123.5L517.4 123.5L517.4 125.8Q514.4 126.1 511.4 126.3Q508.4 126.6 505.6 126.8Q502.8 127.0 500.5 127.2L500.5 127.2L500.2 124.7Q502.3 124.5 505.2 124.3L505.2 124.3Q506.4 124.3 507.8 124.2L507.8 124.2L507.8 121.0L501.3 121.0L501.3 118.6L507.8 118.6L507.8 116.0L501.4 116.0L501.4 104.6L507.8 104.6L507.8 101.9L500.7 101.9L500.7 101.5Q499.6 103.8 498.1 106.1L498.1 106.1Q498.0 106.3 498.0 106.4L498.0 106.4L498.0 129.2L495.2 129.2L495.2 110.4Q495.1 110.5 495.0 110.6L495.0 110.6Q493.4 112.8 491.7 114.4L491.7 114.4Q491.6 114.1 491.3 113.6Q491.0 113.1 490.6 112.6Q490.3 112.1 490.0 111.8L490.0 111.8Q492.2 109.7 494.4 106.6Q496.6 103.6 498.1 100.5L498.1 100.5L500.7 101.4ZM517.5 107.7L517.5 104.9L528.0 104.9L528.0 107.7L524.5 107.7L524.5 125.8Q524.5 127.0 524.3 127.7Q524.0 128.4 523.2 128.7L523.2 128.7Q522.4 129.1 521.2 129.2Q519.9 129.3 518.1 129.3L518.1 129.3Q518.0 128.7 517.8 127.9Q517.6 127.1 517.2 126.4L517.2 126.4Q518.6 126.5 519.6 126.5L519.6 126.5L521.1 126.5Q521.4 126.4 521.5 126.3Q521.7 126.2 521.7 125.8L521.7 125.8L521.7 107.7L517.5 107.7ZM497.2 92.5L497.2 92.5L500.0 93.5Q498.5 95.9 496.4 98.4Q494.2 100.9 492.0 102.7L492.0 102.7Q491.9 102.4 491.6 102.0Q491.3 101.5 491.0 101.1Q490.7 100.7 490.4 100.4L490.4 100.4Q491.7 99.4 493.0 98.0Q494.3 96.7 495.4 95.2Q496.6 93.7 497.2 92.5ZM518.0 97.5L518.0 94.8L527.2 94.8L527.2 97.5L518.0 97.5ZM507.8 111.2L503.6 111.2L503.6 114.1L507.8 114.1L507.8 111.2ZM514.3 111.2L510.2 111.2L510.2 114.1L514.3 114.1L514.3 111.2ZM507.8 106.6L503.6 106.6L503.6 109.3L507.8 109.3L507.8 106.6ZM514.3 106.6L510.2 106.6L510.2 109.3L514.3 109.3L514.3 106.6ZM536.5 110.5L536.5 107.6L561.5 107.6L561.5 108.5Q561.5 108.8 561.4 109.0L561.4 109.0Q561.2 113.7 561.0 117.0Q560.8 120.2 560.5 122.4Q560.2 124.5 559.8 125.8Q559.4 127.0 558.9 127.6L558.9 127.6Q558.3 128.3 557.6 128.6Q556.8 128.9 555.8 129.0L555.8 129.0Q554.8 129.1 553.1 129.1Q551.3 129.1 549.4 128.9L549.4 128.9Q549.4 128.3 549.1 127.4Q548.9 126.6 548.4 125.9L548.4 125.9Q550.4 126.1 552.1 126.2Q553.8 126.2 554.5 126.2L554.5 126.2Q555.1 126.2 555.5 126.1Q555.9 126.0 556.2 125.7L556.2 125.7Q556.8 125.1 557.1 123.3Q557.5 121.4 557.8 117.7L557.8 117.7Q558.0 114.9 558.2 110.5L558.2 110.5L547.9 110.5Q547.6 112.7 547.1 114.8L547.1 114.8Q546.4 117.9 544.9 120.7Q543.4 123.5 540.8 125.7Q538.2 127.9 534.0 129.5L534.0 129.5Q533.8 129.1 533.5 128.6Q533.2 128.1 532.8 127.6Q532.4 127.1 532.0 126.8L532.0 126.8Q536.0 125.5 538.4 123.6Q540.8 121.6 542.1 119.1Q543.4 116.7 544.0 114.0L544.0 114.0Q544.4 112.3 544.7 110.5L544.7 110.5L536.5 110.5ZM542.0 93.3L542.0 93.3L545.2 94.2Q543.7 97.5 541.7 100.6Q539.7 103.7 537.4 106.3Q535.0 108.8 532.5 110.7L532.5 110.7Q532.2 110.4 531.8 110.0Q531.3 109.5 530.8 109.1Q530.3 108.7 529.9 108.4L529.9 108.4Q532.5 106.7 534.8 104.3Q537.0 102.0 538.9 99.2Q540.7 96.3 542.0 93.3ZM553.0 94.3L555.9 93.2Q556.9 95.2 558.3 97.3Q559.7 99.4 561.3 101.3Q563.0 103.3 564.7 104.9Q566.4 106.6 568.1 107.7L568.1 107.7Q567.7 108.1 567.2 108.5Q566.7 109.0 566.3 109.5Q565.8 109.9 565.6 110.4L565.6 110.4Q563.9 109.0 562.2 107.2Q560.4 105.4 558.8 103.3Q557.1 101.1 555.7 98.9Q554.2 96.6 553.0 94.3L553.0 94.3ZM581.0 99.7L581.0 98.0L583.7 98.0L583.7 99.7L593.6 99.7L593.6 98.0L596.4 98.0L596.4 99.7L602.2 99.7L602.2 101.6L596.4 101.6L596.4 103.4L601.8 103.4L601.8 105.2L596.4 105.2L596.4 107.0L606.4 107.0L606.4 109.2L597.8 109.2Q598.5 109.7 599.2 110.2L599.2 110.2Q601.0 111.5 603.2 112.5Q605.4 113.5 607.6 114.0L607.6 114.0Q607.2 114.4 606.6 115.1Q606.0 115.8 605.7 116.3L605.7 116.3Q603.5 115.7 601.3 114.4L601.3 114.4Q600.6 114.1 599.9 113.6L599.9 113.6L599.9 124.0L594.8 124.0Q596.4 124.5 598.0 124.9L598.0 124.9Q600.3 125.7 602.4 126.3Q604.4 127.0 606.0 127.6L606.0 127.6L603.4 129.3Q601.3 128.5 598.1 127.4Q594.9 126.3 591.4 125.3L591.4 125.3L592.9 124.0L584.0 124.0L585.7 125.1Q584.1 126.0 581.8 126.8Q579.6 127.6 577.2 128.2Q574.7 128.8 572.5 129.3L572.5 129.3Q572.2 128.8 571.7 128.2Q571.2 127.6 570.7 127.3L570.7 127.3Q572.9 126.9 575.3 126.3Q577.8 125.7 579.9 124.9L579.9 124.9Q581.2 124.5 582.2 124.0L582.2 124.0L577.5 124.0L577.5 113.9Q576.9 114.2 576.2 114.5L576.2 114.5Q574.0 115.8 571.8 116.5L571.8 116.5Q571.5 116.0 570.9 115.4Q570.4 114.7 570.0 114.3L570.0 114.3Q572.1 113.7 574.3 112.7Q576.5 111.7 578.4 110.3L578.4 110.3Q579.3 109.8 580.0 109.2L580.0 109.2L571.0 109.2L571.0 107.0L581.0 107.0L581.0 105.2L575.8 105.2L575.8 103.4L581.0 103.4L581.0 101.6L575.1 101.6L575.1 99.7L581.0 99.7ZM587.1 94.9L587.1 92.4L590.1 92.4L590.1 94.9L606.0 94.9L606.0 101.1L603.2 101.1L603.2 97.3L574.3 97.3L574.3 101.1L571.5 101.1L571.5 94.9L587.1 94.9ZM597.0 120.3L580.2 120.3L580.2 122.3L597.0 122.3L597.0 120.3ZM597.0 116.7L580.2 116.7L580.2 118.6L597.0 118.6L597.0 116.7ZM597.0 113.1L580.2 113.1L580.2 114.9L597.0 114.9L597.0 113.1ZM581.1 111.3L581.1 111.3L596.7 111.3Q595.5 110.3 594.6 109.2L594.6 109.2L583.3 109.2Q582.3 110.3 581.1 111.3ZM583.7 107.0L593.6 107.0L593.6 105.2L583.7 105.2L583.7 107.0ZM583.7 103.4L593.6 103.4L593.6 101.6L583.7 101.6L583.7 103.4Z "/><mask id="satori_om-id-2"><rect x="386" y="176" width="29" height="48" fill="#fff"/></mask><path fill="black" d="M387.3 184.3L394.3 184.3L400.2 194.3L400.4 194.3L406.3 184.3L413.2 184.3L404.4 198.9L413.4 213.4L406.4 213.4L400.4 203.5L400.2 203.5L394.2 213.4L387.2 213.4L396.3 198.9L387.3 184.3Z "/><mask id="satori_om-id-3"><rect x="120" y="234" width="560" height="108" fill="#fff"/></mask><rect x="120" y="234" width="560" height="108" fill="black"/><path fill="white" d="M190.2 305.3L190.2 288.2L215.8 288.2L215.8 305.2L212.6 305.2L212.6 303.5L193.3 303.5L193.3 305.3L190.2 305.3ZM193.3 300.6L212.6 300.6L212.6 291.1L193.3 291.1L193.3 300.6ZM198.3 268.3L198.3 268.3L201.6 269.5Q200.4 271.8 198.9 274.3Q197.5 276.8 196 279.1L196 279.1Q195.6 279.8 195.1 280.4L195.1 280.4Q197.4 280.3 199.8 280.2L199.8 280.2Q203.9 280.1 208.3 279.9L208.3 279.9Q210.7 279.7 213.2 279.7L213.2 279.7Q212.6 279.1 212.0 278.5L212.0 278.5Q210.0 276.5 207.9 274.8L207.9 274.8L210.3 273.1Q212.3 274.7 214.4 276.6Q216.6 278.6 218.3 280.6Q220.1 282.7 221.2 284.3L221.2 284.3L218.6 286.3Q217.6 284.7 215.9 282.6L215.9 282.6Q215.8 282.5 215.7 282.4L215.7 282.4Q212 282.7 208.2 282.8L208.2 282.8Q204.0 283.0 199.9 283.2Q195.8 283.4 192.2 283.5Q188.6 283.7 185.8 283.8L185.8 283.8L185.5 280.7Q188.2 280.7 191.6 280.5L191.6 280.5Q192.4 279.3 193.3 277.9L193.3 277.9Q194.8 275.5 196.1 273.0Q197.4 270.5 198.3 268.3ZM242.2 305.3L242.2 270.1L259.2 270.1L259.2 277.8Q259.2 278.9 258.8 279.5Q258.5 280.2 257.6 280.5L257.6 280.5Q256.6 280.8 255.1 280.9Q253.5 280.9 251.2 280.9L251.2 280.9Q251.2 280.3 250.9 279.6Q250.6 278.9 250.3 278.4L250.3 278.4Q251.5 278.4 252.6 278.4Q253.6 278.5 254.4 278.4Q255.2 278.4 255.5 278.4L255.5 278.4Q256.0 278.4 256.1 278.3Q256.2 278.1 256.2 277.8L256.2 277.8L256.2 272.9L245 272.9L245 283.7L258.0 283.7L258.6 283.5L260.3 284.2Q259.3 289.3 257.4 293.3L257.4 293.3Q256.2 295.7 254.8 297.7L254.8 297.7Q255.3 298.3 255.8 298.8L255.8 298.8Q258.4 301.5 261.5 303.0L261.5 303.0Q261 303.4 260.4 304.1Q259.9 304.8 259.5 305.3L259.5 305.3Q256.3 303.5 253.7 300.6L253.7 300.6Q253.4 300.3 253.0 299.9L253.0 299.9Q252.9 300.1 252.7 300.3L252.7 300.3Q250.0 303.2 246.9 305.0L246.9 305.0Q246.7 304.5 246.2 303.9Q245.6 303.2 245.2 302.8L245.2 302.8Q248.0 301.3 250.5 298.6L250.5 298.6Q250.9 298.1 251.3 297.7L251.3 297.7Q250.1 295.9 249.1 294.0L249.1 294.0Q247.2 290.4 246 286.4L246 286.4L245 286.4L245 305.3L242.2 305.3ZM227 284.3L227 269.9L238.6 269.9L238.6 301.7Q238.6 302.9 238.3 303.6Q238 304.3 237.2 304.7L237.2 304.7Q236.5 305.1 235.2 305.2Q233.9 305.3 231.9 305.3L231.9 305.3Q231.8 304.9 231.7 304.4Q231.6 303.8 231.4 303.3Q231.2 302.8 231.0 302.4L231.0 302.4Q232.4 302.4 233.6 302.4Q234.7 302.4 235.1 302.4L235.1 302.4Q235.5 302.4 235.7 302.2Q235.8 302.1 235.8 301.6L235.8 301.6L235.8 291.7L229.5 291.7Q229.4 293.3 229.2 294.9L229.2 294.9Q228.8 297.7 228.2 300.4Q227.6 303.1 226.5 305.3L226.5 305.3Q226.2 305.1 225.8 304.8Q225.4 304.5 224.9 304.3Q224.4 304.0 224.0 303.9L224.0 303.9Q225.1 301.8 225.7 299.3Q226.2 296.8 226.5 294.2Q226.8 291.6 226.9 289.0Q227 286.5 227 284.3L227 284.3ZM257.0 286.4L248.6 286.4Q249.7 289.7 251.4 292.7L251.4 292.7Q252.1 294.1 253 295.4L253 295.4Q254 293.9 254.8 292.2L254.8 292.2Q256.2 289.5 257.0 286.4L257.0 286.4ZM235.8 282.1L229.7 282.1L229.7 284.3Q229.7 286.4 229.6 288.9L229.6 288.9L235.8 288.9L235.8 282.1ZM235.8 272.7L229.7 272.7L229.7 279.3L235.8 279.3L235.8 272.7ZM272.7 278.0L263.8 278.0L263.8 273.0L287.7 273.0L287.7 278.0L278.8 278.0L278.8 302.1L272.7 302.1L272.7 278.0ZM297.5 302.1L291.3 302.1L291.3 273.0L310.6 273.0L310.6 278.0L297.5 278.0L297.5 285.0L309.3 285.0L309.3 290.1L297.5 290.1L297.5 302.1ZM322.2 278.0L313.3 278.0L313.3 273.0L337.2 273.0L337.2 278.0L328.3 278.0L328.3 302.1L322.2 302.1L322.2 278.0ZM341.9 287.1L341.9 284.0L356.3 284.0Q356.4 282.8 356.4 281.7L356.4 281.7L356.4 274.6L340.7 274.6L340.7 271.5L375.8 271.5L375.8 274.6L359.6 274.6L359.6 281.7Q359.6 282.9 359.5 284.0L359.5 284.0L374.8 284.0L374.8 287.1L360.5 287.1Q361.6 290.4 363.3 293.1L363.3 293.1Q365.5 296.6 368.8 299.0Q372.2 301.4 376.9 302.5L376.9 302.5Q376.5 302.9 376.1 303.3Q375.7 303.8 375.4 304.4Q375.1 304.9 374.8 305.3L374.8 305.3Q369.9 303.9 366.5 301.3Q363.0 298.7 360.7 294.7L360.7 294.7Q359.5 292.7 358.5 290.3L358.5 290.3Q358.3 291.2 357.9 292.1L357.9 292.1Q356.9 294.7 354.9 297.1Q353.0 299.5 349.8 301.6Q346.5 303.7 341.7 305.3L341.7 305.3Q341.6 305.0 341.3 304.5Q340.9 304.0 340.6 303.5Q340.2 303.0 339.9 302.7L339.9 302.7Q344.4 301.2 347.4 299.3Q350.4 297.4 352.2 295.2Q354.0 293.1 354.9 290.8L354.9 290.8Q355.7 288.9 356.0 287.1L356.0 287.1L341.9 287.1ZM396.9 269.5L396.9 269.5L399.4 268.7Q400.1 270.0 400.9 271.6Q401.6 273.2 401.9 274.3L401.9 274.3L399.9 275.1L409.6 275.1L407.5 274.3Q407.9 273.5 408.4 272.5Q408.9 271.5 409.4 270.4Q409.8 269.3 410.1 268.5L410.1 268.5L413.2 269.5Q412.3 271.0 411.5 272.5L411.5 272.5Q410.7 274.0 410.0 275.1L410.0 275.1L414.7 275.1L414.7 285.2L405.9 285.2L405.9 289.6L415.9 289.6L415.9 290.0Q415.9 290.5 415.8 290.8L415.8 290.8Q415.7 294.1 415.4 296.1Q415.2 298.2 415.0 299.3Q414.7 300.5 414.3 301.0L414.3 301.0Q413.8 301.5 413.3 301.7Q412.8 301.9 412.1 301.9L412.1 301.9Q411.5 302.0 410.5 302.0Q409.4 302.0 408.3 302.0L408.3 302.0Q408.2 301.3 408.0 300.6Q407.8 299.8 407.5 299.3L407.5 299.3Q408.6 299.4 409.5 299.4Q410.4 299.4 410.7 299.4L410.7 299.4Q411.6 299.4 411.9 299.1L411.9 299.1Q412.1 298.7 412.4 297.8Q412.6 296.9 412.7 295.0L412.7 295.0Q412.8 293.8 412.9 292.2L412.9 292.2L405.9 292.2L405.9 305.2L403.1 305.2L403.1 295.1Q402.6 295.7 402.1 296.4L402.1 296.4Q400.1 298.7 397.9 300.5Q395.7 302.3 393.4 303.5L393.4 303.5Q393.2 303.2 392.9 302.7Q392.5 302.3 392.1 301.9Q391.8 301.5 391.4 301.2L391.4 301.2Q393.6 300.2 395.8 298.6Q398.0 296.9 399.9 294.9L399.9 294.9Q401.1 293.6 402.1 292.2L402.1 292.2L396.5 292.2Q396.3 293.0 396.1 293.6L396.1 293.6L393.3 293.3Q393.7 291.9 394.1 290.0Q394.5 288.2 394.8 286.2Q395.2 284.3 395.4 282.6L395.4 282.6L403.1 282.6L403.1 277.7L394.4 277.7L394.4 275.1L399.1 275.1Q398.9 274.0 398.3 272.5L398.3 272.5Q397.6 270.9 396.9 269.5ZM380.0 279.9L380.0 277.1L385.9 277.1L385.9 268.5L388.7 268.5L388.7 277.1L393.5 277.1L393.5 279.9L388.7 279.9L388.7 282.5Q389.0 282.9 389.6 283.7L389.6 283.7Q390.3 284.6 391.1 285.8Q391.9 286.9 392.6 287.9Q393.3 288.8 393.6 289.3L393.6 289.3L391.9 291.5Q391.5 290.8 390.9 289.7Q390.3 288.6 389.5 287.4L389.5 287.4Q389.1 286.7 388.7 286.0L388.7 286.0L388.7 305.2L385.9 305.2L385.9 286.4Q385.4 287.9 384.9 289.5L384.9 289.5Q383.9 291.9 382.9 294.1Q381.8 296.2 380.7 297.7L380.7 297.7Q380.5 297.1 380.0 296.3Q379.6 295.6 379.2 295.1L379.2 295.1Q380.2 293.7 381.2 291.8Q382.2 289.9 383.1 287.7Q384.0 285.5 384.7 283.3L384.7 283.3Q385.2 281.6 385.6 279.9L385.6 279.9L380.0 279.9ZM411.9 277.7L405.9 277.7L405.9 282.6L411.9 282.6L411.9 277.7ZM403.1 289.6L403.1 285.2L397.8 285.2Q397.7 285.8 397.6 286.4L397.6 286.4Q397.3 288.0 397.0 289.6L397.0 289.6L403.1 289.6ZM422.3 305.1L422.3 281.1L436.9 281.1L436.9 301.8Q436.9 302.9 436.6 303.6Q436.3 304.2 435.5 304.6Q434.6 304.9 433.3 305.0Q431.9 305.1 429.9 305.1L429.9 305.1Q429.8 304.5 429.5 303.8Q429.2 303.0 428.9 302.4L428.9 302.4Q430.4 302.5 431.6 302.5Q432.9 302.5 433.3 302.5L433.3 302.5Q433.7 302.5 433.8 302.3Q434.0 302.1 434.0 301.8L434.0 301.8L434.0 296.4L425.1 296.4L425.1 305.1L422.3 305.1ZM419.7 277.5L419.7 274.8L429.6 274.8Q429.1 273.7 428.2 272.3L428.2 272.3Q427.1 270.7 425.9 269.4L425.9 269.4L428.7 268.4Q429.9 269.7 431.0 271.3Q432.1 272.9 432.7 274.0L432.7 274.0L430.7 274.8L442.8 274.8Q443.3 274.1 443.8 273.2L443.8 273.2Q444.6 271.9 445.3 270.6Q446.0 269.3 446.5 268.3L446.5 268.3L449.7 269.3Q448.6 271.2 447.3 273.1L447.3 273.1Q446.7 274.0 446.1 274.8L446.1 274.8L455.5 274.8L455.5 277.5L419.7 277.5ZM449.9 301.5L449.9 280.3L452.9 280.3L452.9 301.5Q452.9 302.8 452.5 303.5Q452.1 304.2 451.2 304.6L451.2 304.6Q450.3 304.9 448.7 305.0Q447.2 305.1 444.9 305.1L444.9 305.1Q444.7 304.5 444.4 303.7Q444.1 302.9 443.8 302.2L443.8 302.2Q445.6 302.3 447.1 302.3Q448.5 302.3 449.1 302.3L449.1 302.3Q449.5 302.3 449.7 302.1Q449.9 301.9 449.9 301.5L449.9 301.5ZM441.8 297.9L441.8 281.5L444.6 281.5L444.6 297.9L441.8 297.9ZM425.1 294.1L434.0 294.1L434.0 290.0L425.1 290.0L425.1 294.1ZM425.1 287.7L434.0 287.7L434.0 283.7L425.1 283.7L425.1 287.7ZM462.1 275.3L462.1 272.3L492.3 272.3L492.3 275.3L476.8 275.3Q476.3 277.9 475.8 280.7L475.8 280.7Q475.5 282.4 475.2 284.1L475.2 284.1L488.5 284.1L488.5 300.1L495.1 300.1L495.1 303.1L459.5 303.1L459.5 300.1L468.5 300.1Q469.0 298.1 469.6 295.7L469.6 295.7Q470.3 292.2 471.1 288.3L471.1 288.3Q471.3 287.7 471.4 287.1L471.4 287.1L463.7 287.1L463.7 284.1L471.9 284.1Q472.3 282.3 472.6 280.6L472.6 280.6Q473.1 277.8 473.5 275.3L473.5 275.3L462.1 275.3ZM471.9 300.1L471.9 300.1L485.4 300.1L485.4 287.1L474.6 287.1Q474.5 287.8 474.3 288.5L474.3 288.5Q473.6 292.3 472.8 295.8L472.8 295.8Q472.3 298.1 471.9 300.1ZM499.2 286.5L499.2 283.4L515.4 283.4L515.4 268.5L518.7 268.5L518.7 283.4L535.1 283.4L535.1 286.5L518.7 286.5L518.7 305.3L515.4 305.3L515.4 286.5L499.2 286.5ZM538.5 292.1L537.8 289.2Q540.1 288.5 543.3 287.5L543.3 287.5L543.3 279.3L538.3 279.3L538.3 276.5L543.3 276.5L543.3 268.5L546.1 268.5L546.1 276.5L550.5 276.5L550.5 279.3L546.1 279.3L546.1 286.7Q548.1 286.1 550.1 285.4L550.1 285.4L550.5 288.2Q548.3 288.9 546.1 289.7L546.1 289.7L546.1 301.8Q546.1 303.0 545.8 303.7Q545.5 304.3 544.8 304.7L544.8 304.7Q544.1 305.1 542.9 305.2Q541.7 305.3 539.7 305.3L539.7 305.3Q539.7 304.7 539.4 303.9Q539.2 303.1 538.9 302.5L538.9 302.5Q540.2 302.5 541.2 302.5Q542.3 302.5 542.7 302.5L542.7 302.5Q543.0 302.5 543.2 302.4Q543.3 302.2 543.3 301.8L543.3 301.8L543.3 290.6Q540.7 291.4 538.5 292.1L538.5 292.1ZM557.6 275.3L557.6 268.5L560.3 268.5L560.3 285.3Q560.3 288.3 560.1 291.1Q559.8 293.9 559.0 296.5Q558.1 299.0 556.5 301.2Q554.9 303.5 552.1 305.3L552.1 305.3Q551.9 305.0 551.5 304.6Q551.1 304.2 550.7 303.9Q550.3 303.5 550.0 303.3L550.0 303.3Q552.5 301.6 554.1 299.6Q555.6 297.6 556.3 295.3L556.3 295.3Q556.5 294.9 556.6 294.4L556.6 294.4Q555.4 294.8 554.1 295.3L554.1 295.3Q552.1 296.0 550.2 296.7L550.2 296.7L549.1 294.1Q550.8 293.6 553.1 292.9L553.1 292.9Q555.1 292.3 557.2 291.6L557.2 291.6Q557.3 291.1 557.3 290.5L557.3 290.5Q557.5 288.5 557.6 286.4L557.6 286.4L551.3 286.4L551.3 283.7L557.6 283.7L557.6 278.1L551.0 278.1L551.0 275.3L557.6 275.3ZM564.5 305.2L564.5 268.5L567.3 268.5L567.3 275.3L574.4 275.3L574.4 278.1L567.3 278.1L567.3 283.7L574.0 283.7L574.0 286.4L567.3 286.4L567.3 292.4L575.1 292.4L575.1 295.1L567.3 295.1L567.3 305.2L564.5 305.2ZM591.3 268.3L591.3 268.3L594.7 269.0Q593.7 270.7 592.5 272.5L592.5 272.5L603.8 272.5L604.3 272.3L606.3 273.4Q604.5 277.9 601.7 281.7L601.7 281.7Q598.9 285.3 595.4 288.2L595.4 288.2L611.9 288.2L611.9 305.3L608.8 305.3L608.8 303.7L592.3 303.7L592.3 305.3L589.3 305.3L589.3 292.5Q588.4 293.1 587.5 293.5L587.5 293.5Q583.5 295.7 579.4 297.1L579.4 297.1Q579.2 296.7 578.9 296.1Q578.6 295.6 578.3 295.1Q577.9 294.7 577.7 294.4L577.7 294.4Q581.5 293.3 585.4 291.3L585.4 291.3Q589.2 289.3 592.6 286.7L592.6 286.7Q591.9 285.8 590.9 284.9L590.9 284.9Q589.5 283.5 587.8 282.1L587.8 282.1Q586.5 281.0 585.3 280.1L585.3 280.1Q582.9 282.1 580.0 283.7L580.0 283.7Q579.8 283.4 579.4 282.9Q579.0 282.5 578.6 282.1Q578.2 281.7 577.9 281.4L577.9 281.4Q581.1 279.6 583.8 277.4Q586.4 275.2 588.3 272.8Q590.2 270.5 591.3 268.3ZM592.3 300.9L608.8 300.9L608.8 291.0L592.3 291.0L592.3 300.9ZM595.0 284.6L595.0 284.6Q597.1 282.6 599.0 280.3L599.0 280.3Q600.9 277.9 602.3 275.2L602.3 275.2L590.3 275.2Q589.0 276.7 587.5 278.1L587.5 278.1Q588.7 279.0 590.1 280.1L590.1 280.1Q591.8 281.5 593.3 282.8L593.3 282.8Q594.3 283.7 595.0 284.6Z "/></svg>